<?xml version="1.0" encoding="utf-8"?>
<!-- Generator: Adobe Illustrator 16.0.0, SVG Export Plug-In . SVG Version: 6.00 Build 0)  -->
<!DOCTYPE svg PUBLIC "-//W3C//DTD SVG 1.1//EN" "http://www.w3.org/Graphics/SVG/1.1/DTD/svg11.dtd">
<svg version="1.1" id="Layer_1" xmlns="http://www.w3.org/2000/svg" xmlns:xlink="http://www.w3.org/1999/xlink" x="0px" y="0px"
	 width="75.43px" height="80px" viewBox="12.285 13.03 75.43 80" enable-background="new 12.285 13.03 75.43 80"
	 xml:space="preserve">
<path fill="#333333" d="M56.805,13.03c0,6.703,0,13.406,0,20.145c-4.621,4.617-9.26,9.254-13.905,13.884
	c-0.136,0.134-0.336,0.204-0.507,0.304c-0.141-0.142-0.283-0.283-0.424-0.424c0.142-0.111,0.395-0.214,0.405-0.335
	c0.044-0.559,0.019-1.124,0.019-1.688c0-10.628,0-21.257,0-31.886C47.197,13.03,52.001,13.03,56.805,13.03z"/>
<path fill="#333333" d="M41.969,46.939c0.142,0.142,0.283,0.283,0.424,0.424c0,6.754,0,13.507,0,20.303c-4.693,0-9.258,0-13.906,0
	c0-11.396,0-22.786,0-34.421c0.534,0.534,0.949,0.95,1.364,1.364c3.74,3.74,7.483,7.479,11.216,11.226
	C41.401,46.17,41.67,46.568,41.969,46.939z"/>
<path fill="#333333" d="M70.775,47.847c0,6.437,0,13.059,0,19.771c-4.63,0-9.244,0-13.901,0c0-11.256,0-22.501,0-33.672
	C61.434,38.505,65.996,43.068,70.775,47.847z"/>
<path fill="#333333" d="M14.825,77.529c0.363,1.248,0.709,2.441,1.134,3.905c0.409-1.385,0.762-2.58,1.149-3.891
	c0.691,0,1.496,0,2.349,0c0,1.911,0,3.792,0,5.761c-0.316,0-0.642,0-1.131,0c-0.25-1.25,0.022-2.635-0.185-4.357
	c-0.337,0.719-0.589,1.149-0.744,1.614c-0.188,0.559-0.269,1.152-0.439,1.718c-0.398,1.319-0.721,1.408-1.972,0.61
	c-0.233-0.977-0.462-1.935-0.69-2.894c-0.073,0.003-0.146,0.005-0.219,0.008c0,1.082,0,2.161,0,3.314c-0.614,0-1.085,0-1.646,0
	c0.029,0.031-0.059-0.02-0.06-0.073c-0.007-1.882-0.006-3.762-0.006-5.716C13.117,77.529,13.87,77.529,14.825,77.529z"/>
<path fill="#333333" d="M67.051,77.494c1.319,0,2.575,0,3.938,0c0.386,0.449,0.839,0.975,1.462,1.698c0,0.504,0,1.339,0,2.312
	c-0.38,0.547-0.837,1.205-1.283,1.848c-1.406,0-2.724,0-4.116,0C67.051,81.449,67.051,79.566,67.051,77.494z M70.792,79.364
	c-0.821-0.629-1.236-0.815-2.137-0.934c0.075,1.381-0.072,2.756,0.108,4.312c0.822-0.457,1.453-0.808,2.028-1.128
	C70.792,80.776,70.792,80.069,70.792,79.364z"/>
<path fill="#333333" d="M52.424,77.526c0.228,0.229,0.378,0.378,0.569,0.569c-0.127,0.677,0.321,1.488-0.417,2.103
	c0.282,0.3,0.564,0.596,0.836,0.884c0,0.369,0,0.721,0,1.266c-0.335,0.238-0.785,0.561-1.465,1.043c-0.734,0-1.859,0-3.092,0
	c0-1.928,0-3.86,0-5.863C49.996,77.526,51.176,77.526,52.424,77.526z M50.553,80.847c0,0.565,0,1.129,0,1.749
	c1.146-0.606,1.146-0.606,0.936-1.749C51.213,80.847,50.936,80.847,50.553,80.847z M50.885,78.192
	c-0.123,0.061-0.245,0.123-0.369,0.185c0,0.375,0,0.75,0,1.216c0.453-0.032,0.829-0.06,1.552-0.11
	C51.527,78.894,51.207,78.543,50.885,78.192z"/>
<path fill="#333333" d="M42.395,83.354c-0.474,0-0.805,0-1.205,0c0-1.964,0-3.89,0-5.857c1.234,0,2.408,0,3.576,0
	c0.155,0.156,0.304,0.305,0.523,0.524c0,0.533,0,1.148,0,1.839c-0.176,0.174-0.425,0.42-0.672,0.665
	c0.363,0.918,0.726,1.832,1.114,2.812c-0.52,0-0.991,0-1.54,0c-0.216-0.633-0.448-1.309-0.693-2.026c-0.298,0-0.627,0-1.103,0
	C42.395,81.997,42.395,82.66,42.395,83.354z M42.456,78.402c0,0.581,0,1.045,0,1.489c0.828,0.284,1.353,0.04,1.699-0.841
	C43.757,78.544,43.35,78.064,42.456,78.402z"/>
<path fill="#333333" d="M78.486,77.491c1.252,0,2.428,0,3.552,0c0.977,0.612,0.523,1.527,0.618,2.3
	c-0.263,0.263-0.511,0.511-0.76,0.759c0.325,0.885,1.133,1.651,0.621,2.784c-0.289,0-0.621,0-1.027,0
	c-0.217-0.633-0.449-1.31-0.694-2.026c-0.3,0-0.631,0-1.107,0c0,0.695,0,1.358,0,2.042c-0.476,0-0.808,0-1.203,0
	C78.486,81.433,78.486,79.554,78.486,77.491z M79.763,78.397c0,0.494,0,1.008,0,1.502c0.824,0.262,1.354,0.023,1.651-0.74
	C81.132,78.373,80.59,78.158,79.763,78.397z"/>
<path fill="#333333" d="M22.156,77.466c0.645,0,1.205,0,1.913,0c0.629,1.854,1.276,3.761,1.932,5.689
	c-1.373,0.215-1.373,0.215-2.03-1.026c-0.555,0-1.116,0-1.789,0c-0.245,0.384-0.527,0.828-0.796,1.252c-0.283,0-0.562,0-0.955,0
	c-0.026-0.259-0.138-0.547-0.063-0.771C20.923,80.942,21.518,79.287,22.156,77.466z M23.662,81.271
	c0.355-0.953-0.583-1.663-0.543-2.557c-0.291,0.843-1.104,1.581-0.42,2.557C22.978,81.271,23.254,81.271,23.662,81.271z"/>
<path fill="#333333" d="M29.999,77.064c0.251,0.358,0.438,0.625,0.774,1.106c-0.878,0.075-1.531,0.13-2.21,0.188
	c-0.173,0.173-0.371,0.372-0.586,0.586c0.867,1.027,2.742,0.945,2.882,2.885c-0.296,0.7-0.517,1.756-1.761,1.942
	c-0.612,0-1.224,0-1.777,0c-0.645-0.464-0.722-1.003-0.501-1.724c0.583,0.212,1.066,0.388,1.693,0.615
	c0.289-0.35,0.566-0.687,0.854-1.035c-0.946-0.582-1.78-1.092-2.6-1.595c0-0.74,0-1.354,0-2.001
	C27.579,77.098,28.685,76.925,29.999,77.064z"/>
<path fill="#333333" d="M86.969,76.926c0.173,0.687,0.294,1.17,0.419,1.67c-0.775-0.139-1.394-0.249-2.108-0.376
	c0,0.476,0,0.806,0,1.09c0.803,0.509,1.64,1.039,2.436,1.543c0,0.557,0,0.969,0,1.592c-0.526,0.38-1.13,0.925-1.828,1.289
	c-0.816,0.426-1.526-0.224-2.387-0.47c0.018-0.368,0.038-0.75,0.058-1.157c0.838,0.203,1.539,0.372,2.396,0.58
	c0.049-0.454,0.084-0.779,0.118-1.094c-0.896-0.577-1.771-1.143-2.716-1.751c0.222-0.821,0.408-1.522,0.592-2.206
	c0.455-0.156,0.878-0.338,1.318-0.444C85.728,77.081,86.203,77.042,86.969,76.926z"/>
<path fill="#333333" d="M58.85,82.534c-0.629,0.413-1.404,0.923-2.279,1.497c-0.863-0.584-1.628-1.103-2.297-1.555
	c0-1.735,0-3.285,0-4.928c0.396,0,0.779,0,1.236,0c0,1.483,0,2.947,0,4.555c0.497,0.195,0.979,0.385,1.447,0.568
	c0.255-0.493,0.435-0.845,0.746-1.451c0-1.037,0-2.358,0-3.722c0.406,0,0.738,0,1.146,0C58.85,79.121,58.85,80.726,58.85,82.534z"/>
<path fill="#333333" d="M36.078,83.316c0-1.962,0-3.849,0-5.798c1.22,0,2.401,0,3.646,0c0.042,0.134,0.1,0.321,0.208,0.669
	c-0.725,0.06-1.382,0.113-2.121,0.175c0,0.321,0,0.651,0,1.136c0.571,0.04,1.236,0.087,1.969,0.14c0,0.345,0,0.677,0,1.159
	c-0.603,0.026-1.272,0.057-1.995,0.089c0,0.533,0,1.005,0,1.632c0.786,0,1.595,0,2.443,0c0,0.34,0,0.532,0,0.799
	C38.894,83.316,37.571,83.316,36.078,83.316z"/>
<path fill="#333333" d="M77.53,82.543c0,0.341,0,0.531,0,0.786c-1.362,0-2.686,0-4.102,0c0-1.897,0-3.833,0-5.822
	c1.196,0,2.376,0,3.617,0c0.043,0.177,0.088,0.368,0.171,0.709c-0.72,0.051-1.385,0.098-2.117,0.149c0,0.346,0,0.678,0,1.159
	c0.604,0.027,1.271,0.058,1.994,0.09c0,0.393,0,0.726,0,1.208c-0.642,0-1.308,0-2.02,0c0,0.623,0,1.096,0,1.721
	C75.897,82.543,76.707,82.543,77.53,82.543z"/>
<path fill="#333333" d="M35.694,78.028c-0.568,0.229-1.137,0.458-1.725,0.695c0,1.554,0,3.007,0,4.596
	c-0.432,0.03-0.812,0.057-1.262,0.087c0-1.69,0-3.283,0-4.966c-0.43-0.073-0.812-0.14-1.255-0.215
	c-0.032-0.173-0.068-0.363-0.125-0.662c1.46,0,2.873,0,4.284,0C35.639,77.717,35.667,77.872,35.694,78.028z"/>
<path fill="#333333" d="M62.77,83.326c0-1.96,0-3.836,0-5.79c0.353,0,0.681,0,1.099,0c-0.037-0.034,0.059,0.011,0.059,0.056
	c0.009,1.456,0.007,2.91,0.007,4.061c0.692,1.353,1.796,0.628,2.578,0.996c0,0.233,0,0.422,0,0.677
	C65.301,83.326,64.125,83.326,62.77,83.326z"/>
<path fill="#333333" d="M21.417,92.716c-0.877,0-1.65,0-2.423,0c-2.115-1.932-2.155-2.933-0.167-5.046c0.793,0,1.627,0,2.504,0
	C23.4,89.559,23.442,90.561,21.417,92.716z M19.293,88.052c-0.346,0.346-0.692,0.691-1.005,1.005c0,0.785,0,1.536,0,2.229
	c0.805,0.833,1.684,1.21,2.379,1.033c0.674-0.505,1.064-0.797,1.363-1.02c0-0.836,0-1.529,0-2.131
	c-0.383-0.416-0.713-0.774-1.028-1.116C20.411,88.052,19.852,88.052,19.293,88.052z"/>
<path fill="#333333" d="M65.779,87.664c0.623,0,1.178,0,1.896,0c0.284,0.29,0.665,0.68,1.07,1.094
	c-0.448,0.645-0.342,1.615-1.739,1.581c0.781,0.838,1.278,1.37,1.916,2.055c-0.216,0.234-0.337,0.366-0.586,0.636
	c-0.395-0.594-0.629-0.952-0.868-1.305c-0.246-0.362-0.497-0.723-0.896-1.298c0,0.875,0,1.548,0,2.247c-0.337,0-0.529,0-0.793,0
	C65.779,91.053,65.779,89.452,65.779,87.664z M67.81,89.712c0.063-0.986-0.11-1.618-1.187-1.672c0,0.604,0,1.119,0,1.672
	C67.019,89.712,67.347,89.712,67.81,89.712z"/>
<path fill="#333333" d="M50.519,87.67c0.264,0,0.454,0,0.71,0c0,1.353,0,2.671,0,3.921c0.266,0.265,0.464,0.464,0.789,0.789
	c0.407-0.143,0.889-0.311,1.379-0.482c0-1.473,0-2.79,0-4.148c0.243-0.059,0.434-0.105,0.61-0.147
	c0.099,0.132,0.243,0.235,0.244,0.341c0.017,1.193,0.01,2.387,0.01,3.776c-0.284,0.195-0.685,0.472-1.367,0.941
	c-0.19,0-0.802,0-1.402,0c-0.35-0.332-0.704-0.67-0.971-0.925C50.519,90.321,50.519,89.007,50.519,87.67z"/>
<path fill="#333333" d="M73.547,91.444c-0.561,0-1.12,0-1.777,0c-0.252,0.396-0.53,0.833-0.827,1.302
	c-0.179-0.05-0.366-0.104-0.66-0.187c0.792-1.697,1.557-3.332,2.448-5.243c0.833,1.936,1.556,3.616,2.286,5.316
	C73.734,92.995,74.417,91.395,73.547,91.444z M71.854,90.595c0.614,0,0.944,0.021,1.268-0.015c0.081-0.01,0.143-0.201,0.239-0.348
	c-0.212-0.43-0.434-0.881-0.667-1.353C72.458,89.361,72.235,89.816,71.854,90.595z"/>
<path fill="#333333" d="M48.365,92.817c-0.333-0.436-0.667-0.87-1.021-1.334c-0.607,0-1.219,0-1.83,0
	c-0.741,0.035-0.234,1.514-1.451,1.133c0.77-1.67,1.517-3.287,2.374-5.147C47.354,89.225,48.001,90.913,48.365,92.817z
	 M46.404,88.785c-0.264,0.687-0.456,1.185-0.709,1.845c0.621-0.05,0.996-0.081,1.5-0.123C46.914,89.894,46.702,89.432,46.404,88.785
	z"/>
<path fill="#333333" d="M60.267,77.494c0.402,0,0.734,0,1.129,0c0,1.969,0,3.897,0,5.858c-0.403,0-0.734,0-1.129,0
	C60.267,81.385,60.267,79.455,60.267,77.494z"/>
<path fill="#333333" d="M87.677,92.712c-0.273,0-0.411,0-0.553,0c-0.229-0.391-0.461-0.785-0.71-1.209c-0.779,0-1.533,0-2.284,0
	c-0.252,0.388-0.521,0.804-0.79,1.219c0.479-1.8,0.829-3.637,2.095-5.169C86.188,89.29,86.905,90.939,87.677,92.712z M86.237,90.564
	c-0.342-0.69-0.576-1.162-0.892-1.8c-0.295,0.555-0.502,0.952-0.717,1.345c-0.068,0.125-0.153,0.24-0.291,0.455
	C84.979,90.564,85.441,90.564,86.237,90.564z"/>
<path fill="#333333" d="M56.178,89.012c0.289-0.578,0.492-0.986,0.666-1.332c0.746,0,1.36,0,1.975,0
	c-0.047,0.063-0.096,0.129-0.143,0.192c0.241,0.114,0.483,0.228,0.725,0.341c-0.048,0.091-0.097,0.183-0.146,0.274
	c-0.602-0.167-1.204-0.335-1.972-0.547c-0.026,0.453-0.047,0.781-0.076,1.266c0.625,0.355,1.303,0.739,2.08,1.182
	c0,0.482,0,1.098,0,1.751c-0.11,0.11-0.26,0.261-0.491,0.492c-0.522,0-1.135,0-1.917,0c-0.135-0.237-0.346-0.611-0.558-0.984
	c0.074-0.059,0.147-0.116,0.223-0.176c0.329,0.278,0.657,0.558,1.123,0.953c0.414-0.212,0.87-0.447,1.364-0.702
	c-0.134-0.313-0.161-0.55-0.294-0.662C57.954,90.408,57.148,89.784,56.178,89.012z"/>
<path fill="#333333" d="M38.579,90.217c-1.048,0-1.946,0-2.992,0c0,0.848,0,1.656,0,2.467c-0.515-0.835-0.369-1.719-0.394-2.582
	c-0.024-0.822-0.005-1.646,0.336-2.474c0.047,0.662,0.093,1.325,0.143,2.053c0.908,0,1.807,0,2.857,0
	c0.026-0.604,0.057-1.272,0.083-1.905c0.116-0.058,0.179-0.113,0.213-0.1c0.061,0.023,0.146,0.092,0.146,0.142
	c0.008,1.605,0.006,3.21-0.247,4.848c-0.049-0.336-0.121-0.671-0.14-1.009C38.56,91.232,38.579,90.808,38.579,90.217z"/>
<path fill="#333333" d="M32.221,88.052c0,1.53,0,3.062,0,4.625c-0.328,0-0.519,0-0.848,0c0-1.562,0-3.095,0-4.625
	C31.656,88.052,31.938,88.052,32.221,88.052z"/>
<path fill="#333333" d="M63.931,87.991c-0.33,0-0.66,0-1.199,0c0,1.618,0,3.176,0,4.735c-0.113,0-0.229-0.002-0.343-0.002
	c0-1.508,0-3.015,0-4.572c-0.51-0.073-0.896-0.128-1.318-0.188c0.089-0.149,0.144-0.323,0.201-0.324
	c0.893-0.016,1.784-0.012,2.677-0.012C63.942,87.75,63.937,87.87,63.931,87.991z"/>
<path fill="#333333" d="M76.82,92.748c0-1.814,0-3.457,0-5.1c0.076-0.002,0.15-0.004,0.227-0.006c0,1.349,0,2.697,0,4.182
	c0.619,0.229,1.162,0.429,1.873,0.692C78.221,92.891,77.558,92.631,76.82,92.748z"/>
<path fill="#333333" d="M25.611,92.292c0.601,0,0.951,0,1.318,0c0.333-0.342,0.674-0.692,1.088-1.118c0-1.085,0-2.259,0-3.396
	c0.112-0.06,0.175-0.119,0.208-0.105c0.06,0.023,0.145,0.091,0.145,0.142c0.008,1.256,0.006,2.512,0.006,3.92
	c-0.287,0.212-0.679,0.501-1.285,0.948C26.862,92.7,26.281,92.861,25.611,92.292z"/>
<path fill="#333333" d="M13.147,88.9c0.884,0.631,1.769,1.26,2.601,1.851c-0.153,0.521,0.191,1.053-0.481,1.116
	c-0.142,0-0.283,0-0.424,0c0.078-0.172,0.156-0.342,0.267-0.586c-0.215-0.496-0.567-0.914-1.213-1.14
	c-0.307-0.107-0.503-0.535-0.749-0.817C13.147,89.183,13.147,89.043,13.147,88.9z"/>
<path fill="#333333" d="M80.611,92.643c0-1.646,0-3.29,0-4.937c0.503,0.779,0.312,1.636,0.347,2.462
	c0.033,0.824,0.007,1.649,0.007,2.476C80.847,92.644,80.729,92.644,80.611,92.643z"/>
<path fill="#333333" d="M25.863,92.292c-0.208,0-0.416,0-0.624,0c-0.074-0.104-0.212-0.21-0.213-0.316
	c-0.015-1.435-0.01-2.87,0.133-4.312C25.784,89.158,24.955,90.853,25.863,92.292z"/>
<path fill="#333333" d="M13.147,88.9c0,0.143,0,0.283,0,0.424c-0.454-0.725-0.454-0.725,0.132-1.637c0.568,0,1.18,0,1.9,0
	c0.025,0.183,0.057,0.422,0.096,0.713C14.014,87.925,14.014,87.925,13.147,88.9z"/>
<path fill="#333333" d="M14.842,91.868c0.142,0,0.283,0,0.424,0c-0.183,0.273-0.365,0.547-0.547,0.82c-0.441,0-0.847,0-1.416,0
	c-0.264-0.29-0.617-0.678-1.019-1.119c0.226-0.047,0.479-0.183,0.587-0.107c0.377,0.261,0.705,0.594,1.048,0.896
	C14.279,92.168,14.561,92.017,14.842,91.868z"/>
<path fill="#333333" d="M32.221,88.052c-0.283,0-0.565,0-0.848,0c-0.4,0-0.8,0-1.201,0c1.064-0.585,2.158-0.348,3.276-0.124
	C33.04,87.971,32.63,88.011,32.221,88.052z"/>
</svg>
