<?xml version="1.0" encoding="utf-8"?>
<!-- Generator: Adobe Illustrator 16.0.0, SVG Export Plug-In . SVG Version: 6.00 Build 0)  -->
<!DOCTYPE svg PUBLIC "-//W3C//DTD SVG 1.1//EN" "http://www.w3.org/Graphics/SVG/1.1/DTD/svg11.dtd">
<svg version="1.1" id="Layer_1" xmlns="http://www.w3.org/2000/svg" xmlns:xlink="http://www.w3.org/1999/xlink" x="0px" y="0px"
	 width="114.747px" height="80px" viewBox="-7.374 -5.141 114.747 80" enable-background="new -7.374 -5.141 114.747 80"
	 xml:space="preserve">
<path fill="#FEFEFE" d="M65.758,74.859c-7.41,0-14.814,0-22.223,0c0.263-0.209,0.526-0.416,0.966-0.768c-0.94,0-1.714,0-2.529,0
	c-0.494-0.766-0.94-1.453-1.371-2.119c0.529-0.742,0.977-1.369,1.4-1.963c0.768,0,1.438,0.008,2.104-0.012
	c0.065,0,0.126-0.158,0.2-0.258c-0.541-0.213-1.059-0.414-1.66-0.648c-0.824,0.641-1.628,1.266-2.318,1.801c0,0.867,0,1.533,0,2.172
	c0.357,0.359,0.677,0.703,1.026,1.02c0.307,0.277,0.646,0.518,0.97,0.775c-12.256,0-24.512,0-36.767,0
	c0.416-0.342,0.833-0.682,1.193-0.977c0-0.49,0-0.887,0-1.332c-0.805-0.623-1.622-1.256-2.444-1.893
	c0.232-0.234,0.422-0.426,0.693-0.695c0.395,0.102,0.847,0.215,1.328,0.336c0-0.191,0-0.373,0-0.621c-0.659,0-1.291,0-2.024,0
	c-0.162,0.434-0.315,0.84-0.424,1.133c0.586,1.23,2.149,1.254,2.502,2.492c-0.466,0.98-1.229,0.793-1.945,0.672
	c-0.101-0.305-0.169-0.512-0.239-0.719c-0.059,0.008-0.118,0.016-0.176,0.023c0,0.367,0,0.73,0,0.977
	c0.299,0.248,0.514,0.426,0.729,0.604c-1.214,0-2.425,0-3.637,0c0.416-0.342,0.833-0.682,1.188-0.975c0-1.43,0.001-2.764-0.006-4.1
	c0-0.047-0.081-0.111-0.139-0.135c-0.032-0.014-0.093,0.039-0.183,0.082c-0.24,1.414,0.355,2.988-0.629,4.254
	c-0.475,0-0.922,0-1.391,0c-0.281-0.469-0.539-0.902-0.965-1.617c0-0.713,0-1.727,0-2.861c-0.184,0.182-0.27,0.229-0.271,0.277
	c-0.016,0.801-0.029,1.6-0.027,2.4c0.002,1.367,0.186,1.766,1.21,2.674c-2.423,0-4.848,0-7.273,0
	c-0.001-26.668-0.001-53.333-0.001-80c38.249,0,76.499,0,114.747,0c0,26.667,0,53.332,0,80c-3.637,0-7.273,0-10.908,0
	c0.104-0.135,0.18-0.314,0.316-0.398c2.121-1.295,2.295-3.424,0.363-4.76c-0.346-0.24-0.789-0.344-1.213-0.523
	c-0.461,0.141-0.941,0.266-1.408,0.434c-1.354,0.48-1.82,2.027-1.4,3.395c0.311,1.004,1.25,1.156,1.723,1.854
	c-9.023,0-18.047,0-27.07,0c0-0.248,0-0.496,0-0.73c-0.635-0.068-1.133-0.121-1.682-0.182c0-1.5,0-2.887,0-4.305
	c-0.244,0-0.426,0-0.744,0c0,1.479-0.02,2.93,0.02,4.383C65.379,74.307,65.623,74.582,65.758,74.859z M105.711,71.209
	c-0.957-0.271-1.031-0.23-1.541-1.195c-0.283-0.535-0.457-0.52-0.783-0.244c0.494,0.965,0.98,1.91,1.529,2.973
	c0.035,0.467,0.082,1.076,0.131,1.691c0.053-0.004,0.105-0.01,0.158-0.014c0.156-1.002,0.312-2.004,0.475-3.227
	c0.076,0.045,0.152,0.092,0.23,0.137c0.346-0.525,0.693-1.047,1.1-1.666c-0.334-0.018-0.516-0.027-0.703-0.039
	C106.092,70.164,105.885,70.678,105.711,71.209z M74.578,49.24c0-0.758,0-1.273,0-1.801c-0.398-0.25-0.756-0.469-1.178-0.734
	c0.449-0.096,0.836-0.178,1.668-0.355c-1.576-0.371-2.455,0.029-3.197,0.775c0,0.611,0,1.195,0,1.389
	c0.447,0.643,0.711,1.023,0.873,1.256c0.869,0,1.527,0,2.305,0c0.133-0.357,0.27-0.721,0.551-1.463
	C75.125,48.738,74.984,48.867,74.578,49.24z M44.747,26.778c0.257-0.19,0.543-0.35,0.766-0.574
	c3.658-3.643,7.31-7.295,10.903-10.889c0-6.691,0-13.319,0-20.053c-4.055,0-8.063,0-12.073,0c-0.519,0-1.038,0-1.531,0
	c0,11.26,0,22.38,0,33.755C43.563,28.149,44.155,27.465,44.747,26.778z M42.656,49.768c0-6.943,0-13.725,0-20.13
	c-2.275-2.725-4.636-4.92-6.905-7.206c-2.313-2.329-4.642-4.645-7.081-7.084c0,11.562,0,22.971,0,34.42
	C33.331,49.768,37.957,49.768,42.656,49.768z M70.607,49.768c0-6.895,0-13.629,0-20.222c-4.582-4.583-9.096-9.094-13.656-13.653
	c0,11.286,0,22.561,0,33.875C61.479,49.768,65.971,49.768,70.607,49.768z M18.207,61.498c0.071,0.006,0.143,0.01,0.214,0.014
	c0.045,1.357,0.09,2.715,0.13,3.971c0.483,0,0.798,0,1.094,0c0-2.016,0-3.947,0-5.883c-0.824,0-1.593,0-2.372,0
	c0,0.43,0.083,0.789-0.016,1.094c-0.268,0.826-0.612,1.629-1.058,2.781c-0.501-1.514-0.903-2.734-1.317-3.988
	c-0.8,0.037-1.432,0.066-1.977,0.09c0,2.08,0,4.012,0,5.943c0.395,0,0.711,0,1.17,0c0-1.354,0-2.666,0-3.977
	c0.08-0.008,0.162-0.014,0.242-0.021c0.348,1.316,0.695,2.633,1.056,3.996c0.437,0,0.888,0,1.392,0
	C17.242,64.189,17.726,62.846,18.207,61.498z M48.856,59.537c0,2.105,0,4.037,0,6.062c1.521-0.174,3.06,0.367,4.462-0.746
	c-0.105-0.844-0.215-1.732-0.332-2.688c0.09-0.496,0.201-1.098,0.25-1.379c-0.469-0.617-0.75-0.988-0.949-1.25
	C51.061,59.537,49.993,59.537,48.856,59.537z M82.764,65.506c-0.057-0.355-0.055-0.49-0.1-0.604
	c-0.385-0.951-1.27-1.838-0.342-2.941c-0.148-0.803,0.402-1.764-0.488-2.355c-1.355,0-2.656,0-3.896,0c0,2.025,0,3.951,0,5.861
	c0.557,0,1.053,0,1.521,0c0.121-0.84-0.131-1.633,0.258-2.463c1.211,0.545,1.197,1.668,1.561,2.502
	C81.748,65.506,82.197,65.506,82.764,65.506z M44.616,59.576c-1.197,0-2.323,0-3.465,0c0,2.002,0,3.938,0,5.906
	c0.542,0,1.039,0,1.529,0c0.045-0.84,0.086-1.6,0.131-2.453c1.479,0.406,0.994,1.842,1.672,2.477c0.352,0,0.67,0,0.961,0
	c0.502-1.193-0.488-1.957-0.717-2.928c0.277-0.293,0.552-0.58,0.82-0.861c0-0.406,0-0.811,0-1.209
	C45.212,60.172,44.879,59.84,44.616,59.576z M67.01,65.566c0.75,0,1.355-0.041,1.953,0.008c1.5,0.121,2.668-0.301,3.25-2.1
	c0.006-1.383,0.395-3.211-1.979-3.908c-0.939,0-2.064,0-3.225,0C67.01,61.553,67.01,63.482,67.01,65.566z M24.411,64.369
	c0.129,0.316,0.18,0.582,0.33,0.764c0.153,0.186,0.389,0.346,0.619,0.416c0.227,0.072,0.492,0.018,0.987,0.018
	c-0.8-2.158-1.134-4.26-2.251-6.01c-0.574,0-1.023,0-1.594,0c-0.904,1.895-1.58,3.852-2.045,5.879
	c1.23,0.43,1.529-0.316,1.835-1.066C22.959,64.369,23.624,64.369,24.411,64.369z M77.244,61.932c-0.994,0-1.773,0-2.559,0
	c0-0.461,0-0.777,0-1.234c0.805,0,1.582,0,2.336,0c0-0.459,0-0.775,0-1.102c-1.363,0-2.668,0-3.934,0c0,2.023,0,3.955,0,5.873
	c1.367,0,2.674,0,3.914,0c0-0.42,0-0.734,0-1.064c-0.834-0.047-1.602-0.088-2.277-0.127c0-0.461,0-0.775,0-1.162
	c0.664,0,1.25,0,1.871,0C76.789,62.764,76.959,62.451,77.244,61.932z M39.793,60.799c0.243-0.48,0.403-0.793,0.615-1.215
	c-1.494,0-2.798,0-4.103,0c0,2.01,0,3.939,0,5.898c1.353,0,2.656,0,3.945,0c0-0.398,0-0.715,0-1.17c-0.952,0-1.861,0-2.716,0
	c0-0.461,0-0.775,0-1.23c0.829,0,1.603,0,2.295,0c0-0.457,0-0.773,0-1.16c-0.655,0-1.24,0-1.855,0
	c-0.206-0.354-0.387-0.664-0.653-1.123C38.225,60.799,38.944,60.799,39.793,60.799z M58.859,59.576c-0.49,0-0.807,0-1.193,0
	c0,1.465,0,2.859,0,4.258c-0.102-0.078-0.203-0.156-0.303-0.23c-0.217,0.4-0.436,0.799-0.586,1.078
	c-0.439-0.186-0.727-0.309-1.193-0.504c-0.158-1.5-0.324-3.09-0.484-4.602c-0.371,0-0.688,0-1.059,0
	c0,1.209,0.033,2.346-0.012,3.479c-0.039,0.971,0.25,1.777,0.986,2.475c0.953,0,1.943,0,2.674,0c0.533-0.418,0.9-0.703,1.17-0.914
	C58.859,62.861,58.859,61.256,58.859,59.576z M27.007,65.498c1.011,0,2.002,0,3.062,0c0.263-0.262,0.593-0.596,0.879-0.883
	c0-0.633,0-1.219,0-1.822c-0.741-0.432-1.454-0.832-2.143-1.268c-0.135-0.086-0.179-0.316-0.297-0.539
	c0.301-0.275,0.571-0.525,0.704-0.648c0.588,0.156,0.967,0.256,1.326,0.35c0-0.482,0-0.799,0-1.146c-0.923,0-1.775,0-2.281,0
	c-0.605,0.434-0.987,0.703-1.26,0.898c0,0.689,0,1.219,0,1.646c0.602,0.979,1.98,0.779,2.555,2.1
	c-0.244,0.203-0.53,0.438-0.702,0.582c-0.708-0.189-1.233-0.328-1.843-0.49C27.007,64.797,27.007,65.115,27.007,65.498z
	 M87.166,62.932c-0.535-0.473-0.895-1.168-1.814-1.049c-0.195,0.025-0.467-0.535-0.744-0.877c0.557-0.283,0.988-0.506,1.354-0.691
	c0.389,0.17,0.711,0.312,1.131,0.496c0-0.539,0-0.902,0-1.26c-1.07,0-2.059,0-2.701,0c-0.604,0.436-0.98,0.707-1.221,0.881
	c0,0.59,0,0.98,0,1.332c0.463,0.465,0.82,1.049,1.336,1.277c0.562,0.248,1.334,0.07,1.471,1.094
	c-0.373,0.201-0.795,0.426-1.207,0.646c-0.531-0.238-0.994-0.736-1.588-0.275c0,0.328,0,0.645,0,1.008c1.035,0,2.027,0,2.92,0
	c0.393-0.344,0.744-0.652,1.064-0.934C87.166,63.994,87.166,63.459,87.166,62.932z M35.819,59.568c-1.551,0-2.939,0-4.422,0
	c0.031,0.43,0.059,0.793,0.091,1.217c0.575,0,1.025,0,1.604,0c0,1.639,0,3.211,0,4.717c0.446,0,0.763,0,1.209,0
	c0-1.635,0-3.209,0-4.84c0.58,0,1.029,0,1.518,0C35.819,60.279,35.819,59.963,35.819,59.568z M63.738,59.574
	c-0.52,0-0.836,0-1.113,0c0,2.047,0,4.021,0,5.928c1.223,0,2.346,0,3.498,0c0-0.381,0-0.695,0-1.148c-0.789,0-1.559,0-2.385,0
	C63.738,62.693,63.738,61.168,63.738,59.574z M36.263,74.486c0-1.617,0.001-3.145-0.006-4.674c0-0.047-0.08-0.107-0.137-0.139
	c-0.033-0.02-0.093,0.008-0.281,0.031c0,1.016,0,2.057,0,3.207c-1.438-1.094-2.324-2.555-4.021-3.553
	c0,1.764-0.004,3.285,0.01,4.807c0.002,0.098,0.145,0.191,0.244,0.314c0.167-0.045,0.349-0.092,0.665-0.174c0-1.043,0-2.072,0-3.227
	C34.444,71.789,34.732,73.654,36.263,74.486z M14.83,74.438c-0.461-0.74-0.872-1.4-1.335-2.145c0.372-0.17,0.639-0.293,0.908-0.418
	c0-0.584,0-1.164,0-1.695c-0.834-1.045-1.838-0.393-2.786-0.572c0,1.635-0.005,3.098,0.009,4.562
	c0.002,0.096,0.145,0.191,0.222,0.287c0.132-0.006,0.263-0.012,0.495-0.023c0.059-0.521,0.121-1.068,0.213-1.865
	C13.5,73.154,13.562,74.508,14.83,74.438z M85.42,69.67c-0.789,0-1.504,0-2.199,0c0,1.635,0,3.201,0,4.807
	c0.277-0.039,0.459-0.064,0.592-0.084c0.385-0.496-0.24-1.242,0.541-1.625c0.355,0.457,0.652,0.922,1.037,1.293
	c0.217,0.209,0.582,0.266,0.881,0.393c0.047-0.082,0.096-0.168,0.143-0.25c-0.447-0.379-0.896-0.758-1.281-1.082
	c0.025-0.451,0.045-0.762,0.059-1.023c0.324-0.066,0.506-0.104,0.725-0.146c0-0.615,0-1.197,0.002-1.781
	C85.775,70.029,85.635,69.887,85.42,69.67z M61.246,65.529c0-2.008,0-3.984,0-5.988c-0.385,0-0.699,0-1.078,0
	c0,2.012,0,3.984,0,5.988C60.551,65.529,60.869,65.529,61.246,65.529z M47.394,69.377c-0.793,1.828-1.485,3.42-2.203,5.072
	c0.286,0,0.418,0,0.548,0c0.257-0.41,0.522-0.834,0.753-1.201c0.775,0,1.441,0,2.104,0c0.564,1.066,0.564,1.066,1.355,1.023
	C49.134,72.709,48.31,71.135,47.394,69.377z M60.961,73.311c0.877,0,1.594,0,2.322,0c0.246,0.408,0.471,0.777,0.711,1.172
	c0.172-0.047,0.352-0.096,0.521-0.145c-0.842-1.623-1.662-3.207-2.572-4.961c-0.789,1.812-1.484,3.408-2.195,5.043
	c0.252,0.018,0.381,0.027,0.512,0.037C60.482,74.092,60.709,73.723,60.961,73.311z M-2.759,74.453
	c0.113-0.088,0.223-0.178,0.336-0.266c-1.01-1.404-0.99-3.316-2.338-4.592c-0.775,1.588-1.529,3.123-2.322,4.748
	c0.356,0.068,0.538,0.102,0.692,0.129c0.279-0.443,0.545-0.863,0.766-1.213c0.795,0,1.458,0,2.058,0
	C-3.279,73.682-3.021,74.068-2.759,74.453z M79.09,69.643c0,1.656-0.002,3.131,0.014,4.605c0,0.049,0.168,0.096,0.408,0.219
	c0-0.588,0-1.084,0-1.592c0.795-0.088,0.99,0.34,1.213,0.846c0.199,0.453,0.465,1.002,1.191,0.576
	c-0.385-0.586-0.756-1.152-1.088-1.656c0.389-0.615,0.787-1.252,1.076-1.709c-0.396-0.562-0.699-0.992-0.91-1.289
	C80.275,69.643,79.748,69.643,79.09,69.643z M28.752,69.408c-0.835,1.727-1.946,3.141-1.938,5.059
	c0.257-0.402,0.513-0.805,0.74-1.164c0.732,0,1.452,0,2.189,0c0.245,0.41,0.467,0.781,0.704,1.18
	c0.171-0.045,0.353-0.09,0.461-0.117C30.207,72.756,29.523,71.182,28.752,69.408z M19.88,74.443
	c-0.584-1.662-0.718-3.502-2.035-4.877c-0.762,1.652-1.474,3.197-2.208,4.795c1.141,0.359,0.675-1.039,1.371-1.086
	c0.718,0,1.434,0,2.011,0C19.349,73.723,19.614,74.084,19.88,74.443z M51.609,74.416c0-0.648,0-1.277,0-1.801
	c0.787-0.273,1.424-0.494,2.027-0.703c0-0.637,0-1.168-0.002-1.699c-0.188-0.188-0.375-0.375-0.564-0.564c-0.715,0-1.43,0-2.199,0
	c0,1.605,0,3.17,0,4.77C51.113,74.416,51.295,74.416,51.609,74.416z M100.154,72.611c1.252,0.029,0.891,1.838,2.365,1.848
	c-0.438-0.697-0.807-1.289-1.174-1.877c0.301-0.289,0.543-0.521,0.703-0.678c0-0.674,0-1.262,0-1.766
	c-0.217-0.215-0.359-0.357-0.48-0.479c-0.607,0-1.195,0-1.781,0c0,1.629,0,3.201,0,4.777c0.074,0.006,0.15,0.01,0.223,0.016
	C100.061,73.826,100.107,73.201,100.154,72.611z M10.736,69.949c0.003-0.115,0.007-0.229,0.01-0.342
	c-0.984,0-1.969-0.006-2.954,0.01c-0.053,0-0.105,0.166-0.189,0.311c0.398,0.057,0.77,0.109,1.258,0.18c0,1.484,0,2.92,0,4.402
	c0.317-0.064,0.501-0.102,0.802-0.16c0-1.467,0-2.902,0-4.4C10.109,69.949,10.423,69.949,10.736,69.949z M57.738,70.111
	c0,1.496,0,2.883,0,4.305c0.242,0,0.424,0,0.734,0c0-1.449,0-2.889,0-4.277c0.475-0.123,0.807-0.211,1.139-0.299
	c-0.018-0.045-0.033-0.09-0.049-0.137c-1.029,0-2.064,0-3.096,0c-0.004,0.062-0.008,0.121-0.01,0.184
	C56.818,69.951,57.182,70.014,57.738,70.111z M72.635,74.414c0-1.471,0-2.908,0-4.318c0.488-0.082,0.85-0.145,1.486-0.252
	c-2.137-0.336-2.848-0.33-3.127,0.014c0.25,0.086,0.48,0.166,0.842,0.289c0,1.385,0,2.824,0,4.268
	C72.145,74.414,72.326,74.414,72.635,74.414z M91.215,70.148c0.404-0.152,0.592-0.221,0.775-0.291
	c-0.895-0.25-1.746-0.254-2.598-0.238c-0.047,0-0.088,0.172-0.154,0.309c0.396,0.057,0.764,0.111,1.113,0.162
	c0.156,1.506-0.088,2.953,0.15,4.422c0.305-0.068,0.486-0.109,0.713-0.158C91.215,72.922,91.215,71.537,91.215,70.148z M75.455,72.1
	c0.662-0.051,1.338-0.102,2.012-0.152c-0.004-0.096-0.008-0.188-0.012-0.281c-0.5,0-0.998,0-1.635,0
	c-0.17-0.551-0.311-1.014-0.482-1.57c0.812-0.074,1.449-0.133,2.086-0.191c-0.016-0.072-0.027-0.145-0.039-0.215
	c-0.77,0-1.535,0-2.283,0c0,1.613,0,3.141,0,4.674c0.822,0,1.592,0,2.359,0c0.002-0.076,0.004-0.154,0.01-0.229
	c-0.678-0.053-1.352-0.105-2.016-0.156C75.455,73.309,75.455,72.771,75.455,72.1z M23.192,74.42c0.053-0.086,0.105-0.168,0.158-0.25
	c-0.416-0.082-0.832-0.168-1.297-0.258c0-1.473,0-2.859,0-4.27c-0.25,0-0.431,0-0.675,0c0,1.602,0,3.172,0,4.775
	C22.026,74.42,22.608,74.42,23.192,74.42z M87.645,74.391c0.113-0.002,0.223-0.004,0.336-0.006c0-0.789,0.025-1.576-0.01-2.363
	c-0.033-0.783,0.156-1.6-0.326-2.336C87.645,71.254,87.645,72.822,87.645,74.391z M55.186,69.678
	c-0.111-0.004-0.223-0.004-0.336-0.008c0,0.789-0.025,1.576,0.008,2.363c0.031,0.787-0.148,1.602,0.328,2.352
	C55.186,72.814,55.186,71.244,55.186,69.678z M24.613,74.389c0.112,0,0.224,0,0.337-0.002c0-0.787,0.025-1.576-0.008-2.361
	s0.152-1.602-0.329-2.344C24.613,71.252,24.613,72.82,24.613,74.389z"/>
<path fill="#333333" d="M94.848,74.859c-0.473-0.697-1.412-0.85-1.721-1.854c-0.422-1.367,0.045-2.914,1.4-3.395
	c0.465-0.168,0.945-0.293,1.408-0.434c0.422,0.18,0.865,0.283,1.211,0.523c1.934,1.336,1.756,3.465-0.363,4.76
	c-0.137,0.084-0.213,0.264-0.316,0.398C95.926,74.859,95.389,74.859,94.848,74.859z M94.248,70.346
	c-0.896,1.432-0.771,2.572,0.314,3.621c0.969,0.299,1.85,0.012,2.457-0.361c1.135-1.459,0.611-2.543-0.412-3.684
	C95.873,70.055,95.068,70.199,94.248,70.346z"/>
<path fill="#333333" d="M42.323,74.859c-0.324-0.258-0.663-0.498-0.97-0.775c-0.349-0.312-0.669-0.66-1.026-1.02
	c0-0.639,0-1.305,0-2.172c0.69-0.537,1.494-1.16,2.318-1.801c0.601,0.234,1.119,0.438,1.66,0.648c-0.074,0.1-0.136,0.258-0.2,0.258
	c-0.667,0.02-1.337,0.012-2.104,0.012c-0.424,0.594-0.869,1.221-1.4,1.963c0.431,0.666,0.877,1.354,1.371,2.119
	c0.815,0,1.589,0,2.529,0c-0.441,0.352-0.705,0.559-0.966,0.768C43.132,74.859,42.728,74.859,42.323,74.859z"/>
<path fill="#333333" d="M-0.101,74.859c-1.025-0.908-1.208-1.307-1.21-2.674c-0.001-0.801,0.011-1.6,0.027-2.4
	c0.001-0.049,0.088-0.096,0.272-0.277c0,1.135,0,2.148,0,2.861c0.426,0.715,0.684,1.148,0.965,1.617c0.468,0,0.916,0,1.392,0
	c0.982-1.266,0.387-2.84,0.628-4.254c0.091-0.043,0.15-0.096,0.183-0.082c0.057,0.023,0.139,0.088,0.139,0.135
	c0.007,1.336,0.006,2.67,0.006,4.1c-0.356,0.293-0.772,0.633-1.188,0.975C0.707,74.859,0.303,74.859-0.101,74.859z"/>
<path fill="#333333" d="M4.747,74.859c-0.215-0.178-0.43-0.357-0.729-0.604c0-0.246,0-0.609,0-0.977
	c0.059-0.008,0.119-0.016,0.177-0.023c0.069,0.207,0.138,0.414,0.239,0.719c0.716,0.121,1.479,0.309,1.945-0.672
	c-0.354-1.238-1.916-1.262-2.502-2.492c0.108-0.293,0.262-0.699,0.424-1.133c0.732,0,1.363,0,2.024,0c0,0.248,0,0.43,0,0.621
	c-0.481-0.121-0.935-0.234-1.328-0.336c-0.272,0.27-0.462,0.461-0.694,0.695c0.824,0.637,1.641,1.27,2.445,1.893
	c0,0.445,0,0.842,0,1.332c-0.36,0.295-0.777,0.635-1.193,0.977C5.287,74.859,5.017,74.859,4.747,74.859z"/>
<path fill="#333333" d="M65.758,74.859c-0.135-0.277-0.379-0.553-0.385-0.834c-0.041-1.453-0.021-2.904-0.021-4.383
	c0.318,0,0.5,0,0.744,0c0,1.418,0,2.805,0,4.305c0.547,0.061,1.045,0.113,1.682,0.182c0,0.234,0,0.482,0,0.73
	C67.104,74.859,66.43,74.859,65.758,74.859z"/>
<path fill="#333333" d="M42.656,49.768c-4.698,0-9.324,0-13.986,0c0-11.449,0-22.858,0-34.42c2.439,2.439,4.768,4.755,7.081,7.084
	c2.27,2.286,4.63,4.479,6.905,7.206C42.656,36.043,42.656,42.824,42.656,49.768z"/>
<path fill="#333333" d="M70.607,49.768c-4.637,0-9.129,0-13.656,0c0-11.314,0-22.59,0-33.875c4.562,4.56,9.074,9.071,13.656,13.653
	C70.607,36.139,70.607,42.873,70.607,49.768z"/>
<path fill="#333333" d="M44.343-4.735c4.01,0,8.019,0,12.073,0c0,6.734,0,13.361,0,20.053c-3.596,3.594-7.245,7.245-10.903,10.89
	c-0.223,0.223-0.509,0.383-0.766,0.573c-0.135-0.549-0.326-1.093-0.389-1.649c-0.068-0.599-0.016-1.21-0.016-1.815
	C44.343,13.964,44.343,4.614,44.343-4.735z"/>
<path fill="#333333" d="M44.343-4.735c2.99,9.345,2.656,17.203,2.656,26.553c0,0.607-1.224,1.726-1.155,2.323
	c0.062,0.558,1.786-0.729,1.92-0.179c-0.592,0.686-4.203,4.19-4.955,5.058c0-11.375,0-22.495,0-33.755
	C43.306-4.735,43.824-4.735,44.343-4.735z"/>
<path fill="#333333" d="M18.207,61.498c-0.483,1.348-0.966,2.691-1.442,4.02c-0.504,0-0.955,0-1.392,0
	c-0.36-1.363-0.708-2.68-1.056-3.996c-0.08,0.008-0.162,0.014-0.242,0.021c0,1.312,0,2.623,0,3.979c-0.459,0-0.775,0-1.17,0
	c0-1.934,0-3.863,0-5.941c0.545-0.025,1.177-0.055,1.977-0.092c0.414,1.252,0.816,2.473,1.317,3.986
	c0.446-1.152,0.79-1.955,1.058-2.781c0.099-0.303,0.016-0.664,0.016-1.094c0.779,0,1.548,0,2.372,0c0,1.936,0,3.869,0,5.885
	c-0.296,0-0.61,0-1.094,0c-0.04-1.256-0.085-2.613-0.13-3.971C18.35,61.508,18.278,61.504,18.207,61.498z"/>
<path fill="#333333" d="M48.856,59.537c1.137,0,2.204,0,3.429,0c0.201,0.262,0.482,0.633,0.951,1.25
	c-0.051,0.281-0.162,0.885-0.25,1.379c0.117,0.955,0.227,1.842,0.33,2.688c-1.4,1.115-2.938,0.572-4.46,0.746
	C48.856,63.574,48.856,61.643,48.856,59.537z M50.928,62.654c-0.853,0.359-1.131,0.848-0.808,1.637
	c0.718,0.145,1.413,0.195,1.886-0.559C51.676,63.402,51.342,63.07,50.928,62.654z M51.576,60.764
	c-0.568,0.004-1.118-0.234-1.623,0.176c0.276,0.955,0.83,1.143,1.623,0.902C51.576,61.463,51.576,61.15,51.576,60.764z"/>
<path fill="#333333" d="M82.764,65.506c-0.566,0-1.016,0-1.484,0c-0.365-0.834-0.352-1.957-1.562-2.502
	c-0.389,0.83-0.133,1.623-0.258,2.463c-0.465,0-0.963,0-1.521,0c0-1.91,0-3.836,0-5.861c1.24,0,2.545,0,3.896,0
	c0.891,0.592,0.34,1.553,0.49,2.355c-0.93,1.104-0.043,1.99,0.342,2.941C82.709,65.016,82.707,65.152,82.764,65.506z M79.527,61.922
	c0.943,0.049,1.549-0.117,1.596-1.135c-0.58,0-1.07,0-1.596,0C79.527,61.166,79.527,61.479,79.527,61.922z"/>
<path fill="#333333" d="M44.616,59.576c0.263,0.264,0.596,0.596,0.934,0.934c0,0.396,0,0.801,0,1.207
	c-0.268,0.281-0.543,0.57-0.82,0.861c0.229,0.973,1.217,1.736,0.718,2.928c-0.293,0-0.61,0-0.961,0
	c-0.678-0.635-0.194-2.066-1.673-2.475c-0.046,0.852-0.086,1.611-0.131,2.453c-0.49,0-0.986,0-1.529,0c0-1.971,0-3.904,0-5.908
	C42.293,59.576,43.419,59.576,44.616,59.576z M42.761,62.211c0.697-0.348,1.145-0.568,1.631-0.811
	c-0.526-0.643-0.985-0.91-1.631-0.527C42.761,61.174,42.761,61.484,42.761,62.211z"/>
<path fill="#333333" d="M67.01,65.566c0-2.084,0-4.014,0-6c1.162,0,2.285,0,3.227,0c2.371,0.697,1.984,2.525,1.977,3.908
	c-0.582,1.799-1.75,2.223-3.25,2.1C68.365,65.525,67.762,65.566,67.01,65.566z M70.189,64.307c0.309-0.611,0.617-1.225,0.93-1.844
	c-0.359-0.623-0.672-1.168-1.014-1.758c-0.67,0.031-1.303,0.062-1.846,0.086c0,1.271,0,2.396,0,3.516
	C68.924,64.307,69.51,64.307,70.189,64.307z"/>
<path fill="#333333" d="M24.411,64.369c-0.787,0-1.452,0-2.117,0c-0.307,0.75-0.604,1.496-1.834,1.066
	c0.463-2.027,1.141-3.984,2.045-5.879c0.568,0,1.018,0,1.593,0c1.117,1.75,1.451,3.852,2.251,6.01c-0.496,0-0.761,0.055-0.987-0.018
	c-0.23-0.07-0.466-0.23-0.62-0.416C24.589,64.951,24.54,64.686,24.411,64.369z M23.671,63.104c0-0.664,0-1.289,0-1.945
	c-0.248,0-0.428,0-0.742,0c0,0.342,0.057,0.668-0.015,0.967c-0.073,0.311-0.27,0.588-0.46,0.979
	C22.986,63.104,23.3,63.104,23.671,63.104z"/>
<path fill="#333333" d="M77.244,61.932c-0.285,0.52-0.455,0.832-0.648,1.184c-0.621,0-1.207,0-1.871,0c0,0.387,0,0.699,0,1.162
	c0.676,0.039,1.443,0.08,2.277,0.127c0,0.33,0,0.645,0,1.064c-1.24,0-2.547,0-3.914,0c0-1.918,0-3.85,0-5.873
	c1.266,0,2.57,0,3.934,0c0,0.326,0,0.643,0,1.102c-0.754,0-1.531,0-2.336,0c0,0.457,0,0.773,0,1.234
	C75.471,61.932,76.25,61.932,77.244,61.932z"/>
<path fill="#333333" d="M39.793,60.799c-0.85,0-1.569,0-2.474,0c0.267,0.459,0.448,0.773,0.654,1.123c0.615,0,1.2,0,1.855,0
	c0,0.387,0,0.703,0,1.16c-0.691,0-1.466,0-2.295,0c0,0.455,0,0.77,0,1.23c0.854,0,1.764,0,2.716,0c0,0.455,0,0.771,0,1.17
	c-1.289,0-2.593,0-3.945,0c0-1.959,0-3.889,0-5.898c1.304,0,2.608,0,4.103,0C40.196,60.006,40.038,60.318,39.793,60.799z"/>
<path fill="#333333" d="M58.859,59.576c0,1.68,0,3.285,0,5.041c-0.268,0.211-0.635,0.498-1.17,0.914c-0.73,0-1.719,0-2.672,0
	c-0.738-0.699-1.027-1.506-0.988-2.475c0.047-1.133,0.012-2.27,0.012-3.48c0.371,0,0.688,0,1.062,0
	c0.158,1.512,0.324,3.105,0.48,4.602c0.467,0.197,0.754,0.318,1.195,0.504c0.15-0.277,0.367-0.678,0.586-1.078
	c0.1,0.078,0.201,0.154,0.301,0.23c0-1.395,0-2.793,0-4.258C58.053,59.576,58.369,59.576,58.859,59.576z"/>
<path fill="#333333" d="M27.007,65.498c0-0.383,0-0.699,0-1.221c0.609,0.162,1.135,0.301,1.843,0.49
	c0.172-0.145,0.457-0.379,0.702-0.582c-0.574-1.32-1.953-1.123-2.555-2.1c0-0.428,0-0.957,0-1.646
	c0.272-0.195,0.654-0.465,1.26-0.898c0.506,0,1.359,0,2.281,0c0,0.348,0,0.664,0,1.146c-0.359-0.094-0.738-0.193-1.326-0.35
	c-0.133,0.123-0.403,0.373-0.704,0.648c0.118,0.223,0.162,0.453,0.297,0.539c0.69,0.436,1.402,0.836,2.143,1.268
	c0,0.604,0,1.189,0,1.822c-0.286,0.287-0.616,0.619-0.879,0.883C29.009,65.498,28.019,65.498,27.007,65.498z"/>
<path fill="#333333" d="M87.166,62.932c0,0.527,0,1.062,0,1.648c-0.32,0.281-0.672,0.59-1.064,0.934c-0.893,0-1.885,0-2.92,0
	c0-0.363,0-0.68,0-1.008c0.594-0.461,1.057,0.037,1.588,0.275c0.412-0.221,0.834-0.447,1.207-0.646
	c-0.137-1.023-0.908-0.846-1.471-1.094c-0.516-0.229-0.873-0.812-1.336-1.277c0-0.352,0-0.742,0-1.332
	c0.24-0.174,0.617-0.445,1.221-0.881c0.643,0,1.631,0,2.701,0c0,0.357,0,0.721,0,1.26c-0.42-0.184-0.742-0.326-1.131-0.496
	c-0.361,0.184-0.795,0.406-1.354,0.691c0.277,0.342,0.549,0.902,0.744,0.877C86.271,61.764,86.631,62.459,87.166,62.932z"/>
<path fill="#333333" d="M35.819,59.568c0,0.396,0,0.711,0,1.094c-0.488,0-0.938,0-1.518,0c0,1.631,0,3.205,0,4.84
	c-0.446,0-0.762,0-1.209,0c0-1.506,0-3.08,0-4.717c-0.579,0-1.029,0-1.604,0c-0.031-0.424-0.06-0.787-0.091-1.217
	C32.88,59.568,34.269,59.568,35.819,59.568z"/>
<path fill="#333333" d="M63.738,59.574c0,1.594,0,3.119,0,4.779c0.826,0,1.596,0,2.385,0c0,0.453,0,0.768,0,1.148
	c-1.152,0-2.275,0-3.498,0c0-1.906,0-3.881,0-5.928C62.902,59.574,63.219,59.574,63.738,59.574z"/>
<path fill="#333333" d="M36.263,74.486c-1.53-0.832-1.818-2.697-3.526-3.404c0,1.154,0,2.182,0,3.225
	c-0.316,0.084-0.498,0.131-0.665,0.176c-0.1-0.123-0.242-0.219-0.244-0.316c-0.014-1.521-0.01-3.041-0.01-4.805
	c1.697,0.998,2.582,2.457,4.021,3.553c0-1.152,0-2.191,0-3.207c0.188-0.025,0.247-0.053,0.281-0.031
	c0.057,0.031,0.137,0.09,0.137,0.139C36.264,71.342,36.263,72.867,36.263,74.486z"/>
<path fill="#333333" d="M14.83,74.438c-1.268,0.072-1.329-1.281-2.274-1.869c-0.09,0.797-0.152,1.344-0.213,1.865
	c-0.232,0.012-0.363,0.018-0.495,0.023c-0.077-0.096-0.22-0.191-0.222-0.287c-0.014-1.463-0.009-2.928-0.009-4.562
	c0.948,0.18,1.952-0.473,2.786,0.572c0,0.531,0,1.111,0,1.695c-0.269,0.125-0.535,0.248-0.908,0.418
	C13.957,73.037,14.368,73.697,14.83,74.438z M12.456,72.211c0.684-0.338,1.159-0.572,1.605-0.789
	c-0.266-1.389-0.272-1.385-1.605-1.26C12.456,70.736,12.456,71.314,12.456,72.211z"/>
<path fill="#333333" d="M85.42,69.67c0.215,0.217,0.355,0.359,0.496,0.5c0,0.584,0,1.166,0,1.781
	c-0.219,0.043-0.402,0.08-0.727,0.146c-0.016,0.262-0.031,0.572-0.057,1.023c0.385,0.324,0.834,0.703,1.281,1.082
	c-0.047,0.082-0.096,0.168-0.146,0.25c-0.297-0.125-0.66-0.184-0.879-0.393c-0.385-0.371-0.682-0.836-1.039-1.293
	c-0.779,0.383-0.154,1.129-0.539,1.625c-0.131,0.02-0.312,0.045-0.59,0.084c0-1.605,0-3.172,0-4.807
	C83.916,69.67,84.633,69.67,85.42,69.67z M83.939,70.08c0,0.578-0.012,1.156,0.012,1.73c0.004,0.078,0.184,0.148,0.324,0.254
	c0.414-0.203,0.85-0.418,1.283-0.633C85.377,70.143,85.377,70.143,83.939,70.08z"/>
<path fill="#333333" d="M61.246,65.529c-0.377,0-0.693,0-1.078,0c0-2.004,0-3.977,0-5.988c0.379,0,0.693,0,1.078,0
	C61.246,61.545,61.246,63.521,61.246,65.529z"/>
<path fill="#333333" d="M47.394,69.377c0.917,1.756,1.741,3.332,2.557,4.895c-0.79,0.043-0.79,0.043-1.355-1.023
	c-0.662,0-1.328,0-2.104,0c-0.23,0.367-0.496,0.789-0.753,1.201c-0.13,0-0.262,0-0.548,0C45.908,72.799,46.601,71.205,47.394,69.377
	z M48.595,72.773c-0.401-0.723-0.652-1.174-1.054-1.896c-0.356,0.771-0.59,1.273-0.878,1.896
	C47.334,72.773,47.824,72.773,48.595,72.773z"/>
<path fill="#333333" d="M60.961,73.311c-0.252,0.412-0.479,0.781-0.701,1.146c-0.129-0.01-0.26-0.02-0.512-0.037
	c0.713-1.635,1.408-3.23,2.195-5.043c0.912,1.754,1.732,3.338,2.572,4.961c-0.17,0.049-0.35,0.098-0.52,0.145
	c-0.242-0.396-0.465-0.764-0.713-1.172C62.555,73.311,61.836,73.311,60.961,73.311z M62.119,70.811
	c-0.387,0.781-0.598,1.203-0.805,1.631c-0.023,0.053,0,0.131,0,0.297c0.535,0,1.07,0,1.754,0
	C62.77,72.131,62.537,71.656,62.119,70.811z"/>
<path fill="#333333" d="M-2.759,74.453c-0.261-0.385-0.521-0.771-0.808-1.193c-0.599,0-1.264,0-2.058,0
	c-0.222,0.35-0.486,0.77-0.767,1.213c-0.154-0.027-0.337-0.062-0.692-0.129c0.793-1.623,1.547-3.16,2.322-4.748
	c1.348,1.275,1.329,3.188,2.338,4.592C-2.535,74.275-2.646,74.365-2.759,74.453z M-4.803,70.859
	c-0.176,0.645-0.894,1.146-0.369,1.986c0.32-0.023,0.676-0.049,1.051-0.074C-4.198,72.025-3.899,71.299-4.803,70.859z"/>
<path fill="#333333" d="M79.09,69.643c0.658,0,1.186,0,1.904,0c0.209,0.297,0.512,0.727,0.908,1.289
	c-0.287,0.457-0.688,1.094-1.076,1.709c0.332,0.504,0.705,1.072,1.09,1.656c-0.729,0.426-0.994-0.123-1.191-0.576
	c-0.223-0.506-0.418-0.934-1.215-0.846c0,0.506,0,1.004,0,1.592c-0.238-0.123-0.408-0.17-0.408-0.219
	C79.088,72.773,79.09,71.299,79.09,69.643z M80.195,72.229c1.02-1.031,1.111-1.369,0.645-1.883
	c-0.381-0.418-1.006-0.479-1.346-0.131c0,0.393,0,0.785,0,1.09C79.725,71.607,79.918,71.863,80.195,72.229z"/>
<path fill="#333333" d="M28.752,69.408c0.771,1.773,1.455,3.348,2.155,4.957c-0.109,0.027-0.289,0.072-0.461,0.117
	c-0.238-0.398-0.459-0.766-0.705-1.178c-0.736,0-1.455,0-2.188,0c-0.229,0.357-0.484,0.762-0.742,1.164
	C26.806,72.549,27.917,71.135,28.752,69.408z M28.765,70.574c-0.443,0.842-0.756,1.432-1.144,2.166c0.696,0,1.231,0,1.802,0
	C29.218,72.061,29.04,71.482,28.765,70.574z"/>
<path fill="#333333" d="M19.88,74.443c-0.266-0.359-0.531-0.721-0.861-1.168c-0.578,0-1.295,0-2.011,0
	c-0.696,0.045-0.231,1.445-1.371,1.084c0.735-1.598,1.447-3.141,2.208-4.795C19.162,70.943,19.296,72.781,19.88,74.443z
	 M17.879,70.623c-0.108,0.873-1.042,1.387-0.392,2.262c0.471-0.057,0.947-0.117,1.588-0.195C18.636,71.932,18.3,71.35,17.879,70.623
	z"/>
<path fill="#333333" d="M51.609,74.416c-0.314,0-0.496,0-0.74,0c0-1.602,0-3.164,0-4.77c0.771,0,1.484,0,2.199,0
	c0.189,0.189,0.379,0.379,0.566,0.566c0,0.531,0,1.062,0,1.699c-0.602,0.209-1.238,0.428-2.027,0.701
	C51.609,73.139,51.609,73.768,51.609,74.416z M51.646,72.203c0.678-0.33,1.152-0.564,1.604-0.787
	c-0.25-1.373-0.258-1.367-1.604-1.264C51.646,70.729,51.646,71.305,51.646,72.203z"/>
<path fill="#333333" d="M100.154,72.611c-0.047,0.592-0.094,1.217-0.143,1.842c-0.074-0.006-0.15-0.01-0.225-0.016
	c0-1.572,0-3.148,0-4.777c0.59,0,1.174,0,1.781,0c0.121,0.123,0.264,0.264,0.48,0.479c0,0.504,0,1.092,0,1.77
	c-0.16,0.154-0.402,0.385-0.703,0.674c0.369,0.588,0.738,1.18,1.176,1.879C101.045,74.449,101.406,72.641,100.154,72.611z
	 M100.1,70.072c0,0.576-0.01,1.154,0.014,1.73c0.004,0.078,0.178,0.152,0.318,0.266c0.416-0.205,0.852-0.42,1.287-0.631
	C101.539,70.146,101.539,70.146,100.1,70.072z"/>
<path fill="#333333" d="M10.736,69.949c-0.313,0-0.626,0-1.074,0c0,1.498,0,2.934,0,4.4c-0.301,0.059-0.484,0.096-0.802,0.16
	c0-1.482,0-2.918,0-4.402c-0.488-0.07-0.859-0.123-1.258-0.18c0.084-0.145,0.135-0.311,0.189-0.311
	c0.984-0.016,1.97-0.01,2.954-0.01C10.743,69.721,10.739,69.836,10.736,69.949z"/>
<path fill="#333333" d="M57.738,70.111c-0.557-0.098-0.92-0.16-1.281-0.223c0.002-0.062,0.006-0.121,0.01-0.184
	c1.031,0,2.066,0,3.096,0c0.016,0.045,0.031,0.09,0.049,0.135c-0.332,0.088-0.664,0.176-1.139,0.299c0,1.391,0,2.828,0,4.277
	c-0.311,0-0.492,0-0.734,0C57.738,72.994,57.738,71.607,57.738,70.111z"/>
<path fill="#333333" d="M72.635,74.414c-0.309,0-0.49,0-0.797,0c0-1.443,0-2.883,0-4.268c-0.363-0.123-0.594-0.203-0.842-0.289
	c0.277-0.344,0.988-0.35,3.125-0.014c-0.637,0.107-0.998,0.17-1.486,0.252C72.635,71.506,72.635,72.943,72.635,74.414z"/>
<path fill="#333333" d="M91.215,70.148c0,1.389,0,2.773,0,4.201c-0.227,0.053-0.408,0.094-0.713,0.16
	c-0.238-1.467,0.006-2.916-0.15-4.42c-0.35-0.051-0.717-0.105-1.113-0.164c0.066-0.135,0.107-0.307,0.154-0.309
	c0.852-0.016,1.703-0.01,2.598,0.238C91.807,69.928,91.619,69.996,91.215,70.148z"/>
<path fill="#333333" d="M75.455,72.1c0,0.672,0,1.209,0,1.879c0.664,0.051,1.338,0.105,2.016,0.156
	c-0.006,0.078-0.008,0.152-0.01,0.23c-0.768,0-1.537,0-2.359,0c0-1.535,0-3.062,0-4.676c0.748,0,1.514,0,2.283,0
	c0.012,0.07,0.023,0.143,0.039,0.215c-0.637,0.059-1.273,0.119-2.086,0.195c0.172,0.555,0.312,1.016,0.482,1.566
	c0.637,0,1.135,0,1.635,0c0.004,0.094,0.008,0.188,0.012,0.281C76.793,72,76.117,72.051,75.455,72.1z"/>
<path fill="#333333" d="M23.192,74.42c-0.584,0-1.166,0-1.813,0c0-1.605,0-3.174,0-4.777c0.245,0,0.427,0,0.675,0
	c0,1.41,0,2.799,0,4.271c0.465,0.092,0.881,0.174,1.297,0.256C23.298,74.252,23.245,74.334,23.192,74.42z"/>
<path fill="#333333" d="M105.711,71.209c-0.191,1.207-0.35,2.209-0.506,3.211c-0.053,0.004-0.105,0.01-0.158,0.014
	c-0.047-0.611-0.094-1.225-0.131-1.691c-0.547-1.062-1.033-2.008-1.529-2.973c0.326-0.275,0.502-0.291,0.785,0.244
	C104.68,70.979,104.754,70.938,105.711,71.209z"/>
<path fill="#333333" d="M87.645,74.391c0-1.568,0-3.137,0-4.705c0.482,0.738,0.293,1.553,0.326,2.336
	c0.035,0.787,0.01,1.574,0.01,2.363C87.867,74.387,87.756,74.389,87.645,74.391z"/>
<path fill="#333333" d="M55.186,69.678c0,1.566,0,3.137,0,4.707c-0.477-0.746-0.297-1.564-0.328-2.352
	c-0.033-0.787-0.008-1.574-0.008-2.363C54.963,69.674,55.074,69.674,55.186,69.678z"/>
<path fill="#333333" d="M24.613,74.389c0-1.568,0-3.137,0-4.707c0.481,0.742,0.296,1.559,0.329,2.344s0.008,1.574,0.008,2.361
	C24.837,74.389,24.726,74.389,24.613,74.389z"/>
<path fill="#333333" d="M105.68,71.189c0.205-0.512,0.41-1.027,0.627-1.566c0.188,0.012,0.369,0.023,0.703,0.041
	c-0.406,0.617-0.754,1.141-1.1,1.662C105.832,71.285,105.756,71.238,105.68,71.189z"/>
</svg>
