<?xml version="1.0" encoding="utf-8"?>
<!-- Generator: Adobe Illustrator 16.0.0, SVG Export Plug-In . SVG Version: 6.00 Build 0)  -->
<!DOCTYPE svg PUBLIC "-//W3C//DTD SVG 1.1//EN" "http://www.w3.org/Graphics/SVG/1.1/DTD/svg11.dtd">
<svg version="1.1" id="Layer_1" xmlns="http://www.w3.org/2000/svg" xmlns:xlink="http://www.w3.org/1999/xlink" x="0px" y="0px"
	 width="199.047px" height="80px" viewBox="-49.524 -19.904 199.047 80" enable-background="new -49.524 -19.904 199.047 80"
	 xml:space="preserve">
<path fill="#333333" d="M-49.524,43.12c66.349,0,132.699,0,199.047,0c0,5.658,0,11.319,0,16.976c-66.351,0-132.699,0-199.047,0
	C-49.524,54.438-49.524,48.777-49.524,43.12z M48.726,53.942c0.088,0.07,0.178,0.204,0.268,0.204
	c1.357,0.014,2.714,0.012,4.072,0.004c0.029,0,0.057-0.085,0.09-0.132c-0.066-0.025-0.127-0.051-0.186-0.074
	c0.07-0.087,0.141-0.175,0.233-0.289c0.795,0.748,0.795,1.804,1.371,2.626c0.493-0.018,1.036,0.029,1.58-0.031
	c-1.448-3.377-2.861-6.675-4.251-9.91c-0.62,0-1.142,0-1.63,0c-1.392,3.305-2.769,6.572-4.174,9.908c0.574,0,1.021,0,1.493,0
	c0.101-0.461,0.555-0.811,0.501-1.354C48.447,54.667,48.314,54.122,48.726,53.942z M135.73,53.942
	c0.055,0.07,0.112,0.204,0.169,0.206c1.444,0.01,2.887,0.01,4.333,0c0.055-0.002,0.112-0.134,0.167-0.206
	c0.072,0.057,0.175,0.098,0.206,0.169c0.314,0.718,0.618,1.44,0.914,2.137c0.55,0,1.068,0,1.641,0
	c-0.72-1.68-1.412-3.32-2.127-4.949c-0.732-1.672-1.392-3.372-2.125-4.993c-0.604,0-1.098,0-1.611,0
	c-1.38,3.29-2.768,6.583-4.179,9.942c0.562,0,1.011,0,1.527,0c0.066-0.142,0.147-0.321,0.237-0.496
	C135.177,55.153,135.25,54.451,135.73,53.942z M111.116,53.942c0.318,0.133,0.316,0.459,0.421,0.716
	c0.222,0.54,0.436,1.09,0.634,1.59c0.616,0,1.136,0,1.652,0c-1.423-3.34-2.834-6.658-4.214-9.906c-0.618,0-1.136,0-1.617,0
	c-0.51,1.114-0.924,2.217-1.411,3.277c-0.506,1.101-0.926,2.229-1.396,3.342c-0.451,1.067-1.007,2.105-1.352,3.285
	c0.562,0,1.009,0,1.468,0c0.314-0.597,0.571-1.229,0.734-1.905c0.039-0.157,0.269-0.268,0.408-0.4
	c0.055,0.07,0.111,0.204,0.168,0.206c1.444,0.01,2.888,0.01,4.334,0C111.005,54.146,111.058,54.012,111.116,53.942z M27.506,56.067
	c0.056,0.069,0.109,0.2,0.169,0.202c0.418,0.018,0.836,0.01,1.328,0.01c0-2.708,0-5.375,0-8.044c0.23,0.031,0.31,0.138,0.372,0.259
	c0.652,1.285,1.299,2.573,1.955,3.856c0.163,0.322,0.319,0.655,0.525,0.948c0.668,0.943,1.073,2.033,1.708,2.938
	c0.678,0,1.337,0,1.978,0c0-3.324,0-6.602,0-9.877c-0.503,0-0.979,0-1.486,0c0,2.618,0,5.188,0,7.887
	c-0.184-0.2-0.33-0.296-0.387-0.43c-0.291-0.704-0.684-1.348-1.057-2.002c-0.71-1.258-1.357-2.549-2.043-3.822
	c-0.313-0.581-0.656-1.146-0.963-1.685c-0.754,0-1.425,0-2.098,0c-0.072,0.056-0.203,0.11-0.203,0.167
	c-0.01,3.141-0.01,6.284,0,9.428C27.303,55.951,27.436,56.008,27.506,56.067z M-39.705,54.289c-0.195-1.392-0.693-2.693-1.079-4.025
	c-0.384-1.323-0.741-2.655-1.092-3.925c-0.562,0-1.013,0-1.552,0c0.267,1.754,0.969,3.334,1.394,4.988
	c0.42,1.65,1.007,3.26,1.535,4.926c0.604,0,1.265,0,1.982,0c0.804-2.793,1.379-5.664,2.237-8.617
	c0.725,2.993,1.409,5.82,2.084,8.607c0.712,0,1.375,0,2.014,0c0.338-1.138,0.663-2.241,0.998-3.342
	c0.096-0.312,0.269-0.608,0.326-0.925c0.205-1.14,0.661-2.206,0.956-3.32c0.207-0.777,0.51-1.527,0.794-2.361
	c-0.657,0.023-1.202-0.025-1.624,0.021c-0.792,2.832-1.552,5.541-2.363,8.43c-0.249-0.848-0.397-1.52-0.557-2.198
	c-0.189-0.797-0.404-1.598-0.611-2.396c-0.215-0.832-0.359-1.691-0.657-2.484c-0.169-0.451,0.046-1.067-0.43-1.318
	c-0.746,0-1.407,0-2.038,0c-0.693,2.774-1.369,5.499-2.056,8.246C-39.541,54.481-39.632,54.375-39.705,54.289z M23.246,56.418
	c-0.215-0.952-0.699-1.774-1.091-2.634c-0.401-0.883-0.678-1.835-1.402-2.494c0.332-0.19,0.638-0.324,0.895-0.524
	c0.277-0.214,0.556-0.461,0.739-0.753c0.108-0.177,0.127-0.429,0.211-0.65c0.214-0.566-0.241-1.112-0.201-1.699
	c-0.201-0.2-0.408-0.393-0.601-0.603c-0.459-0.494-1.092-0.702-1.702-0.737c-1.332-0.077-2.67-0.022-3.996-0.022
	c0,3.366,0,6.669,0,9.935c0.574,0,1.096,0,1.65,0c0-1.476,0-2.916,0-4.388c0.486,0,0.936,0,1.274,0
	c0.619,0.172,0.858,0.564,1.069,1.052c0.492,1.138,1.059,2.247,1.571,3.311C22.164,56.422,22.718,56.061,23.246,56.418z
	 M93.532,56.224c0.371,0,0.773,0,1.252,0c0-1.452,0-2.914,0-4.469c0.717,0.089,1.354,0.169,2.062,0.259
	c0.918,1.298,1.262,2.909,2.07,4.214c0.555,0,1.071,0,1.713,0c-1.056-1.65-1.485-3.499-2.63-4.967
	c0.208-0.108,0.379-0.204,0.554-0.289c0.93-0.455,1.283-1.312,1.275-2.226c-0.006-0.586-0.272-1.211-0.773-1.684
	c-0.49-0.461-1.095-0.698-1.701-0.737c-1.26-0.079-2.529-0.022-3.821-0.022C93.532,49.622,93.532,52.898,93.532,56.224z
	 M60.188,46.329c0,2.193,0.002,4.312-0.004,6.431c-0.002,0.447,0.039,0.867,0.204,1.297c0.346,0.899,0.803,1.611,1.765,2.037
	c0.794,0.355,1.571,0.398,2.388,0.391c1.31-0.012,2.208-0.683,2.869-1.777c0.412-0.68,0.614-1.407,0.622-2.181
	c0.02-1.804,0.008-3.605,0.008-5.411c0-0.271,0-0.541,0-0.786c-0.549,0-0.999,0-1.489,0c0,1.868,0.02,3.701-0.008,5.534
	c-0.008,0.574-0.082,1.157-0.22,1.711c-0.096,0.371-0.282,0.826-0.571,1.015c-0.722,0.471-1.509,0.896-2.436,0.469
	c-0.146-0.068-0.331-0.061-0.614-0.111c-0.327-0.478-0.704-1.032-1.058-1.555c0-2.387,0-4.714,0-7.07
	C61.169,46.329,60.72,46.329,60.188,46.329z M-19.625,46.341c-1.949,0-3.813,0-5.687,0c0,3.312,0,6.592,0,9.896
	c1.907,0,3.795,0,5.685,0c0-0.42,0-0.799,0-1.252c-1.348,0-2.673,0-3.977,0c0-1.089,0-2.107,0-3.193c1.212,0,2.397,0,3.541,0
	c0-0.525,0-0.977,0-1.454c-1.091,0-2.147-0.006-3.203,0.008c-0.099,0.002-0.197,0.12-0.32,0.2c0-1.019,0-1.988,0-2.994
	c1.345,0,2.645,0,3.962,0C-19.625,47.135-19.625,46.757-19.625,46.341z M7.113,47.539c1.497,0,2.866,0,4.246,0
	c0-0.416,0-0.794,0-1.196c-1.909,0-3.795,0-5.685,0c0,3.318,0,6.594,0,9.932c0.967,0,1.913,0,2.86,0c0.944,0,1.888,0,2.821,0
	c0-0.463,0-0.844,0-1.293c-1.419,0-2.815,0-4.186,0c0-1.091,0-2.107,0-3.193c1.284,0,2.536,0,3.752,0c0-0.525,0-0.977,0-1.454
	c-0.632,0-1.23-0.021-1.825,0.006c-0.566,0.023-1.153-0.144-1.782,0.202C6.952,49.58,7.229,48.602,7.113,47.539z M-15.112,56.1
	c0.39,0.134,0.758,0.354,1.134,0.371c0.89,0.037,1.795,0.124,2.666-0.194c0.712-0.261,1.136-0.871,1.681-1.375
	c0-0.124-0.045-0.283,0.008-0.396c0.435-0.935,0.27-2.037-0.608-2.97c-0.494-0.521-1.091-0.891-1.73-1.197
	c-0.638-0.306-1.292-0.583-1.688-1.197c0-0.364,0-0.71,0-1.044c0.463-0.549,1.057-0.7,1.73-0.745
	c0.655-0.044,1.196,0.331,1.803,0.438c0.062-0.443,0.118-0.828,0.18-1.269c-0.074-0.045-0.207-0.152-0.36-0.212
	c-0.866-0.349-1.784-0.274-2.663-0.188c-0.727,0.072-1.455,0.39-1.878,1.056c-0.399,0.628-0.62,1.348-0.515,2.111
	c0.034,0.251,0.179,0.488,0.251,0.675c0.563,0.976,1.499,1.437,2.424,1.835c0.837,0.363,1.384,0.921,1.77,1.696
	c-0.089,0.249-0.181,0.496-0.318,0.877c-0.138,0.138-0.387,0.387-0.562,0.56c-0.599,0.241-1.139,0.385-1.683,0.274
	c-0.54-0.109-1.059-0.306-1.646-0.482C-15.112,55.205-15.112,55.584-15.112,56.1z M73.966,48.653
	c0.387-1.06,1.166-1.415,2.181-1.279c0.54,0.072,1.065,0.253,1.607,0.385c0-0.501,0-0.974,0-1.382
	c-0.346-0.108-0.624-0.257-0.91-0.273c-0.633-0.041-1.286-0.102-1.898,0.013c-0.604,0.109-1.266,0.243-1.674,0.796
	c-0.292,0.398-0.538,0.83-0.777,1.205c0,0.2,0.012,0.342-0.002,0.481c-0.064,0.745,0.181,1.419,0.657,1.944
	c0.387,0.426,0.882,0.886,1.409,1.026c0.915,0.239,1.568,0.76,2.177,1.423c0,0.412,0,0.834,0,1.26
	c-0.956,0.948-1.399,1.062-2.677,0.758c-0.438-0.104-0.893-0.134-1.317-0.196c0,0.459,0,0.84,0,1.211
	c0.136,0.095,0.236,0.204,0.359,0.245c0.691,0.247,1.411,0.222,2.132,0.222c1.005,0,1.892-0.3,2.498-1.118
	c0.972-1.31,0.96-2.426-0.021-3.74c-0.538-0.715-1.345-1.135-2.136-1.473C74.838,49.848,74.323,49.405,73.966,48.653z
	 M89.448,46.341c-2.586,0-5.089,0-7.532,0c-0.115,0.224-0.208,0.398-0.298,0.58c0.094,0.204,0.19,0.41,0.302,0.654
	c0.468,0,0.962-0.012,1.451,0.002c0.477,0.016,0.963-0.056,1.47,0.059c0,2.91,0,5.764,0,8.615c0.492,0,0.941,0,1.464,0
	c0-2.904,0-5.785,0-8.701c1.091,0,2.107,0,3.14,0C89.448,47.135,89.448,46.757,89.448,46.341z M-1.348,56.253
	c0-2.895,0-5.771,0-8.678c0.559,0,1.049,0.012,1.539-0.004c0.475-0.014,0.961,0.061,1.385-0.038c0-0.455,0-0.832,0-1.23
	c-1.308,0-2.574-0.01-3.841,0.002c-1.253,0.01-2.508-0.045-3.716,0.038c0,0.455,0,0.836,0,1.244c1.052,0,2.068,0,3.151,0
	c0,2.91,0,5.785,0,8.666C-2.314,56.253-1.864,56.253-1.348,56.253z M117.73,46.322c0,3.32,0,6.621,0,9.955
	c1.866,0,3.697,0,5.528-0.002c0.031,0,0.064-0.016,0.09-0.035c0.03-0.02,0.048-0.051,0.036-0.035c0-0.42,0-0.797,0-1.207
	c-1.405,0-2.773,0-4.21,0c0-2.91,0-5.787,0-8.676C118.656,46.322,118.205,46.322,117.73,46.322z M127.79,46.322
	c-0.406,0.202-0.335,0.539-0.335,0.848c0,2.683,0,5.361,0,8.046c0,0.344,0,0.69,0,1.085c0.616-0.066,1.163,0.038,1.664-0.061
	c0-3.354,0-6.623,0-9.916C128.638,46.322,128.19,46.322,127.79,46.322z M93.114,56.243c0.291-2.208,0.229-9.492,0-10.197
	C93.114,49.504,93.114,52.872,93.114,56.243z"/>
<path fill="#333333" d="M-35.306,14.896c0,6.917,0,13.827,0,20.795c-4.771,0-9.495,0-14.218,0c0-11.6,0-23.202,0-34.801
	c0.185,0.148,0.384,0.284,0.551,0.451c2.746,2.739,5.484,5.483,8.231,8.22c0.394,0.395,0.733,0.834,1.163,1.205
	c0.432,0.37,0.963,0.702,1.138,1.312c0.681,0.258,1.031,0.843,1.418,1.401c0.105,0.155,0.318,0.237,0.481,0.354
	c0.396,0.276,0.737,0.599,0.916,1.06C-35.517,14.896-35.414,14.896-35.306,14.896z"/>
<path fill="#333333" d="M149.523,7.469c-1.943,0-3.888,0-5.847,0c-0.519-0.539-0.723-1.252-0.925-1.938
	c-0.226-0.76-0.568-1.462-0.854-2.195c-0.453-1.156-0.803-2.356-1.311-3.485c-0.373-0.832-0.546-1.765-1.23-2.466
	c-0.42-0.432-0.97-0.799-1.497-0.966c-0.746-0.239-1.496-0.185-2.251-0.198c-0.209-0.004-0.421,0-0.703,0c0,3.732,0,7.46,0,11.216
	c-1.866,0-3.658,0-5.497,0c0-8.864,0-17.751,0-26.648c0.062-0.064,0.136-0.14,0.271-0.27c0.215,0,0.491,0,0.768,0
	c2.581,0,5.161-0.02,7.74,0.01c1.067,0.012,2.14,0.066,3.193,0.224c0.873,0.13,1.742,0.381,2.57,0.696
	c0.668,0.252,1.321,0.614,1.891,1.046c0.883,0.663,1.429,1.605,1.762,2.653c0.151,0.48,0.258,0.976,0.226,1.5
	c-0.035,0.632-0.012,1.271-0.008,1.907c0.008,1.343-0.575,2.439-1.396,3.448c-0.708,0.871-1.68,1.33-2.655,1.791
	c-0.146,0.068-0.331,0.048-0.488,0.097c-0.188,0.06-0.363,0.151-0.746,0.317c0.383,0.068,0.558,0.099,0.795,0.142
	c0.408,0.445,0.858,0.933,1.306,1.421c0.555,0.601,0.731,1.402,1.034,2.115c0.43,1.022,0.902,2.033,1.264,3.079
	c0.34,0.991,0.727,1.967,1.131,2.925c0.436,1.021,0.865,2.045,1.279,3.075c0.018,0.041,0.115,0.05,0.177,0.078
	C149.523,7.185,149.523,7.327,149.523,7.469z M140.741-14.574c-0.634-0.02-1.158-0.509-1.817-0.449
	c-0.689,0.061-1.323-0.303-2.029-0.229c-0.653,0.07-1.319,0.014-1.965,0.014c0,2.449,0,4.829,0,7.216
	c1.034,0,2.025,0.058,3.009-0.016c0.952-0.074,1.878-0.358,2.904-0.723C142.876-10.341,142.87-12.914,140.741-14.574z"/>
<path fill="#333333" d="M80.98-19.694c0.634-0.163,1.203,0.198,1.819,0.239c0.579,0.041,1.144,0.293,1.791,0.472
	c-0.068,0.426-0.139,0.876-0.216,1.332c-0.082,0.498,0.081,0.993-0.172,1.52c-0.194,0.398-0.04,0.964-0.04,1.567
	c-0.263-0.072-0.469-0.144-0.679-0.181c-1.079-0.196-2.074-0.686-3.207-0.746c-0.595-0.031-1.209-0.185-1.821-0.164
	c-1.593,0.059-2.568,0.527-3.447,1.641c-0.363,0.459-0.688,0.988-0.614,1.654c0.043,0.418,0.008,0.846,0.008,1.244
	c0.15,0.173,0.335,0.309,0.414,0.492c0.204,0.465,0.561,0.721,0.998,0.953c1.247,0.663,2.573,1.129,3.864,1.683
	c1.257,0.544,2.522,1.104,3.654,1.954c0.952,0.717,1.681,1.53,2.142,2.612c0.327,0.77,0.608,1.547,0.601,2.401
	c-0.006,0.533,0.002,1.062-0.002,1.592c-0.014,1.41-0.548,2.647-1.271,3.822c-0.952,1.549-2.455,2.319-4.101,2.855
	c-0.694,0.228-1.433,0.323-2.146,0.474c-1.499,0.317-2.995,0.19-4.479,0.14c-1.291-0.047-2.581-0.36-3.854-0.647
	c-0.319-0.072-0.624-0.192-0.938-0.299c-0.057-0.021-0.102-0.095-0.164-0.161c0.156-1.503,0.319-3.019,0.49-4.634
	c0.206,0.078,0.424,0.132,0.618,0.229c0.495,0.25,1.042,0.367,1.543,0.634c0.441,0.235,1.011,0.371,1.505,0.42
	c0.991,0.097,1.979,0.425,2.985,0.245c1.403-0.252,2.757-0.624,3.693-1.831c0.365-0.47,0.48-1.415,0.406-2.109
	c-0.099-0.896-0.577-1.405-1.277-1.913c-1.143-0.83-2.452-1.244-3.718-1.791c-1.417-0.612-2.898-1.083-4.104-2.146
	c-1.193-1.054-2.025-2.198-2.418-3.979c-0.123-0.55-0.164-1.077-0.168-1.617c-0.003-0.539,0-1.067,0.164-1.619
	c0.147-0.5,0.287-1.022,0.395-1.532c0.122-0.587,0.422-1.083,0.734-1.495c1.219-1.606,2.772-2.749,4.828-3.116
	c0.36-0.064,0.71-0.2,1.085-0.188c0.208-0.082,0.539,0.198,0.636-0.21c1.132,0,2.265,0,3.394,0c0.088,0.07,0.164,0.192,0.257,0.202
	C80.44-19.675,80.713-19.694,80.98-19.694z"/>
<path fill="#333333" d="M80.98-19.694c-0.268,0-0.538,0.02-0.805-0.01c-0.091-0.008-0.169-0.13-0.255-0.2c0.354,0,0.706,0,1.06,0
	C80.98-19.834,80.98-19.764,80.98-19.694z"/>
<path fill="#333333" d="M76.525-19.904c-0.101,0.408-0.428,0.13-0.636,0.21c0-0.072,0-0.14,0-0.21
	C76.102-19.904,76.312-19.904,76.525-19.904z"/>
<path fill="#333333" d="M13.296-14.323c0,7.237,0,14.476,0,21.751c-1.683,0-3.335,0-4.993,0C8.134,6.524,8.067-14.934,8.228-19.444
	c2.781,0,5.563,0,8.449,0c0.123,0.292,0.307,0.642,0.428,1.013c0.559,1.712,1.091,3.437,1.613,5.161
	c0.39,1.287,0.835,2.562,1.16,3.872c0.179,0.731,0.438,1.444,0.671,2.162c0.334,1.026,0.672,2.053,1.019,3.077
	c0.347,1.022,0.695,2.047,1.02,3.073c0.185,0.585,0.317,1.191,0.569,1.833c0.496-1.542,0.963-3.007,1.437-4.473
	c0.261-0.811,0.52-1.623,0.794-2.428c0.275-0.807,0.59-1.611,0.805-2.418c0.247-0.927,0.641-1.806,0.842-2.725
	c0.285-1.297,0.774-2.518,1.123-3.785c0.38-1.39,0.864-2.75,1.312-4.123c0.03-0.089,0.143-0.151,0.243-0.249
	c2.758,0,5.541,0,8.363,0c0,8.961,0,17.92,0,26.904c-1.67,0-3.322,0-5.045,0c0-7.268,0-14.532,0-21.794
	c-0.053-0.01-0.108-0.021-0.161-0.035c-0.302,0.873-0.625,1.736-0.902,2.614c-0.316,1.003-0.57,2.025-0.888,3.027
	C30.76-7.74,30.414-6.75,30.046-5.771c-0.369,0.98-0.721,1.973-1.023,2.966c-0.688,2.259-1.414,4.504-2.152,6.747
	c-0.378,1.153-0.716,2.319-1.079,3.497c-1.751,0-3.474,0-5.25,0c-0.361-1.046-0.752-2.121-1.098-3.213
	c-0.513-1.627-0.912-3.297-1.512-4.891c-0.59-1.562-1.079-3.157-1.639-4.727c-0.427-1.201-0.768-2.447-1.126-3.678
	c-0.346-1.184-0.707-2.379-1.216-3.522c-0.124-0.278-0.056-0.651-0.229-0.966c-0.141-0.255-0.194-0.556-0.283-0.838
	C13.391-14.37,13.343-14.346,13.296-14.323z"/>
<path fill="#333333" d="M-20.876,1.317c0.26,0.224,0.535,0.434,0.778,0.676c4.323,4.317,8.642,8.639,12.988,12.983
	c0,6.854,0,13.733,0,20.667c-4.689,0-9.403,0-14.19,0c0-0.183,0-0.383,0-0.587c0.463-0.21,0.198-0.616,0.198-0.912
	c0.017-10.568,0.015-21.135,0.015-31.706c0-0.319-0.01-0.636,0.01-0.953C-21.076,1.424-20.947,1.371-20.876,1.317z"/>
<path fill="#333333" d="M-20.876,1.317c-0.07,0.055-0.199,0.109-0.203,0.169c-0.02,0.317-0.01,0.634-0.01,0.953
	c0,10.57,0.002,21.139-0.015,31.706c0,0.296,0.265,0.702-0.199,0.912c0-11.298,0-22.597,0-34.058
	c-0.308,0.309-0.515,0.515-0.722,0.723c-4.097,4.096-8.192,8.193-12.291,12.287c-0.245,0.243-0.518,0.451-0.778,0.676
	c-0.072-0.07-0.142-0.142-0.213-0.212c0-0.072,0-0.14,0-0.21c0.463-0.212,0.199-0.616,0.199-0.912
	c0.016-10.287,0.016-20.573,0.016-30.858c0-0.249,0.014-0.498-0.01-0.743c-0.008-0.064-0.134-0.115-0.203-0.169
	c0-0.318,0-0.635,0-0.954c0.942-0.162,10.008-0.212,13.967-0.08c0,6.731,0,13.469,0,20.136C-21.156,0.936-21.016,1.124-20.876,1.317
	z"/>
<path fill="#333333" d="M67.494,7.448c-2.087,0-4.023,0-6.055,0c-0.756-2.021-1.522-4.072-2.284-6.109c-3.65,0-7.212,0-10.847,0
	c-0.775,2.023-1.554,4.068-2.335,6.111c-1.861,0-3.652,0-5.54,0c0.083-0.404,0.083-0.822,0.255-1.151
	c0.798-1.545,1.305-3.209,1.986-4.801c0.358-0.834,0.647-1.712,0.964-2.572c0.396-1.073,0.846-2.126,1.229-3.203
	c0.682-1.909,1.495-3.765,2.2-5.667c0.52-1.403,1.039-2.82,1.646-4.196c0.488-1.104,0.852-2.263,1.29-3.39
	c0.249-0.638,0.535-1.264,0.814-1.909c2.055,0,4.062,0,6.105,0c0.179,0.504,0.342,1.069,0.567,1.61
	c0.803,1.93,1.631,3.851,2.298,5.839c0.255,0.762,0.622,1.505,0.924,2.269c0.311,0.788,0.693,1.555,0.942,2.364
	c0.249,0.816,0.758,1.538,0.865,2.403c0.981,1.749,1.362,3.751,2.316,5.511c0.278,1.499,1.06,2.816,1.55,4.243
	C66.674,5.646,67.022,6.509,67.494,7.448z M53.771-13.985c-0.233,0.496-0.449,0.867-0.584,1.264c-0.719,2.14-1.411,4.29-2.13,6.43
	c-0.26,0.773-0.543,1.54-0.853,2.297c-0.143,0.348-0.327,0.667-0.124,1.065c2.474,0,4.945,0,7.414-0.002
	c0.031,0,0.061-0.025,0.086-0.047c0.02-0.018,0.029-0.048,0.02-0.033C56.317-6.682,55.05-10.323,53.771-13.985z"/>
<path fill="#333333" d="M74.434,35.482c0-7.76,0-15.421,0-23.13c2.109,0,4.188,0,6.268,0c0.67,0,1.345,0.01,2.014-0.002
	c0.82-0.018,1.594,0.194,2.387,0.373c0.681,0.154,1.368,0.247,2.037,0.469c1.307,0.427,2.906,1.368,3.843,2.255
	c0.873,0.826,1.641,1.726,2.09,2.85c0.292,0.734,0.546,1.473,0.685,2.274c0.103,0.578,0.022,1.188,0.204,1.708
	c0.204,0.587,0.188,1.151,0.167,1.727c-0.02,0.644-0.177,1.287-0.187,1.928c-0.01,0.653-0.2,1.266-0.325,1.888
	c-0.124,0.61-0.287,1.227-0.554,1.784c-0.316,0.651-0.71,1.285-1.17,1.845c-0.959,1.175-2.162,2.105-3.548,2.679
	c-1.054,0.438-2.134,0.934-3.328,0.934c-0.534,0.373-1.16,0.083-1.71,0.224c-1.452,0.375-2.916,0.147-4.37,0.19
	C77.452,35.514,75.968,35.482,74.434,35.482z M79.106,15.958c0,5.373,0,10.625,0,15.939c1.165-0.151,2.282,0.041,3.441-0.185
	c1.131-0.222,2.177-0.517,3.152-1.111c1.223-0.741,2.049-1.82,2.718-3.06c0.554-1.028,0.622-2.158,0.836-3.259
	c0.163-0.831-0.222-1.629-0.206-2.452c-0.366-0.237-0.125-0.644-0.272-0.949c-0.702-1.499-1.656-2.775-3.056-3.699
	c-1.17-0.774-2.484-1.087-3.841-1.211C80.973,15.889,80.052,15.958,79.106,15.958z"/>
<path fill="#333333" d="M115.146-8.659c2.989,0,5.976-0.004,8.961,0.012c0.194,0,0.517-0.21,0.591,0.202
	c-3.146,0-6.29,0-9.436,0.002c-0.027,0-0.057,0.039-0.075,0.068c-0.012,0.018-0.002,0.047-0.002,0.14c3.17,0,6.345,0,9.513,0
	c0,1.203,0,2.404,0,3.607c-2.989,0-5.976-0.004-8.965,0.01c-0.192,0-0.514-0.208-0.587,0.202c-0.07,0.055-0.202,0.111-0.202,0.167
	c-0.012,2.434-0.012,4.867,0,7.303c0,0.054,0.132,0.111,0.202,0.167c3.499,0,6.999,0,10.57,0c0.092,1.388,0.014,2.78,0.047,4.208
	c-5.295,0-10.554,0-15.813,0c-0.177-0.947-0.245-21.197-0.081-26.874c5.277,0,10.561,0,15.865,0c0,1.386,0,2.754,0,4.203
	c-0.302,0-0.612,0-0.922,0c-2.896,0-5.794,0-8.692,0c-0.342,0-0.687-0.033-0.97,0.214c0-0.037,0.012-0.085-0.004-0.103
	c-0.039-0.035-0.094-0.05-0.208-0.111c0,2.166-0.002,4.29,0.01,6.413C114.943-8.768,115.075-8.712,115.146-8.659z"/>
<path fill="#333333" d="M7.577,35.482c0-7.736,0-15.397,0-23.13c0.428,0,0.843,0,1.259,0c2.477,0,4.951,0.05,7.423-0.023
	c1.288-0.039,2.486,0.272,3.65,0.686c0.902,0.319,1.656,0.982,2.231,1.75c0.389,0.517,0.705,1.127,0.882,1.748
	c0.185,0.646,0.3,1.371,0.19,2.018c-0.076,0.432-0.135,0.863-0.155,1.131c-0.724,2.076-2.148,3.197-4.259,3.738
	c0.783,0.259,1.339,0.432,1.888,0.624c1.32,0.47,2.202,1.44,2.767,2.665c0.428,0.929,0.615,2.33,0.291,3.356
	c-0.165,0.527-0.189,1.103-0.388,1.645c-0.37,0.995-1.139,1.674-1.909,2.267c-1.058,0.809-2.343,1.128-3.683,1.347
	c-1.888,0.31-3.766,0.109-5.645,0.17C10.639,35.52,9.153,35.482,7.577,35.482z M12.227,25.082c0,2.012,0.004,4.023-0.006,6.035
	c0,0.296,0.014,0.558,0.348,0.754c0.577,0,1.21,0.027,1.84-0.008c0.608-0.034,1.236-0.052,1.813-0.222
	c0.959-0.281,2.012-0.412,2.549-1.508c0.259-0.527,0.471-1.024,0.456-1.611c-0.018-0.675-0.12-1.385-0.515-1.896
	c-0.605-0.785-1.42-1.353-2.501-1.337c-0.152,0.002-0.376,0.083-0.378-0.208c0.034,0,0.083,0.014,0.099-0.002
	c0.036-0.039,0.054-0.094,0.088-0.156c-1.202-0.05-2.391-0.104-3.58-0.159c-0.049-0.004-0.095-0.053-0.148-0.064
	c-0.017-0.004-0.044,0.045-0.068,0.07C12.227,24.876,12.227,24.979,12.227,25.082z M17.203,16.391
	c-0.716-0.14-1.462-0.35-2.221-0.418c-0.832-0.074-1.676-0.017-2.438-0.017c-0.149,0.149-0.224,0.225-0.292,0.293
	c0,1.796,0,3.588,0,5.403c1.407,0.105,2.777,0.023,4.251-0.281c0.229-0.131,0.55-0.432,0.917-0.506
	c0.589-0.12,0.811-0.618,0.912-0.995c0.138-0.503,0.402-0.999,0.15-1.654C18.213,17.512,17.833,16.97,17.203,16.391z"/>
<path fill="#333333" d="M126.393,23.925c0,0.131-0.01,0.194,0,0.198c0.901,0.29,1.323,1.028,1.698,1.808
	c0.408,0.859,0.759,1.734,1.095,2.625c0.32,0.849,0.683,1.7,1.063,2.528c0.571,1.25,0.933,2.585,1.586,3.797
	c0.074,0.142,0.066,0.328,0.104,0.548c-1.677,0-3.325,0-5.067,0c-0.352-0.854-0.775-1.769-1.105-2.718
	c-0.396-1.143-0.895-2.245-1.285-3.39c-0.19-0.554-0.371-1.126-0.647-1.639c-0.303-0.56-0.715-1.06-0.968-1.425
	c-1.229-0.504-2.313-0.265-3.472-0.339c0,1.603,0,3.183,0,4.761c0,1.582,0,3.167,0,4.774c-1.564,0-3.075,0-4.626,0
	c0-7.681,0-15.37,0-23.103c1.881,0,3.749,0,5.617,0c1.058,0,2.119-0.014,3.181,0.002c1.384,0.021,2.886,0.315,4.328,1.065
	c1.355,0.704,2.172,1.81,2.566,3.32c0.239,0.91,0.262,1.812,0.142,2.673c-0.202,1.446-0.801,2.758-2.161,3.545
	c-0.231,0.132-0.376,0.359-0.657,0.467c-0.22,0.085-0.439,0.128-0.661,0.196C126.872,23.698,126.637,23.821,126.393,23.925z
	 M125.759,19.806c-0.023-0.739,0.11-1.575-0.369-2.471c-0.331-0.252-0.72-0.698-1.206-0.896c-0.633-0.261-1.343-0.404-2.031-0.463
	c-0.903-0.074-1.817-0.019-2.762-0.019c0,2.045-0.004,4.02,0,5.993c0,0.033,0.018,0.064,0.037,0.091
	c0.021,0.029,0.051,0.045,0.103,0.096c1.248-0.147,2.535,0.14,3.814-0.216c0.921-0.261,1.687-0.628,2.112-1.524
	C125.543,20.219,125.636,20.044,125.759,19.806z"/>
<path fill="#333333" d="M27.082,28.266c-0.069-0.094-0.201-0.183-0.203-0.274c-0.016-0.779-0.01-1.555-0.01-2.334
	c0-4.064,0-8.131,0-12.198c0-0.348,0-0.696,0-1.077c1.549,0,3.06,0,4.668,0c0,0.276,0,0.581,0,0.888
	c0,4.208-0.013,8.413,0.008,12.622c0.006,1.245,0.195,2.489,0.643,3.654c0.575,1.502,1.927,2.482,3.513,2.536
	c0.424,0.014,0.853-0.035,1.272,0.008c0.828,0.08,1.525-0.255,2.146-0.709c0.995-0.733,1.409-1.851,1.746-2.98
	c0.131-0.448,0.179-0.927,0.214-1.396c0.036-0.455,0.006-0.919,0.006-1.376c0-4.207,0-8.415,0-12.622c0-0.208,0-0.412,0-0.633
	c1.571,0,3.079,0,4.67,0c0,0.309,0,0.616,0,0.925c0,4.951-0.006,9.9,0.006,14.847c0.002,0.721-0.367,2.412-0.756,3.296
	c-0.866,1.948-2.347,3.229-4.402,3.82c-0.771,0.222-1.568,0.342-2.361,0.478c-0.832,0.143-1.649,0.19-2.464,0.145
	c-1.77-0.098-3.495-0.37-5.104-1.238c-1.77-0.959-2.959-2.63-3.405-4.557c-0.11-0.473-0.186-0.927-0.189-1.401
	c0.412-0.128,0.201-0.469,0.201-0.7c0.014-4.935,0.012-9.876,0.012-14.815c0-0.2,0-0.398,0-0.599c-0.071,0-0.141,0-0.213,0
	C27.082,17.806,27.082,23.037,27.082,28.266z"/>
<path fill="#333333" d="M100.109,7.449c-1.895,0-3.69,0-5.515,0c0-7.538,0-15.057,0-22.541c-0.058-0.061-0.077-0.091-0.108-0.111
	c-0.025-0.018-0.059-0.035-0.09-0.035c-2.468,0-4.937,0-7.44,0c0-1.405,0-2.772,0-4.191c6.877,0,13.785,0,20.725,0
	c0,1.351,0,2.72,0,4.162c-2.487,0-5.015,0-7.573,0C100.109-7.676,100.109-0.157,100.109,7.449z"/>
<path fill="#333333" d="M110.9,15.958c-2.885,0-5.773,0-8.678,0c0,1.928,0,3.792,0,5.724c2.745,0,5.481,0,8.254,0
	c0,1.159,0.006,2.249-0.008,3.338c-0.002,0.095-0.133,0.185-0.206,0.276c0-0.29-0.222-0.21-0.373-0.21
	c-2.594-0.002-5.187-0.002-7.779,0.004c-0.031,0-0.062,0.083-0.096,0.13c0.066,0.027,0.127,0.049,0.188,0.076
	c0,1.867,0,3.737-0.004,5.605c0,0.344-0.031,0.688,0.214,0.97c0.039,0.354,0.313,0.208,0.482,0.208
	c1.648,0.012,3.297,0.008,4.945,0.008c1.011,0,2.02,0,3.011,0c0,1.036,0,2,0,2.918c-0.159,0.059-0.263,0.093-0.363,0.128
	c0.008,0.045,0.016,0.09,0.022,0.135c0.201,0,0.401,0,0.604,0c-0.039,0.355-0.317,0.204-0.486,0.208
	c-2.086,0.01-4.172,0.006-6.255,0.006c-2.259,0-4.516,0-6.808,0c0-7.696,0-15.358,0-23.095c0.194-0.01,0.424-0.033,0.657-0.035
	c4.062-0.002,8.129-0.004,12.191,0.01c0.228,0,0.567-0.21,0.7,0.2c-0.288,0.002-0.21,0.22-0.21,0.373
	C110.9,13.942,110.9,14.948,110.9,15.958z"/>
<path fill="#333333" d="M146.886,16.525c-1.056-0.309-2.082-0.805-3.242-0.787c-0.263,0.004-0.554,0.111-0.787-0.164
	c-0.059-0.074-0.272-0.07-0.395-0.037c-0.887,0.237-1.823,0.2-2.64,0.816c-0.71,0.534-0.962,1.213-1.114,1.99
	c-0.052,0.272-0.008,0.564-0.008,0.824c0.146,0.278,0.269,0.55,0.428,0.799c0.148,0.224,0.292,0.525,0.516,0.62
	c0.811,0.352,1.561,0.813,2.398,1.122c1.537,0.56,3.085,1.14,4.418,2.125c1.124,0.832,1.801,2.014,2.189,3.325
	c0.159,0.537-0.041,1.161,0.236,1.707c-0.289,1.351-0.334,2.755-1.231,3.946c-0.984,1.306-2.162,2.07-3.536,2.447
	c-0.706,0.192-1.444,0.305-2.146,0.474c-1.048,0.253-2.083,0.204-3.1,0.129c-0.988-0.074-1.999-0.161-2.959-0.506
	c-0.496-0.179-1.042-0.212-1.652-0.33c0.068-0.581-0.173-1.16,0.157-1.782c0.162-0.304,0.049-0.763,0.037-1.147
	c-0.018-0.451-0.004-0.884,0.335-1.315c0.153,0.075,0.326,0.147,0.487,0.236c1.752,0.977,3.656,1.212,5.603,1.036
	c0.705-0.062,1.382-0.393,1.98-0.835c0.642-0.471,0.952-1.161,1.116-1.866c0.116-0.502-0.186-1.063-0.486-1.47
	c-0.614-0.826-1.501-1.364-2.447-1.732c-1.344-0.517-2.688-1.013-3.966-1.696c-1.117-0.603-1.961-1.464-2.603-2.52
	c-0.395-0.649-0.571-1.429-0.622-2.169c-0.051-0.771-0.218-1.586,0.165-2.356c0.1-0.198,0.016-0.484,0.016-0.663
	c0.152-0.253,0.321-0.441,0.381-0.655c0.414-1.5,1.442-2.451,2.782-3.104c0.526-0.257,1.032-0.548,1.625-0.692
	c0.618-0.147,1.227-0.334,1.854-0.365c0.954-0.045,1.916-0.082,2.863,0.006c1.195,0.111,2.385,0.303,3.547,0.634
	c0.121,0.035,0.204,0.192,0.315,0.303c0,0.41,0.151,0.921-0.031,1.238C146.915,14.904,147.561,15.866,146.886,16.525z"/>
<path fill="#333333" d="M72.068,31.871c0.07,0.092,0.204,0.183,0.204,0.276c0.016,1.091,0.008,2.181,0.008,3.301
	c-4.52,0-8.998,0-13.529,0c0-7.655,0-15.341,0-23.062c1.489,0,3.001,0,4.588,0c0.008,0.227,0.028,0.498,0.028,0.766
	c0.002,5.972-0.001,11.944,0.018,17.916c0,0.255-0.258,0.636,0.198,0.803c0.037,0.354,0.315,0.208,0.482,0.208
	c2.434,0.01,4.863,0.006,7.293,0.008c0.168,0,0.331,0.016,0.439,0.021c0.066,0.187,0.104,0.29,0.14,0.391
	c0.043-0.006,0.09-0.016,0.133-0.023C72.068,32.276,72.068,32.075,72.068,31.871z"/>
<path fill="#333333" d="M49.821,12.371c1.551,0,3.062,0,4.603,0c0,7.682,0,15.343,0,23.075c-1.502,0.075-3.036,0.01-4.603,0.043
	C49.821,27.78,49.821,20.117,49.821,12.371z"/>
<path fill="#333333" d="M-35.306-18.419c0.072,0.055,0.197,0.105,0.203,0.169c0.021,0.245,0.01,0.494,0.01,0.743
	c0,10.285,0.002,20.571-0.014,30.858c0,0.293,0.264,0.698-0.199,0.912C-35.306,3.365-35.306-7.526-35.306-18.419z"/>
<path fill="#333333" d="M27.082,28.266c0-5.229,0-10.46,0-15.688c0.072,0,0.142,0,0.213,0c0,0.2,0,0.398,0,0.599
	c0,4.939,0.001,9.879-0.012,14.815c0,0.229,0.209,0.57-0.201,0.7C27.082,28.548,27.082,28.406,27.082,28.266z"/>
<path fill="#333333" d="M111.116,35.268c-0.2,0-0.402,0-0.605,0c-0.007-0.045-0.015-0.09-0.022-0.135
	c0.104-0.037,0.206-0.069,0.365-0.128c0-0.918,0-1.882,0-2.918c-0.991,0-2.002,0-3.009,0c-1.648,0-3.301,0.004-4.947-0.008
	c-0.169,0-0.445,0.146-0.482-0.208c2.879,0,5.76,0,8.701,0C111.116,33.032,111.116,34.152,111.116,35.268z"/>
<path fill="#333333" d="M115.146-4.414c0.073-0.412,0.395-0.202,0.587-0.202c2.989-0.016,5.976-0.01,8.965-0.01
	c-0.074,0.412-0.395,0.2-0.591,0.2c-2.916,0.018-5.832,0.012-8.749,0.012C115.287-4.414,115.219-4.414,115.146-4.414z"/>
<path fill="#333333" d="M124.697-8.235c-3.172,0-6.345,0-9.513,0c0-0.093-0.01-0.123,0.002-0.14
	c0.019-0.029,0.048-0.068,0.075-0.068c3.146-0.004,6.29-0.002,9.436-0.002C124.697-8.375,124.697-8.303,124.697-8.235z"/>
<path fill="#333333" d="M72.068,31.871c0,0.204,0,0.404,0,0.604c-0.045,0.008-0.09,0.018-0.134,0.023
	c-0.037-0.103-0.074-0.206-0.139-0.391c-0.11-0.006-0.273-0.021-0.438-0.021c-2.432-0.002-4.861,0.002-7.293-0.008
	c-0.171,0-0.449,0.146-0.484-0.208C66.412,31.871,69.24,31.871,72.068,31.871z"/>
<path fill="#333333" d="M102.203,25.296c-0.062-0.027-0.122-0.049-0.188-0.076c0.033-0.047,0.064-0.13,0.096-0.13
	c2.593-0.006,5.186-0.006,7.779-0.004c0.151,0,0.373-0.078,0.373,0.21C107.576,25.296,104.892,25.296,102.203,25.296z"/>
<path fill="#333333" d="M115.146,3.225c-0.07-0.056-0.202-0.113-0.202-0.167c-0.012-2.436-0.012-4.869,0-7.303
	c0-0.057,0.132-0.113,0.202-0.167c0,0.07,0,0.14,0,0.212C115.146-1.727,115.146,0.749,115.146,3.225z"/>
<path fill="#333333" d="M115.146-8.659c-0.07-0.053-0.202-0.109-0.202-0.166c-0.012-2.123-0.01-4.247-0.01-6.413
	c0.114,0.059,0.171,0.076,0.208,0.111c0.016,0.018,0.004,0.066,0.004,0.103C115.146-12.903,115.146-10.78,115.146-8.659z"/>
<path fill="#333333" d="M110.9,15.958c0-1.007,0-2.016,0.004-3.023c0-0.153-0.074-0.371,0.21-0.373c0,1.007,0.002,2.018-0.004,3.024
	C111.112,15.74,111.188,15.956,110.9,15.958z"/>
<path fill="#333333" d="M-35.306,14.472c0.072,0.072,0.141,0.142,0.213,0.212c-0.072,0.072-0.141,0.142-0.213,0.212
	C-35.306,14.756-35.306,14.615-35.306,14.472z"/>
<path fill="#333333" d="M115.146-4.202c0-0.072,0-0.142,0-0.212c0.073,0,0.142,0,0.212,0C115.287-4.344,115.219-4.272,115.146-4.202
	z"/>
<path fill="#333333" d="M93.114,56.243c0-3.371,0-6.741,0-10.197C93.344,46.755,93.401,54.035,93.114,56.243z"/>
<path fill="#333333" d="M27.506,46.303c0,3.254,0,6.51,0,9.762c-0.072-0.057-0.203-0.115-0.203-0.167
	c-0.01-3.144-0.01-6.287,0-9.428C27.303,46.413,27.436,46.361,27.506,46.303z"/>
<path fill="#333333" d="M135.73,53.942c0.025-0.061,0.047-0.12,0.074-0.179c0.275,0.255,0.618,0.177,0.942,0.177
	c1.215,0.004,2.436,0.002,3.652,0.002c-0.055,0.07-0.112,0.204-0.167,0.206c-1.446,0.01-2.889,0.01-4.333,0
	C135.841,54.146,135.785,54.012,135.73,53.942z"/>
<path fill="#333333" d="M106.444,53.942c1.56,0,3.112,0,4.672,0c-0.057,0.07-0.111,0.204-0.168,0.206c-1.448,0.01-2.89,0.01-4.336,0
	C106.558,54.146,106.501,54.012,106.444,53.942z"/>
<path fill="#333333" d="M48.726,53.942c1.414,0,2.829,0,4.244,0c0.059,0.023,0.119,0.049,0.186,0.074
	c-0.033,0.047-0.061,0.132-0.09,0.132c-1.358,0.008-2.715,0.01-4.072-0.004C48.906,54.146,48.816,54.012,48.726,53.942z"/>
<path fill="#333333" d="M15.835,25.082c-1.202,0-2.405,0-3.607,0c0-0.104,0-0.206,0-0.312c0.022-0.025,0.052-0.074,0.068-0.07
	c0.052,0.012,0.1,0.061,0.149,0.064c1.188,0.055,2.377,0.109,3.58,0.159c-0.034,0.062-0.052,0.119-0.087,0.156
	C15.919,25.096,15.869,25.082,15.835,25.082z"/>
<path fill="#333333" d="M20.929,49.595c-0.249,0.243-0.498,0.488-0.747,0.731c-0.39,0.072-0.78,0.177-1.176,0.212
	c-0.383,0.039-0.773,0.008-1.211,0.008c0-0.966,0-1.935,0-2.936c0.643,0,1.304,0,1.943,0c0.294,0.146,0.585,0.29,0.939,0.467
	C21.021,48.488,20.919,49.047,20.929,49.595z"/>
<path fill="#333333" d="M98.172,48.525c0,0.359,0,0.709,0,1.068c-0.247,0.243-0.498,0.488-0.681,0.669
	c-0.888,0.404-1.757,0.255-2.713,0.292c-0.002-0.484-0.002-0.961-0.002-1.44c0-0.488,0-0.976,0-1.54
	c0.542,0,1.062,0.031,1.578-0.008c0.593-0.04,1.052,0.172,1.448,0.591C97.921,48.287,98.048,48.406,98.172,48.525z"/>
<path fill="#333333" d="M106.779,52.632c0.634-1.606,1.248-3.134,1.959-4.853c0.375,0.902,0.749,1.593,1.007,2.345
	c0.265,0.766,0.579,1.512,0.879,2.29c-0.031,0.03-0.105,0.106-0.218,0.216C109.292,52.632,108.136,52.632,106.779,52.632z"/>
<path fill="#333333" d="M138.133,47.681c0.675,1.747,1.279,3.32,1.909,4.955c-1.26,0-2.414,0-3.604,0
	c-0.065-0.066-0.167-0.168-0.254-0.255C136.821,50.843,137.456,49.312,138.133,47.681z"/>
<path fill="#333333" d="M49.073,52.632c0.686-1.66,1.341-3.251,2.043-4.943c0.656,1.708,1.269,3.299,1.9,4.943
	C51.688,52.632,50.436,52.632,49.073,52.632z"/>
</svg>
