<?xml version="1.0" encoding="utf-8"?>
<!-- Generator: Adobe Illustrator 16.0.0, SVG Export Plug-In . SVG Version: 6.00 Build 0)  -->
<!DOCTYPE svg PUBLIC "-//W3C//DTD SVG 1.1//EN" "http://www.w3.org/Graphics/SVG/1.1/DTD/svg11.dtd">
<svg version="1.1" id="Layer_1" xmlns="http://www.w3.org/2000/svg" xmlns:xlink="http://www.w3.org/1999/xlink" x="0px" y="0px"
	 width="104.569px" height="80px" viewBox="-2.285 -1.749 104.569 80" enable-background="new -2.285 -1.749 104.569 80"
	 xml:space="preserve">
<path fill="#333333" d="M42.166,35.548c0-12.425,0-24.852,0-37.296c5.161,0,10.266,0,15.44,0c0,0.267,0,0.534,0,0.802
	c0,6.86,0,13.72,0.003,20.578c0,0.351-0.077,0.72,0.183,1.026c-0.401,0.185-0.172,0.534-0.172,0.789
	c-0.016,11.944-0.014,23.889-0.011,35.834c0,0.232,0.02,0.463,0.03,0.692c5.118,0,10.172,0,15.225,0
	c-0.048,0.061-0.093,0.17-0.146,0.174c-0.243,0.02-0.49,0.01-0.733,0.01c-4.561,0-9.121,0-13.682,0c-0.272,0-0.544,0-0.866,0
	c0-12.561,0-25.095,0-37.789c-0.278,0.279-0.458,0.458-0.636,0.636c-4.652,4.654-9.304,9.306-13.96,13.957
	C42.631,35.171,42.392,35.352,42.166,35.548z"/>
<path fill="#333333" d="M42.166,35.547c0,7.568,0,15.042,0,22.518c-0.75,0.125-13.232,0.169-15.414,0.053
	c0-12.581,0-25.163,0-37.762c0.005-0.005,0.024-0.035,0.05-0.046c0.015-0.006,0.046,0.015,0.062,0.031
	c5.07,5.068,10.14,10.138,15.21,15.206C42.091,35.56,42.135,35.547,42.166,35.547z"/>
<path fill="#333333" d="M72.863,57.973c-5.053,0-10.106,0-15.225,0c-0.012-0.229-0.03-0.46-0.03-0.692
	c-0.003-11.945-0.005-23.889,0.011-35.834c0-0.256-0.229-0.605,0.172-0.789c0.226,0.196,0.465,0.377,0.674,0.587
	c4.785,4.78,9.567,9.564,14.399,14.395C72.863,43.051,72.863,50.513,72.863,57.973z"/>
<path fill="#333333" d="M-2.285,62.217c0.969,0,1.91,0,2.88,0c0.347,1.334,0.691,2.661,1.053,4.052
	c0.451-0.612,0.394-1.36,0.62-2.012c0.233-0.669,0.379-1.367,0.572-2.079c1.002,0.114,1.971-0.141,2.91,0.174
	c0,2.372,0,4.658,0,6.982c-0.571,0-1.143,0-1.758,0c0.02,0.017-0.007,0-0.025-0.022C3.95,69.29,3.934,69.26,3.934,69.235
	c-0.002-1.465-0.002-2.931-0.109-4.481c-0.04,0.137-0.078,0.273-0.118,0.41c-0.016-0.034-0.031-0.071-0.047-0.107
	c-0.362,1.417-0.725,2.835-1.096,4.288c-0.529,0-1.103,0-1.715,0c-0.293-0.752-0.329-1.599-0.597-2.383
	c-0.264-0.772-0.453-1.562-0.723-2.351c0,1.574,0,3.151,0,4.742c-0.636,0-1.208,0-1.814,0C-2.285,66.994-2.285,64.645-2.285,62.217z
	"/>
<path fill="#333333" d="M47.343,62.201c1.399,0,2.771-0.022,4.142,0.012c0.392,0.011,0.78,0.17,1.167,0.274
	c0.463,0.126,0.697,0.498,0.906,1.004c-0.014,0.731,0.202,1.659-0.925,2.099c0.435,0.261,0.894,0.402,1.148,0.921
	c0.255,0.521,0.004,1.011,0.158,1.391c-0.19,0.37-0.332,0.647-0.496,0.964c-0.53,0.298-1.101,0.525-1.772,0.513
	c-1.433-0.024-2.865-0.008-4.328-0.008C47.343,66.992,47.343,64.647,47.343,62.201z M49.735,66.42c0,0.551,0,1.003,0,1.487
	c0.698-0.059,1.417,0.179,1.973-0.456c0-0.186,0-0.393,0-0.574C51.149,66.243,50.433,66.475,49.735,66.42z M51.082,63.883
	c-0.455,0-0.9,0-1.338,0c0,0.438,0,0.844,0,1.238c0.427,0,0.812,0,1.198,0c-0.028-0.035-0.057-0.07-0.086-0.106
	c0.181-0.112,0.36-0.227,0.505-0.316C51.346,64.377,51.434,64.089,51.082,63.883z"/>
<path fill="#333333" d="M36.316,62.446c0.096-0.096,0.161-0.161,0.244-0.243c1.142,0,2.304-0.02,3.463,0.008
	c0.496,0.011,0.968,0.225,1.486,0.196c0.186-0.01,0.397,0.215,0.572,0.361c0.21,0.178,0.393,0.386,0.588,0.58
	c0.252,1.982-0.065,2.148-1.256,2.994c1.012,0.741,1.346,1.894,1.918,2.99c-0.895,0-1.712,0-2.549,0
	c-0.499-0.911-0.984-1.881-1.581-2.71c-0.219,0-0.338,0-0.493,0c0,0.889,0,1.767,0,2.689c-0.407,0.107-0.798,0.045-1.18,0.056
	c-0.394,0.011-0.789,0.002-1.213,0.002C36.316,67.053,36.316,64.766,36.316,62.446z M40.511,64.684c0-0.186,0-0.367,0-0.558
	c-0.083-0.077-0.17-0.161-0.239-0.227c-0.544,0-1.073,0-1.573,0c0,0.432,0,0.819,0,1.222c0.472,0,0.918,0,1.363,0
	C40.211,64.977,40.363,64.83,40.511,64.684z"/>
<path fill="#333333" d="M88.503,69.337c0-2.376,0-4.723,0-7.136c0.885,0,1.765,0.048,2.638-0.014c0.88-0.061,1.719,0.2,2.534,0.22
	c1.249,0.479,1.372,1.474,1.211,2.642c-0.567,0.967-0.58,0.87-1.465,1.277c0.665,0.262,0.952,0.798,1.212,1.37
	c0.247,0.541,0.54,1.062,0.833,1.633c-0.401,0.085-0.821,0.027-1.234,0.038c-0.424,0.011-0.849,0.002-1.259,0.002
	c-0.707-0.846-0.812-2.012-1.631-2.756c-0.184,0-0.367,0-0.578,0c-0.021,0.068-0.067,0.149-0.067,0.228
	c-0.006,0.82-0.004,1.644-0.004,2.496C89.972,69.337,89.277,69.337,88.503,69.337z M92.49,63.885c-0.632,0-1.199,0-1.755,0
	c0,0.438,0,0.846,0,1.235c0.55,0,1.059,0,1.565,0c-0.031-0.038-0.062-0.077-0.095-0.116c0.184-0.109,0.367-0.218,0.572-0.341
	C92.674,64.379,92.586,64.144,92.49,63.885z"/>
<path fill="#333333" d="M73.626,62.191c1.696,0.066,3.379-0.194,5.121,0.479c0.323,0.373,0.886,0.735,1.107,1.397
	c0.322,0.96,0.475,1.691,0.224,2.812c-0.161,0.723-0.417,1.313-0.935,1.822c-0.436,0.431-0.988,0.632-1.559,0.653
	c-1.309,0.047-2.619,0.015-3.956,0.015C73.626,66.989,73.626,64.643,73.626,62.191z M77.825,67.074c0-0.807,0-1.598,0-2.386
	c-0.214-0.219-0.429-0.433-0.58-0.585c-0.298-0.076-0.53-0.109-0.739-0.197c-0.308-0.133-0.513-0.021-0.682,0.203
	c0,1.192,0,2.372,0,3.579c0.468,0,0.915,0,1.348,0C77.393,67.482,77.613,67.274,77.825,67.074z"/>
<path fill="#333333" d="M59.445,62.219c0.762,0,1.457,0,2.204,0c0,1.664,0.034,3.311-0.015,4.952
	c-0.021,0.721-0.412,1.354-0.978,1.783c-0.524,0.4-1.14,0.681-1.857,0.606c-0.424-0.045-0.856,0.001-1.286-0.01
	c-1.561-0.042-2.636-1.124-2.659-2.654c-0.025-1.553-0.007-3.107-0.007-4.678c0.751,0,1.445,0,2.206,0
	c0,1.436-0.002,2.863,0.003,4.293c0.001,0.206-0.013,0.434,0.067,0.612c0.122,0.28,0.302,0.492,0.61,0.672
	c0.497,0.29,0.866-0.047,1.251-0.131c0.302-0.063,0.455-0.502,0.457-0.878C59.447,65.29,59.445,63.79,59.445,62.219z"/>
<path fill="#333333" d="M29.134,69.337c0-2.382,0-4.73,0-7.109c1.94,0,3.861,0,5.823,0c0,0.516,0,1.049,0,1.616
	c-1.193,0-2.379,0-3.601,0c0,0.357,0,0.685,0,1.055c-0.015-0.019,0.001,0.01,0.024,0.026c0.022,0.017,0.052,0.03,0.078,0.03
	c1.099,0.002,2.197,0.002,3.326,0.002c0,0.482,0,0.934,0,1.448c-1.12,0-2.267,0-3.438,0c0,0.454,0,0.845,0,1.299
	c1.26,0,2.53,0,3.817,0c0,0.576,0,1.089,0,1.633C33.173,69.337,31.19,69.337,29.134,69.337z"/>
<path fill="#333333" d="M87.201,62.233c0,0.427,0,0.821,0,1.216c0,0.116,0,0.234,0,0.384c-1.222,0-2.409,0-3.635,0
	c0,0.38,0,0.729,0,1.112c1.13,0,2.253,0,3.414,0c0,0.503,0,0.975,0,1.479c-1.145,0-2.268,0-3.424,0c0,0.419,0,0.809,0,1.264
	c1.175,0,2.384,0,3.526,0c0.13,0.129,0.194,0.194,0.28,0.282c0,0.427,0,0.878,0,1.364c-1.979,0-3.96,0-5.947,0
	c-0.138-0.692-0.176-4.37-0.065-7.102C83.267,62.233,85.188,62.233,87.201,62.233z"/>
<path fill="#333333" d="M96.207,63.416c0.443-0.522,0.929-0.947,1.722-1.215c0.4,0,0.98,0.034,1.557-0.009
	c0.87-0.064,1.541,0.28,2.11,0.893c0.084,0.09,0.173,0.174,0.262,0.262c0.086,0.327,0.172,0.651,0.271,1.025
	c-0.755,0-1.449,0-2.154,0c-0.162-0.486-0.587-0.715-1.107-0.9c-0.174,0.072-0.382,0.159-0.614,0.257c0,0.194,0,0.398,0,0.662
	c0.588,0.15,1.205,0.27,1.795,0.469c0.587,0.199,1.146,0.48,1.707,0.722c0.173,0.335,0.329,0.64,0.52,1.009
	c0,0.104-0.013,0.286,0.002,0.468c0.079,0.943-0.343,1.903-1.607,2.288c-1.249,0.38-2.526,0.387-3.763-0.258
	c-0.463-0.243-0.641-0.644-0.863-1.021c-0.167-0.28-0.167-0.66-0.253-1.047c0.753,0,1.446,0,2.214,0
	c0.018,0.111,0.043,0.274,0.071,0.447c0.186,0.187,0.379,0.379,0.593,0.595c0.281,0,0.581,0,0.981,0
	c0.069-0.104,0.189-0.277,0.395-0.578c0-0.02,0-0.225,0-0.517c-0.312-0.109-0.649-0.268-1.003-0.349
	c-0.726-0.165-1.413-0.412-2.082-0.735c-0.444-0.213-0.562-0.613-0.768-0.995c-0.224-0.414-0.267-0.756,0.009-1.146
	C96.256,63.661,96.207,63.505,96.207,63.416z"/>
<path fill="#333333" d="M14.293,66.999c0.876,0,1.572,0,2.298,0c0,0.16,0,0.304,0,0.416c0.227,0.227,0.421,0.421,0.695,0.694
	c0.386-0.044,0.839-0.096,1.318-0.15c0-0.348,0-0.613,0-0.929c-0.071-0.057-0.181-0.211-0.306-0.224
	c-0.55-0.055-1.045-0.307-1.581-0.421c-0.755-0.163-1.503-0.542-1.94-1.462c0-0.178,0.006-0.511-0.001-0.844
	c-0.012-0.731,0.353-1.193,0.989-1.521c0.423-0.219,0.841-0.371,1.32-0.361c0.52,0.01,1.042-0.027,1.559,0.012
	c0.591,0.043,1.159,0.292,1.514,0.729c0.301,0.369,0.655,0.835,0.453,1.441c-0.689,0-1.383,0-2.143,0
	c-0.006-0.126-0.013-0.271-0.02-0.435c-0.297-0.35-0.691-0.496-1.161-0.458c-0.15,0.185-0.301,0.369-0.495,0.609
	c0.114,0.124,0.272,0.296,0.422,0.459c0.898,0.114,1.746,0.37,2.562,0.719c0.715,0.305,1.113,0.835,1.069,1.648
	c-0.018,0.335-0.003,0.674-0.003,1.181c-0.023,0.015-0.216,0.062-0.275,0.176c-0.486,0.951-1.395,1.125-2.31,1.264
	c-0.359,0.055-0.734-0.01-1.101,0.014c-0.607,0.038-1.174-0.148-1.631-0.483c-0.461-0.34-0.933-0.747-0.945-1.436
	C14.578,67.459,14.426,67.283,14.293,66.999z"/>
<path fill="#333333" d="M8.652,69.346c-0.773,0-1.529,0-2.271,0c0.897-2.389,1.788-4.76,2.678-7.125c0.828,0,1.585,0,2.385,0
	c0.863,2.259,1.733,4.53,2.595,6.803c0.03,0.078,0.003,0.179,0.003,0.308c-0.706,0-1.399,0-2.197,0
	c-0.123-0.292-0.274-0.653-0.436-1.042c-0.742,0-1.499,0-2.333,0C8.942,68.624,8.795,68.991,8.652,69.346z M10.943,66.591
	c-0.125-0.416-0.233-0.766-0.336-1.117c-0.106-0.353-0.208-0.705-0.359-1.223c-0.21,0.639-0.387,1.138-0.534,1.643
	c-0.063,0.215-0.065,0.446-0.1,0.697C10.068,66.591,10.456,66.591,10.943,66.591z"/>
<path fill="#333333" d="M21.412,64.07c0-0.605,0-1.115,0-1.567c0.178-0.378,0.475-0.3,0.74-0.302c1.985-0.001,3.971,0,6,0
	c0,0.594,0,1.188,0,1.813c-0.687,0-1.381,0-2.135,0c0,1.785,0,3.542,0,5.325c-0.813,0-1.569,0-2.385,0c0-1.727,0-3.483,0-5.27
	C22.878,64.07,22.184,64.07,21.412,64.07z"/>
<path fill="#333333" d="M72.648,69.355c-1.892,0-3.748,0-5.638,0c0-2.362,0-4.708,0-7.134c0.319-0.006,0.672-0.017,1.024-0.021
	c0.363-0.003,0.727,0,1.12,0c0,1.823,0,3.621,0,5.382c0.052,0.056,0.067,0.081,0.092,0.1c0.021,0.017,0.053,0.031,0.078,0.031
	c1.097,0.002,2.194,0.002,3.322,0.002C72.648,68.253,72.648,68.766,72.648,69.355z"/>
<path fill="#333333" d="M63.398,62.217c0.601,0,1.234,0,1.813,0c0.365,0.175,0.298,0.468,0.298,0.735c0.001,1.984,0,3.97,0,5.954
	c0,0.121,0,0.244,0,0.42c-0.374,0.086-0.764,0.03-1.147,0.041c-0.395,0.009-0.786,0.002-1.243,0.002c0-0.814,0-1.6,0-2.386
	c0-1.372,0.004-2.748-0.003-4.122C63.116,62.611,63.113,62.375,63.398,62.217z"/>
<path fill="#333333" d="M64.255,73.474c0.099-0.098,0.163-0.163,0.244-0.242c0.533,0,1.082-0.029,1.63,0.008
	c0.496,0.032,0.987,0.135,1.574,0.221c0.154,0.212,0.362,0.497,0.564,0.773c0,0.312,0,0.619,0,0.791
	c-0.189,0.639-0.597,0.882-1.048,1.003c0.496,0.677,0.988,1.352,1.549,2.12c-0.456,0-0.781,0-1.234,0
	c-0.464-0.61-0.999-1.311-1.503-1.974c-0.255,0-0.438,0-0.685,0c0,0.657,0,1.315,0,1.994c-0.331,0-0.597,0-0.871,0
	c-0.059-0.058-0.124-0.122-0.221-0.219C64.255,76.489,64.255,74.999,64.255,73.474z M65.341,75.224c0.588,0,1.096,0,1.587,0
	c0.338-0.553,0.334-0.6-0.028-1.044c-0.534,0-1.04,0-1.558,0C65.341,74.539,65.341,74.865,65.341,75.224z"/>
<path fill="#333333" d="M62.491,76.101c0.445,0.604,0.931,1.26,1.485,2.012c-0.268,0.037-0.427,0.067-0.587,0.076
	c-0.183,0.012-0.366,0.004-0.608,0.004c-0.496-0.657-1.012-1.338-1.514-2.004c-0.254,0-0.459,0-0.696,0c0,0.65,0,1.284,0,1.913
	c-0.715,0.142-0.715,0.134-1.108-0.163c0-1.477,0-2.968,0-4.536c1.067-0.44,2.145-0.043,3.035,0.022
	c1.042,0.272,1.013,0.975,0.983,1.751C63.184,75.456,62.844,75.772,62.491,76.101z M62.362,74.4c-0.558-0.4-1.178-0.208-1.771-0.256
	c0,0.413,0,0.758,0,1.083c0.553,0,1.061,0,1.533,0C62.452,74.993,62.407,74.697,62.362,74.4z"/>
<path fill="#333333" d="M84.569,78.17c-0.501,0-0.829,0-1.217,0c-0.493-0.654-1.007-1.335-1.487-1.974c-0.281,0-0.487,0-0.722,0
	c0,0.66,0,1.294,0,2.01c-0.397-0.079-0.806,0.17-1.111-0.3c0-1.344-0.006-2.719,0.007-4.093c0.003-0.188,0.099-0.377,0.154-0.585
	c0.649,0,1.228-0.026,1.803,0.009c0.431,0.027,0.866,0.106,1.285,0.219c0.377,0.102,0.666,0.349,0.747,0.782
	c0.057,0.968-0.159,1.346-1,1.793C83.511,76.703,83.997,77.377,84.569,78.17z M81.153,75.22c0.549,0,1.078,0,1.588,0
	c0.21-0.356,0.21-0.356,0.193-0.836c-0.564-0.37-1.179-0.205-1.78-0.235C81.153,74.546,81.153,74.873,81.153,75.22z"/>
<path fill="#333333" d="M25.633,78.174c-0.404,0-0.732,0-1.037,0c-0.477-0.693-0.938-1.364-1.375-2.001c-0.259,0-0.443,0-0.685,0
	c-0.093,0.583,0.003,1.186-0.056,1.766c-0.489,0.333-0.521,0.334-1.054,0.022c0-1.472,0-2.963,0-4.49
	c0.054-0.052,0.141-0.138,0.249-0.242c0.526,0,1.075,0.009,1.624-0.002c0.447-0.01,0.842,0.312,1.302,0.187
	c0.167,0.24,0.547,0.173,0.666,0.53c0.209,0.634,0.261,1.048-0.029,1.402c-0.239,0.291-0.551,0.525-0.83,0.784
	C24.986,76.74,25.559,77.655,25.633,78.174z M22.526,74.163c0,0.406,0,0.731,0,1.07c0.534,0,1.041,0,1.62,0
	c0.076-0.174,0.164-0.378,0.182-0.419c-0.2-0.316-0.329-0.519-0.412-0.651C23.397,74.163,22.978,74.163,22.526,74.163z"/>
<path fill="#333333" d="M47.28,73.248c0.363,0,0.629,0,0.923,0c0,1.632,0,3.246,0,4.902c-0.325,0-0.674,0-1.052,0
	c-0.574-0.963-1.155-1.937-1.825-3.058c0,1.119,0,2.059,0,3.063c-0.317,0.015-0.604,0.028-0.924,0.045c0-1.652,0-3.266,0-4.924
	c0.231,0,0.494,0,0.889,0c0.586,0.908,1.233,1.913,1.989,3.084C47.28,75.205,47.28,74.263,47.28,73.248z"/>
<path fill="#333333" d="M11.5,73.244c0.273,0,0.515,0,0.87,0c0.606,0.941,1.253,1.946,2.006,3.115c0-1.152,0-2.091,0-3.025
	c0.55-0.098,0.55-0.098,0.928,0.137c0,1.537,0,3.088,0,4.682c-0.307,0-0.633,0-1.047,0c-0.554-0.925-1.15-1.916-1.834-3.057
	c0,1.118,0,2.058,0,3.061c-0.315,0.017-0.602,0.028-0.922,0.043C11.5,76.548,11.5,74.935,11.5,73.244z"/>
<path fill="#333333" d="M42.802,73.438c0.213,0.213,0.428,0.429,0.647,0.647c0,0.414,0,0.841,0,1.309
	c-0.291,0.215-0.597,0.44-0.876,0.646c0.441,0.677,0.877,1.342,1.379,2.11c-0.447,0.022-0.769,0.039-1.139,0.059
	c-0.527-0.681-1.066-1.375-1.576-2.035c-0.26,0-0.441,0-0.688,0c-0.091,0.643,0.006,1.307-0.055,1.988c-0.273,0-0.541,0-0.854,0
	c0-1.601,0-3.235,0-4.933c0.522,0,1.068-0.026,1.607,0.009C41.77,73.272,42.291,73.371,42.802,73.438z M41.965,74.176
	c-0.404,0-0.912,0-1.412,0c0,0.375,0,0.722,0,1.055c0.609,0,1.177,0,1.732,0c0.09-0.198,0.172-0.376,0.278-0.61
	C42.389,74.492,42.198,74.349,41.965,74.176z"/>
<path fill="#333333" d="M19.665,78.038c-0.49,0.057-0.923,0.138-1.358,0.149c-1.406,0.038-2.162-0.841-2.23-2.206
	c-0.019-0.373-0.012-0.748,0.09-1.145c0.167-0.651,0.625-1.059,1.087-1.362c0.505-0.33,1.219-0.385,1.805-0.211
	c0.408,0.121,0.928,0.285,1.15,0.729c0.201,0.398,0.501,0.768,0.463,1.276c-0.04,0.515-0.01,1.035-0.01,1.63
	C20.364,77.237,20.033,77.616,19.665,78.038z M17.159,76.441c0.217,0.298,0.422,0.579,0.606,0.83c0.424,0,0.788,0,1.121,0
	c0.237-0.226,0.457-0.435,0.642-0.61c0.078-0.353,0.198-0.659,0.198-0.967s-0.123-0.614-0.173-0.837
	c-0.248-0.277-0.449-0.502-0.625-0.702c-0.345,0-0.647,0-0.882,0C16.833,74.621,17.255,75.625,17.159,76.441z"/>
<path fill="#333333" d="M78.286,78.046c-0.66,0.068-1.308,0.135-1.986,0.205c-0.35-0.294-0.659-0.614-1.026-0.85
	c-0.37-0.238-0.293-0.697-0.571-0.964c-0.089-1.154,0.141-2.189,1.111-2.933c0.176-0.133,0.408-0.227,0.625-0.258
	c0.999-0.146,1.896,0.069,2.549,0.888c0.168,0.208,0.35,0.461,0.317,0.787c-0.021,0.198-0.062,0.411,0.138,0.591
	c0.068,0.063,0.021,0.277-0.003,0.418c-0.03,0.166-0.138,0.327-0.135,0.49c0.008,0.414-0.16,0.733-0.443,1.015
	C78.667,77.628,78.485,77.835,78.286,78.046z M75.804,74.896c0,0.355,0.019,0.632-0.003,0.902c-0.054,0.681,0.146,1.206,0.959,1.472
	c0.169,0,0.474,0,0.833,0c0.254-0.31,0.533-0.648,0.702-0.854c0.239-1.031-0.015-1.744-0.791-2.267c-0.267,0-0.571,0-0.953,0
	C76.315,74.387,76.038,74.662,75.804,74.896z"/>
<path fill="#333333" d="M55.065,73.473c0.092-0.092,0.156-0.156,0.225-0.224c1.06,0,2.121,0,3.152,0
	c0.342,0.226,0.283,0.53,0.238,0.893c-0.83,0-1.67,0-2.526,0c0,0.391,0,0.72,0,1.078c0.765,0,1.521,0,2.34,0
	c0.014,0.255,0.024,0.481,0.038,0.741c-0.796,0-1.553,0-2.352,0c0,0.439,0,0.849,0,1.292c0.812,0,1.632,0,2.489,0
	c0,0.318,0,0.606,0,0.917c-1.131,0-2.254,0-3.382,0c-0.061-0.06-0.125-0.124-0.222-0.221C55.065,76.493,55.065,75.002,55.065,73.473
	z"/>
<path fill="#333333" d="M30.418,78.16c0-1.646,0-3.258,0-4.901c0.28,0,0.548,0,0.881,0c0,0.629,0,1.286,0,1.968
	c0.636,0,1.208,0,1.845,0c0-0.641,0-1.298,0-1.976c0.33,0,0.597,0,0.863,0c0.065,0.064,0.131,0.13,0.225,0.224
	c0,1.461,0,2.952,0,4.472c-0.059,0.059-0.144,0.145-0.221,0.223c-0.277,0-0.544,0-0.84,0c0-0.721,0-1.417,0-2.147
	c-0.625,0-1.22,0-1.846,0c0,0.716,0,1.412,0,2.139C31.03,78.16,30.762,78.16,30.418,78.16z"/>
<path fill="#333333" d="M36.118,74.118c0,0.362,0,0.629,0,0.878c0.084,0.082,0.149,0.147,0.257,0.256c0.316,0,0.677,0,1.04,0
	c0.333,0,0.668,0,1.038,0c0,0.245,0,0.472,0,0.731c-0.776,0-1.532,0-2.32,0c0,0.416,0,0.807,0,1.262
	c0.406,0.067,0.857,0.019,1.305,0.026c0.454,0.009,0.909,0.002,1.391,0.002c0,0.239,0,0.445,0,0.673
	c-0.065,0.064-0.152,0.151-0.221,0.22c-1.141,0-2.265,0-3.407,0c0-1.639,0-3.251,0-4.901c1.147,0,2.291,0,3.455,0
	c0,0.288,0,0.555,0,0.852C37.829,74.118,37.011,74.118,36.118,74.118z"/>
<path fill="#333333" d="M86.998,75.919c0,0.702,0,1.368,0,2.016c-0.084,0.084-0.148,0.149-0.235,0.235c-0.242,0-0.508,0-0.85,0
	c0-0.502-0.014-1.014,0.007-1.521c0.016-0.432-0.101-0.78-0.367-1.137c-0.462-0.617-0.903-1.254-1.238-1.955
	c-0.035-0.073-0.045-0.16-0.078-0.288c0.38,0,0.729,0,1.113,0c0.334,0.582,0.676,1.172,1.062,1.836
	c0.409-0.632,0.811-1.252,1.198-1.853c0.359,0,0.686,0,1.018,0C88.548,73.624,87.509,75.329,86.998,75.919z"/>
<path fill="#333333" d="M27.309,74.142c-0.548,0-0.998,0-1.476,0c0-0.236,0-0.443,0-0.664c0.07-0.071,0.157-0.156,0.247-0.246
	c1.161,0,2.324,0,3.552,0c0.013,0.281,0.026,0.567,0.041,0.89c-0.427,0-0.816,0-1.293,0c0,0.969,0,1.908,0,2.847
	c0,0.276,0.023,0.554-0.01,0.825c-0.016,0.132-0.135,0.251-0.21,0.381c-0.285,0-0.551,0-0.851,0
	C27.309,76.859,27.309,75.549,27.309,74.142z"/>
<path fill="#333333" d="M54.448,74.155c-0.421,0-0.811,0-1.133,0c-0.331,0.174-0.307,0.421-0.306,0.669
	c0.004,1.1,0.001,2.2,0.001,3.334c-0.309,0-0.597,0-0.919,0c0-1.333,0-2.641,0-3.982c-0.481,0-0.934,0-1.396,0
	c-0.121-0.356-0.148-0.662,0.188-0.928c1.162,0,2.348,0,3.564,0C54.448,73.521,54.448,73.788,54.448,74.155z"/>
<path fill="#333333" d="M73.053,78.172c-0.325,0-0.591,0-0.915,0c0-1.328,0-2.654,0-4.01c-0.507,0-0.956,0-1.443,0
	c0-0.316,0-0.604,0-0.913c1.196,0,2.379,0,3.567,0c0.079,0.08,0.165,0.166,0.253,0.254c0,0.182,0,0.363,0,0.608
	c-0.464,0-0.936,0-1.462,0C73.053,75.5,73.053,76.83,73.053,78.172z"/>
<path fill="#333333" d="M70.081,78.177c-0.3,0-0.565,0-0.805,0c-0.276-0.156-0.279-0.389-0.278-0.643
	c0.009-1.34,0.004-2.682,0.004-4.033c0.083-0.077,0.172-0.158,0.272-0.251c0.248,0,0.514,0,0.807,0
	C70.081,74.876,70.081,76.484,70.081,78.177z"/>
</svg>
