<?xml version="1.0" encoding="utf-8"?>
<!-- Generator: Adobe Illustrator 16.0.0, SVG Export Plug-In . SVG Version: 6.00 Build 0)  -->
<!DOCTYPE svg PUBLIC "-//W3C//DTD SVG 1.1//EN" "http://www.w3.org/Graphics/SVG/1.1/DTD/svg11.dtd">
<svg version="1.1" id="Layer_1" xmlns="http://www.w3.org/2000/svg" xmlns:xlink="http://www.w3.org/1999/xlink" x="0px" y="0px"
	 width="126.841px" height="80px" viewBox="-13.421 -8.466 126.841 80" enable-background="new -13.421 -8.466 126.841 80"
	 xml:space="preserve">
<path fill="#333333" d="M-13.282,43.016c0-10.768,0-21.438,0-31.876c4.226,4.214,8.554,8.529,13.141,13.105
	c0,5.922,0,12.314,0,18.771C-4.532,43.016-8.834,43.016-13.282,43.016z"/>
<path fill="#333333" d="M13.155,10.664c0.183,0.144,0.382,0.272,0.546,0.436c4.077,4.078,8.15,8.159,12.223,12.242
	c0.142,0.141,0.272,0.295,0.417,0.454c0,6.375,0,12.738,0,19.198c-4.374,0-8.696,0-13.174,0c0-10.795,0-21.573,0-32.35
	L13.155,10.664z"/>
<path fill="#333333" d="M13.167,10.644c-0.325,0.292-0.665,0.568-0.974,0.877c-3.746,3.742-7.486,7.49-11.231,11.232
	c-0.25,0.25-0.513,0.488-0.931,0.883c0-10.835,0-21.426,0-32.102c4.377,0,8.669,0,13.122,0c0,6.41,0,12.767,0,19.128L13.167,10.644z
	"/>
<path fill="#333333" d="M40.01,16.146c-0.933,0-1.796,0-2.777,0c-0.865-3.065-1.728-6.123-2.592-9.182
	c-0.059,0.009-0.118,0.019-0.176,0.027c0,3.008,0,6.015,0,9.122c-0.96,0-1.841,0-2.796,0c0-4.206,0-8.37,0-12.616
	c1.525,0,3.024,0,4.656,0c0.751,2.645,1.511,5.319,2.271,7.992c0.082,0.015,0.163,0.028,0.244,0.043
	c0.796-2.664,1.593-5.329,2.405-8.042c1.487,0,2.92,0,4.442,0c0,4.184,0,8.344,0,12.615c-0.869,0-1.746,0-2.716,0
	c0-3.045,0-6.065,0-9.083c-0.08-0.017-0.163-0.035-0.242-0.051C41.827,10.014,40.924,13.06,40.01,16.146z"/>
<path fill="#333333" d="M68.513,32.375c0-4.308,0-8.474,0-12.777c2.474,0.041,4.934-0.32,7.316,0.497
	c1.821,0.625,2.911,1.971,3.132,3.866c0.144,1.253,0.158,2.555,0.001,3.805c-0.278,2.224-1.616,3.644-3.771,4.264
	C73.008,32.656,70.788,32.257,68.513,32.375z M71.525,29.843c1.616,0.091,3.047,0.02,3.97-1.406
	c0.857-1.324,0.786-3.775-0.092-5.019c-0.771-1.091-2.18-1.505-3.878-1.101C71.525,24.772,71.525,27.245,71.525,29.843z"/>
<path fill="#333333" d="M31.683,19.599c1.922,0,3.744-0.093,5.555,0.022c2.435,0.155,3.758,2.04,3.021,4.286
	c-0.236,0.717-0.865,1.304-1.354,2.008c-0.047-0.058-0.001,0.042,0.076,0.086c1.474,0.857,1.92,1.697,1.711,3.298
	c-0.196,1.498-1.033,2.469-2.493,2.833c-0.612,0.153-1.261,0.21-1.896,0.222c-1.511,0.03-3.023,0.01-4.619,0.01
	C31.683,28.089,31.683,23.903,31.683,19.599z M34.693,26.991c0,1.057,0,1.943,0,2.88c1.033,0.077,2.083,0.326,2.733-0.592
	c0.261-0.366,0.283-1.188,0.043-1.568C36.832,26.698,35.73,27.017,34.693,26.991z M34.67,24.587
	c1.033,0.068,1.971,0.212,2.588-0.696c0.317-0.468,0.273-1.017-0.13-1.397c-0.714-0.677-1.588-0.497-2.458-0.417
	C34.67,22.961,34.67,23.726,34.67,24.587z"/>
<path fill="#333333" d="M89.007,3.516c2.099,0,4.117-0.111,6.118,0.036c1.594,0.118,2.455,1.047,2.716,2.423
	c0.318,1.677-0.218,2.908-1.637,3.767c-0.058,0.035-0.102,0.087-0.151,0.131c1.312,1.847,1.548,4.088,2.396,6.25
	c-1.084,0-2.035,0-3.106,0c-0.159-0.512-0.332-1.079-0.512-1.646c-0.223-0.705-0.407-1.427-0.686-2.11
	c-0.425-1.046-0.889-1.256-2.184-1.022c0,1.541,0,3.109,0,4.773c-1.037,0-1.953,0-2.953,0C89.007,11.92,89.007,7.761,89.007,3.516z
	 M92.039,5.867c0,0.948,0,1.857,0,2.844C93,8.755,94.016,8.976,94.647,8.087c0.248-0.35,0.278-1.127,0.051-1.485
	C94.11,5.676,93.074,5.852,92.039,5.867z"/>
<path fill="#333333" d="M100.252,32.301c-1.144,0-2.104,0-3.092,0c-0.4-1.27-0.746-2.5-1.184-3.696
	c-0.408-1.117-0.941-1.371-2.188-1.143c0,1.552,0,3.124,0,4.801c-1.039,0-1.983,0-2.994,0c0-4.202,0-8.365,0-12.685
	c0.53,0,1.023,0,1.516,0c1.35,0.001,2.7-0.046,4.047,0.019c2.567,0.122,3.886,1.99,3.21,4.468c-0.227,0.833-0.581,1.249-1.67,1.95
	C99.124,27.899,99.432,30.114,100.252,32.301z M93.82,24.879c1.048-0.063,2.11,0.297,2.685-0.717
	c0.214-0.379,0.189-1.155-0.065-1.485c-0.645-0.84-1.635-0.729-2.619-0.577C93.82,23.016,93.82,23.877,93.82,24.879z"/>
<path fill="#333333" d="M54.858,3.487c1.423,4.213,2.832,8.382,4.277,12.658c-1.139,0-2.135,0-3.237,0
	c-0.284-0.847-0.569-1.698-0.87-2.591c-1.388,0-2.76,0-4.189,0c-0.303,0.866-0.598,1.716-0.903,2.59c-0.981,0-1.908,0-3.015,0
	c1.433-4.284,2.825-8.448,4.232-12.657C52.386,3.487,53.553,3.487,54.858,3.487z M54.322,11.025
	c-0.442-1.632-0.847-3.119-1.251-4.608C53,6.426,52.931,6.433,52.859,6.442c-0.43,1.495-0.86,2.989-1.319,4.584
	C52.555,11.025,53.352,11.025,54.322,11.025z"/>
<path fill="#333333" d="M49.165,19.638c1.026,0,1.888,0,2.807,0c0.053,0.238,0.142,0.457,0.142,0.676
	c0.005,2.562,0.047,5.124-0.02,7.684c-0.064,2.387-1.204,3.956-3.286,4.382c-1.026,0.211-2.162,0.201-3.194,0.005
	c-1.902-0.362-3.085-1.711-3.19-3.577c-0.17-3.014-0.045-6.044-0.045-9.149c0.917,0,1.809,0,2.823,0
	c0.03,0.368,0.086,0.753,0.087,1.139c0.01,2.022-0.008,4.044,0.015,6.066c0.008,0.602,0.054,1.217,0.197,1.797
	c0.231,0.934,0.889,1.425,1.725,1.419c0.83-0.006,1.48-0.514,1.704-1.453c0.146-0.617,0.214-1.265,0.223-1.9
	c0.028-1.955,0.011-3.91,0.011-5.864C49.165,20.498,49.165,20.13,49.165,19.638z"/>
<path fill="#333333" d="M110.518,49.925c-0.102,0.064-0.204,0.185-0.307,0.185c-41.069,0.009-82.14,0.009-123.21,0.002
	c-0.103,0-0.204-0.122-0.422-0.259c0.264-0.134,0.413-0.267,0.574-0.285c0.333-0.039,0.673-0.023,1.011-0.023
	c40.295,0,80.59-0.002,120.886,0.002c0.48,0,0.959,0.055,1.439,0.083C110.498,49.73,110.508,49.827,110.518,49.925z"/>
<path fill="#333333" d="M88.478,24.655c0,0.87,0,1.566,0,2.396c-1.52,0-2.986,0-4.522,0c0,0.988,0,1.846,0,2.869
	c1.652,0,3.28,0,4.988,0c0,0.882,0,1.601,0,2.385c-2.679,0-5.295,0-7.98,0c0-4.25,0-8.446,0-12.665c2.637,0,5.188,0,7.813,0
	c0,0.78,0,1.501,0,2.352c-1.614,0-3.181,0-4.821,0c0,0.917,0,1.705,0,2.663C85.481,24.655,86.971,24.655,88.478,24.655z"/>
<path fill="#333333" d="M86.655,10.888c-1.53,0-2.968,0-4.496,0c0,0.997,0,1.883,0,2.937c1.665,0,3.295,0,4.992,0
	c0,0.857,0,1.547,0,2.315c-2.646,0-5.252,0-7.952,0c0-4.229,0-8.389,0-12.637c2.572,0,5.115,0,7.753,0c0,0.732,0,1.449,0,2.314
	c-1.586,0-3.15,0-4.795,0c0,0.933,0,1.717,0,2.656c1.507,0,2.97,0,4.498,0C86.655,9.319,86.655,10.011,86.655,10.888z"/>
<path fill="#333333" d="M60.128,15.804c0.089-0.868,0.177-1.697,0.27-2.58c0.667,0.203,1.262,0.457,1.881,0.553
	c0.657,0.099,1.343,0.106,2.004,0.048c0.538-0.047,1.03-0.403,0.981-0.971c-0.039-0.441-0.285-1.017-0.63-1.245
	c-0.632-0.421-1.399-0.644-2.119-0.925c-2.062-0.805-2.915-2.466-2.363-4.612c0.248-0.97,0.818-1.676,1.685-2.167
	c1.177-0.666,3.784-1.092,5.979-0.11c-0.066,0.748-0.137,1.537-0.205,2.316c-0.933-0.119-1.784-0.248-2.643-0.324
	c-0.327-0.027-0.725-0.026-0.982,0.135c-0.332,0.209-0.741,0.574-0.772,0.904c-0.03,0.33,0.281,0.837,0.589,1.022
	c0.597,0.358,1.293,0.559,1.957,0.799c1.915,0.689,2.753,1.866,2.68,3.794c-0.076,1.955-1.071,3.226-2.935,3.751
	C63.931,16.634,61.681,16.491,60.128,15.804z"/>
<path fill="#333333" d="M108.999,19.835c-0.039,0.871-0.076,1.66-0.112,2.452c-0.938-0.129-1.758-0.275-2.585-0.339
	c-0.393-0.031-0.848-0.005-1.182,0.169c-0.316,0.166-0.679,0.545-0.714,0.862c-0.032,0.314,0.235,0.809,0.518,0.978
	c0.6,0.358,1.291,0.571,1.954,0.815c2.063,0.755,2.905,1.937,2.775,3.918c-0.141,2.104-1.177,3.336-3.306,3.747
	c-1.609,0.312-3.22,0.203-4.939-0.388c0.064-0.865,0.129-1.748,0.196-2.652c0.842,0.23,1.543,0.468,2.262,0.599
	c0.488,0.089,1.011,0.079,1.504,0.016c0.553-0.072,1.056-0.299,1.146-0.957c0.089-0.65-0.183-1.128-0.771-1.392
	c-0.644-0.289-1.305-0.544-1.964-0.8c-2.131-0.825-2.995-2.6-2.35-4.795c0.238-0.816,0.712-1.459,1.442-1.874
	C104.827,19.084,106.849,19.211,108.999,19.835z"/>
<path fill="#333333" d="M69.468,5.996c0-0.902,0-1.656,0-2.496c2.785,0,5.529,0,8.371,0c0,0.767,0,1.52,0,2.414
	c-0.821,0.041-1.676,0.083-2.663,0.133c0,3.338,0,6.652,0,10.067c-1.051,0-1.968,0-3.029,0c0-3.34,0-6.656,0-10.118
	C71.188,5.996,70.367,5.996,69.468,5.996z"/>
<path fill="#333333" d="M67.02,29.843c0,0.915,0,1.637,0,2.444c-2.498,0-4.935,0-7.452,0c0-4.213,0-8.375,0-12.621
	c0.911,0,1.798,0,2.854,0c0,3.362,0,6.71,0,10.177C64.015,29.843,65.449,29.843,67.02,29.843z"/>
<path fill="#333333" d="M54.318,32.465c0-4.301,0-8.505,0-12.797c0.952,0,1.875,0,2.898,0c0,4.222,0,8.473,0,12.797
	C56.28,32.465,55.358,32.465,54.318,32.465z"/>
<path fill="#333333" d="M108.521,60.794c0.327-0.138,0.608-0.258,1.107-0.471c-0.111,1.147-0.186,2.073-0.293,2.993
	c-0.198,1.705-0.396,3.409-0.628,5.11c-0.319,2.335-1.511,3.29-3.878,3.079c-0.758-0.068-1.503-0.271-2.353-0.43
	c0.051-0.479,0.088-0.817,0.124-1.161c0.821,0.196,1.521,0.442,2.241,0.521c1.979,0.213,2.846-0.729,2.595-2.865
	c-0.418,0.101-0.824,0.217-1.237,0.293c-1.81,0.335-3.114-0.648-3.126-2.464c-0.005-0.927,0.09-1.896,0.358-2.778
	c0.627-2.064,2.486-2.886,4.498-2.1C108.148,60.606,108.356,60.717,108.521,60.794z M108.315,61.805
	c-1.726-0.875-3.23-0.598-3.663,0.773c-0.303,0.968-0.329,2.04-0.36,3.07c-0.02,0.635,0.434,1.058,1.087,1.126
	c0.805,0.083,1.611,0.088,2.367-0.454c0.102-0.743,0.213-1.507,0.31-2.271C108.148,63.319,108.227,62.585,108.315,61.805z"/>
<path fill="#333333" d="M36.004,67.722c-0.421,0-0.715,0-1.139,0c0.218-2.031,0.432-4.014,0.635-5.901
	c-1.055-0.666-1.753-0.649-3.011-0.022c-0.238,1.925-0.477,3.861-0.727,5.878c-0.37,0-0.713,0-1.14,0
	c0.215-1.994,0.427-3.954,0.635-5.876c-1.087-0.814-2.015-0.432-2.992-0.066c-0.257,2.01-0.507,3.972-0.763,5.975
	c-0.398,0-0.718,0-1.154,0c0.293-2.424,0.578-4.782,0.884-7.309c0.413,0.135,0.725,0.238,1.073,0.352
	c1.285-0.566,2.605-0.829,3.75,0.08c0.932-0.203,1.74-0.497,2.559-0.533c1.442-0.062,2.151,0.688,2.028,2.122
	C36.492,64.164,36.23,65.896,36.004,67.722z"/>
<path fill="#333333" d="M90.414,67.879c-0.45-0.197-0.729-0.322-1.009-0.447c0.011,0.05,0.021,0.1,0.027,0.147
	c-0.983,0.077-1.973,0.249-2.95,0.197c-0.882-0.047-1.447-0.678-1.655-1.545c-0.396-1.65-0.141-3.225,0.736-4.659
	c0.686-1.122,2.072-1.56,3.48-1.212c0.319,0.079,0.634,0.169,1.033,0.278c0.176-1.252,0.345-2.445,0.522-3.725
	c0.349,0,0.687,0,1.149,0C91.311,60.524,90.877,64.078,90.414,67.879z M89.959,61.788c-2.284-1.029-3.541-0.421-3.979,1.833
	c-0.12,0.618-0.125,1.273-0.092,1.907c0.029,0.614,0.349,1.124,1.005,1.225c0.867,0.131,1.736,0.123,2.53-0.453
	C89.604,64.797,89.779,63.305,89.959,61.788z"/>
<path fill="#333333" d="M64.232,56.87c0.45,0,0.743,0,1.153,0c-0.135,1.244-0.264,2.43-0.399,3.675
	c0.768-0.097,1.447-0.252,2.128-0.254c1.417-0.005,2.312,0.799,2.36,2.217c0.031,0.965-0.032,1.97-0.279,2.896
	c-0.57,2.148-2.408,3.013-4.504,2.235c-0.22-0.08-0.433-0.18-0.631-0.261c-0.311,0.148-0.595,0.284-0.878,0.42
	c-0.085-0.039-0.173-0.077-0.258-0.114C63.358,64.104,63.792,60.524,64.232,56.87z M64.27,66.342c2.102,1.099,3.58,0.407,3.964-1.75
	c0.048-0.266,0.069-0.534,0.101-0.801c0.241-2.078-0.627-2.844-2.645-2.328c-0.285,0.071-0.555,0.186-0.867,0.293
	C64.632,63.335,64.448,64.861,64.27,66.342z"/>
<path fill="#333333" d="M-4.146,56.878c0.375-0.018,0.664-0.029,1.118-0.052c-0.136,1.293-0.264,2.505-0.389,3.7
	c0.846-0.087,1.605-0.243,2.36-0.226c1.087,0.025,1.846,0.68,1.782,1.668c-0.121,1.909-0.399,3.805-0.616,5.741
	c-0.406,0-0.696,0-1.151,0c0.213-2.021,0.421-4.001,0.62-5.88c-1.077-0.686-1.883-0.666-3.163-0.005
	c-0.246,1.914-0.5,3.875-0.755,5.869c-0.391,0-0.707,0-1.133,0C-5.025,64.057-4.589,60.495-4.146,56.878z"/>
<path fill="#333333" d="M13.563,60.519c0.881-0.087,1.648-0.243,2.405-0.216c1.134,0.041,1.833,0.734,1.75,1.804
	c-0.141,1.841-0.404,3.673-0.624,5.575c-0.391,0-0.699,0-1.139,0c0.207-2.028,0.408-4.007,0.601-5.894
	c-1.112-0.631-1.74-0.618-3.146-0.005c-0.243,1.902-0.495,3.862-0.759,5.916c-0.344,0.019-0.655,0.036-1.136,0.063
	c0.446-3.669,0.879-7.223,1.323-10.868c0.361-0.024,0.673-0.044,1.131-0.075C13.828,58.106,13.699,59.29,13.563,60.519z"/>
<path fill="#333333" d="M100.559,41.147c0-1.699,0-3.197,0-4.757c0.362,0,0.652,0,1.021,0c0,2.196,0,4.368,0,6.62
	c-0.404,0-0.789,0-1.267,0c-0.911-1.55-1.843-3.136-2.774-4.72c-0.047,0.005-0.095,0.009-0.142,0.014c0,1.555,0,3.11,0,4.718
	c-0.403,0-0.693,0-1.07,0c0-2.195,0-4.363,0-6.643c0.45-0.022,0.87-0.042,1.37-0.067C98.625,37.88,99.543,39.43,100.559,41.147z"/>
<path fill="#333333" d="M36.74,42.781c0.569,0.178,1.007,0.313,1.558,0.486c-0.09,0.289-0.169,0.548-0.279,0.9
	c-1.503-0.447-2.957-0.757-4.31-1.312c-1.637-0.672-2.23-3.009-1.379-4.842c0.719-1.548,2.494-2.243,4.093-1.602
	c2.001,0.802,2.608,4.001,1.073,5.699C37.295,42.332,37.049,42.511,36.74,42.781z M37.052,39.666
	c-0.013-1.424-0.777-2.447-1.844-2.467c-1.087-0.022-1.876,0.951-1.938,2.387c-0.063,1.477,0.777,2.641,1.9,2.632
	C36.262,42.209,37.065,41.12,37.052,39.666z"/>
<path fill="#333333" d="M64.708,36.389c0.481,0,0.902,0,1.426,0c0.884,1.494,1.788,3.021,2.776,4.688c0-1.616,0-3.097,0-4.678
	c0.389-0.021,0.7-0.037,1.088-0.058c0,2.268,0,4.441,0,6.679c-0.44,0-0.826,0-1.289,0c-0.921-1.566-1.851-3.148-2.905-4.946
	c0,1.774,0,3.307,0,4.939c-0.39,0.021-0.701,0.035-1.096,0.058C64.708,40.81,64.708,38.64,64.708,36.389z"/>
<path fill="#333333" d="M54.061,63.289c-0.119,0.65-0.203,1.461-0.422,2.233c-0.589,2.07-2.865,3.073-4.761,2.061
	c-0.452-0.242-0.906-0.776-1.038-1.265c-0.449-1.664-0.161-3.297,0.71-4.766c0.811-1.368,3.358-1.769,4.609-0.795
	C53.937,61.365,53.983,62.253,54.061,63.289z M52.958,63.016c-0.176-0.375-0.295-1.037-0.689-1.391
	c-0.852-0.762-2.636-0.276-2.966,0.822c-0.296,0.981-0.393,2.04-0.441,3.072c-0.017,0.354,0.291,0.858,0.601,1.068
	c1.016,0.688,2.628,0.105,2.986-1.062C52.673,64.792,52.761,64.016,52.958,63.016z"/>
<path fill="#333333" d="M60.949,56.846c-0.062,0.343-0.106,0.599-0.157,0.881c-0.948,0.046-2.029-0.289-2.561,0.757
	c-0.259,0.505-0.238,1.154-0.363,1.855c0.817,0.054,1.499,0.097,2.252,0.145c-0.064,0.322-0.106,0.537-0.158,0.805
	c-0.733,0.034-1.427,0.07-2.191,0.107c-0.416,3.33-0.821,6.59-1.237,9.908c-0.364,0-0.645,0-1.101,0
	c0.386-3.299,0.765-6.545,1.147-9.816c-0.516-0.116-0.89-0.199-1.264-0.285c-0.027-0.09-0.055-0.181-0.079-0.272
	c0.466-0.217,0.929-0.435,1.471-0.687c0.324-1.117,0.044-2.608,1.493-3.251C59.049,56.618,59.93,56.477,60.949,56.846z"/>
<path fill="#333333" d="M25.314,63.501c-0.089,0.461-0.185,1.234-0.39,1.978c-0.573,2.085-2.775,3.068-4.74,2.152
	c-0.665-0.31-1.043-0.837-1.154-1.553c-0.229-1.471-0.057-2.901,0.616-4.228c0.792-1.56,3.214-2.149,4.668-1.175
	C25.216,61.281,25.292,62.227,25.314,63.501z M24.236,63.032c-0.185-0.403-0.297-1.074-0.692-1.412
	c-0.909-0.779-2.676-0.238-3.014,0.924c-0.268,0.924-0.371,1.916-0.394,2.881c-0.009,0.393,0.284,0.939,0.611,1.168
	c0.961,0.669,2.565,0.125,2.94-0.984C23.944,64.853,24.029,64.04,24.236,63.032z"/>
<path fill="#333333" d="M3.216,64.603c-0.103,1.723,0.329,2.233,1.769,2.201c0.729-0.016,1.455-0.142,2.27-0.227
	c-0.039,0.304-0.076,0.582-0.114,0.882c-1.15,0.405-2.252,0.609-3.409,0.334C2.775,67.564,2.19,66.956,2.055,66
	c-0.182-1.285-0.089-2.559,0.421-3.767c0.722-1.714,2.916-2.522,4.585-1.704c0.621,0.305,0.995,0.81,1.034,1.506
	c0.05,0.87-0.257,1.647-1.027,2.047c-0.572,0.299-1.262,0.416-1.914,0.503C4.532,64.668,3.893,64.603,3.216,64.603z M3.302,63.6
	c0.845,0,1.608,0.077,2.351-0.018c1.175-0.147,1.467-0.715,1.104-1.902C5.048,60.79,3.745,61.454,3.302,63.6z"/>
<path fill="#333333" d="M39.17,64.604c-0.164,1.691,0.283,2.209,1.724,2.206c0.369,0,0.741-0.027,1.108-0.069
	c0.329-0.037,0.652-0.108,1.057-0.18c0.019,0.302,0.033,0.552,0.052,0.852c-1.225,0.507-2.429,0.684-3.674,0.315
	c-1.005-0.296-1.533-1.096-1.507-2.049c0.035-1.19,0.159-2.435,0.555-3.546c0.614-1.727,3.012-2.433,4.612-1.531
	c1.276,0.72,1.222,2.737-0.163,3.513c-0.558,0.312-1.271,0.39-1.927,0.474C40.418,64.663,39.811,64.604,39.17,64.604z
	 M42.725,61.676c-0.846-0.496-1.691-0.534-2.494-0.03c-0.662,0.415-0.971,1.062-0.896,1.92c0.835,0,1.639,0.085,2.417-0.023
	C42.725,63.407,43.001,62.824,42.725,61.676z"/>
<path fill="#333333" d="M105.154,43.016c0-2.21,0-4.351,0-6.544c1.323-0.365,2.611-0.365,3.874,0.089
	c1.254,0.452,1.934,1.568,1.918,3.022c-0.015,1.576-0.766,2.786-2.093,3.254C107.687,43.249,106.486,43.294,105.154,43.016z
	 M106.396,42.054c1.353,0.262,2.333-0.082,2.846-0.939c0.533-0.89,0.464-2.434-0.141-3.148c-0.586-0.695-1.632-0.914-2.705-0.538
	C106.396,38.941,106.396,40.473,106.396,42.054z"/>
<path fill="#333333" d="M76.082,67.908c-0.468-0.236-0.743-0.372-1.038-0.52c-0.957,0.425-1.944,0.708-3.02,0.388
	c-0.773-0.23-1.292-0.74-1.234-1.521c0.141-1.906,0.395-3.804,0.607-5.755c0.403,0,0.689,0,1.021,0
	c0.032,0.179,0.102,0.342,0.086,0.496c-0.158,1.438-0.342,2.875-0.493,4.314c-0.045,0.407-0.008,0.823-0.008,1.243
	c1.146,0.405,2.071,0.292,3.053-0.128c0.251-1.95,0.5-3.879,0.763-5.908c0.333-0.031,0.646-0.06,1.165-0.107
	C76.686,62.91,76.399,65.289,76.082,67.908z"/>
<path fill="#333333" d="M100.52,61.658c-1.065-0.609-2.003-0.321-3.004,0.092c-0.256,1.98-0.507,3.938-0.767,5.95
	c-0.38,0-0.696,0-1.157,0c0.296-2.424,0.587-4.801,0.896-7.343c0.427,0.162,0.71,0.271,0.991,0.379
	c-0.011-0.041-0.022-0.08-0.032-0.122c0.887-0.109,1.776-0.32,2.663-0.302c1.06,0.022,1.767,0.742,1.689,1.755
	c-0.139,1.871-0.411,3.731-0.633,5.643c-0.388,0.018-0.678,0.03-1.058,0.046c0-0.448-0.036-0.838,0.008-1.221
	c0.148-1.305,0.342-2.604,0.483-3.909C100.635,62.31,100.549,61.981,100.52,61.658z"/>
<path fill="#333333" d="M-9.79,67.712c-0.418,0-0.711,0-1.131,0c0.392-3.277,0.776-6.493,1.177-9.837c-1.006,0-1.9,0-2.892,0
	c0.039-0.405,0.066-0.684,0.099-1.011c2.345,0,4.623,0,7.002,0c-0.026,0.322-0.051,0.596-0.082,0.982c-0.996,0-1.923,0-2.945,0
	C-8.977,61.18-9.377,64.406-9.79,67.712z"/>
<path fill="#333333" d="M91.311,41.249c-0.71,0-1.372,0-2.101,0c-0.201,0.571-0.398,1.133-0.627,1.779
	c-0.342,0.018-0.692,0.036-1.256,0.065c0.737-2.32,1.432-4.501,2.136-6.719c0.572,0,1.062,0,1.64,0
	c0.711,2.186,1.412,4.343,2.155,6.625c-0.499,0-0.845,0-1.273,0C91.774,42.449,91.547,41.865,91.311,41.249z M91.093,40.172
	c-0.28-0.905-0.532-1.726-0.788-2.546c-0.049,0.006-0.099,0.012-0.148,0.018c-0.23,0.818-0.457,1.634-0.708,2.528
	C90.082,40.172,90.536,40.172,91.093,40.172z"/>
<path fill="#333333" d="M41.517,36.38c0.44,0,0.732,0,1.189,0c0,1.113-0.01,2.182,0.004,3.247c0.006,0.501,0.005,1.017,0.108,1.504
	c0.14,0.657,0.582,1.083,1.281,1.069c0.677-0.012,1.182-0.377,1.269-1.071c0.107-0.862,0.132-1.736,0.162-2.607
	c0.025-0.666,0.005-1.335,0.005-2.098c0.437,0,0.772,0,1.093,0c0,1.641,0.132,3.257-0.041,4.841
	c-0.148,1.354-1.321,2.055-2.746,1.96c-1.324-0.088-2.221-0.866-2.305-2.226C41.446,39.498,41.517,37.99,41.517,36.38z"/>
<path fill="#333333" d="M54.277,42.041c-0.028,0.439-0.043,0.688-0.062,0.987c-1.329,0-2.591,0-3.925,0c0-2.228,0-4.393,0-6.64
	c1.249,0,2.44,0,3.748,0c0.015,0.28,0.03,0.546,0.052,0.944c-0.909,0-1.703,0-2.567,0c0,0.607,0,1.087,0,1.687
	c0.799,0,1.557,0,2.377,0c0.052,0.352,0.087,0.6,0.142,0.964c-0.865,0.051-1.652,0.096-2.515,0.146c0,0.625,0,1.206,0,1.911
	C52.408,42.041,53.268,42.041,54.277,42.041z"/>
<path fill="#333333" d="M58.79,42.067c0.927,0,1.759,0,2.686,0c0.018,0.357,0.027,0.627,0.046,1.024c-0.494,0-0.89,0-1.287,0
	c-0.868,0-1.735,0-2.695,0c0-2.277,0-4.439,0-6.691c1.242,0,2.437,0,3.74,0c0.021,0.257,0.04,0.528,0.072,0.934
	c-0.898,0-1.69,0-2.567,0c0,0.606,0,1.085,0,1.66c0.792,0.038,1.549,0.075,2.342,0.113c0,0.337,0,0.585,0,0.95
	c-0.79,0-1.516,0-2.334,0C58.79,40.749,58.79,41.328,58.79,42.067z"/>
<path fill="#333333" d="M74.471,38.143c0.319,0.271,0.608,0.572,0.947,0.789c0.367,0.231,0.797,0.359,1.177,0.571
	c0.751,0.42,1.091,1.068,0.983,1.933c-0.107,0.879-0.661,1.364-1.46,1.61c-0.938,0.289-1.851,0.225-2.813-0.266
	c0.041-0.275,0.08-0.551,0.122-0.823c0.181-0.018,0.279-0.04,0.374-0.031c0.592,0.06,1.191,0.208,1.771,0.152
	c0.27-0.026,0.661-0.423,0.706-0.698c0.046-0.276-0.198-0.71-0.449-0.899c-0.391-0.298-0.906-0.427-1.348-0.668
	c-0.877-0.481-1.285-1.175-1.145-1.941c0.169-0.902,0.778-1.451,1.628-1.576c0.73-0.108,1.496,0.007,2.386,0.025
	c-0.143,0.502-0.221,0.77-0.3,1.055C76.145,37.35,75.162,36.762,74.471,38.143z"/>
<path fill="#333333" d="M82.917,66.519c0.127,0.405,0.251,0.812,0.391,1.263c-1.312,0.073-1.777-0.396-1.646-1.536
	c0.272-2.336,0.576-4.671,0.872-7.004c0.095-0.764,0.201-1.524,0.31-2.351c0.372,0,0.682,0,1.117,0
	c-0.394,3.262-0.778,6.456-1.164,9.648C82.836,66.532,82.878,66.527,82.917,66.519z"/>
<path fill="#333333" d="M80.875,36.369c0.38,0,0.675,0,1.108,0c0,1.869,0,3.703,0,5.664c0.989,0,1.847,0,2.763,0
	c0.024,0.378,0.039,0.631,0.062,0.973c-1.32,0-2.581,0-3.933,0C80.875,40.827,80.875,38.659,80.875,36.369z"/>
<path fill="#333333" d="M93.233,60.495c0.44,0,0.726,0,1.14,0c-0.239,2.063-0.466,4.051-0.691,6.003
	c0.225,0.454,0.803,0.808,0.243,1.334c-1.138-0.087-1.46-0.336-1.37-1.366C92.728,64.497,92.995,62.54,93.233,60.495z"/>
<path fill="#333333" d="M80.051,60.421c-0.186,1.644-0.344,3.107-0.517,4.57c-0.089,0.751-0.378,1.503,0.229,2.197
	c0.098,0.114-0.036,0.431-0.063,0.649c-1.137-0.052-1.591-0.403-1.501-1.343c0.189-1.973,0.471-3.938,0.722-5.979
	C79.271,60.486,79.557,60.463,80.051,60.421z"/>
<path fill="#333333" d="M112.294,32.771c-0.438,0.006-0.818-0.259-0.896-0.847c-0.071-0.538,0.396-1.007,0.981-1.019
	c0.582-0.01,0.961,0.256,1.034,0.85C113.483,32.315,113.05,32.748,112.294,32.771z"/>
<path fill="#333333" d="M79.783,59.441c-0.381-0.515-0.713-0.773-0.771-1.083c-0.094-0.511,0.29-0.877,0.769-0.784
	c0.292,0.058,0.679,0.466,0.715,0.757C80.529,58.593,80.147,58.908,79.783,59.441z"/>
<path fill="#333333" d="M93.952,59.204c-0.209-0.281-0.525-0.535-0.603-0.849c-0.111-0.461,0.233-0.842,0.67-0.776
	c0.296,0.045,0.699,0.414,0.759,0.7c0.054,0.258-0.29,0.601-0.46,0.905C94.197,59.191,94.074,59.198,93.952,59.204z"/>
</svg>
