<?xml version="1.0" encoding="utf-8"?>
<!-- Generator: Adobe Illustrator 16.0.0, SVG Export Plug-In . SVG Version: 6.00 Build 0)  -->
<!DOCTYPE svg PUBLIC "-//W3C//DTD SVG 1.1//EN" "http://www.w3.org/Graphics/SVG/1.1/DTD/svg11.dtd">
<svg version="1.1" id="Layer_1" xmlns="http://www.w3.org/2000/svg" xmlns:xlink="http://www.w3.org/1999/xlink" x="0px" y="0px"
	 width="75.097px" height="80px" viewBox="12.451 13.265 75.097 80" enable-background="new 12.451 13.265 75.097 80"
	 xml:space="preserve">
<path fill="#333333" d="M56.57,13.265c0,6.884,0,13.768,0,20.651c-0.309,0.258-0.642,0.494-0.925,0.777
	c-4.39,4.379-8.772,8.764-13.155,13.146c0,6.775,0,13.549,0,20.322c-1.265,0.25-8.447,0.319-13.711,0.128
	c0-11.434,0-22.867,0-34.473c4.585,4.583,9.07,9.069,13.711,13.71c0-11.571,0-22.917,0-34.263
	C47.184,13.265,51.877,13.265,56.57,13.265z"/>
<path fill="#333333" d="M87.548,82.728c-0.559,0.479-0.783,1.279-1.768,1.364c-0.534,0.047-0.984,0.32-1.506-0.073
	c-0.168-0.124-0.481-0.056-0.759-0.077c0-0.396,0-0.745,0-1.143c0.137-0.023,0.309-0.111,0.417-0.061
	c0.71,0.33,1.391,0.441,2.056-0.272c-0.229-1.219-1.702-0.87-2.38-1.647c-0.14-0.422-0.29-0.879-0.444-1.345
	c0.092-0.87,0.582-1.425,1.57-1.709c0.69,0,1.56,0,2.464,0c0,0.391,0,0.739,0,1.103c-0.757,0.397-1.771-0.331-2.444,0.56
	c0.366,0.379,0.625,0.847,1.311,0.827c0.395-0.011,1.075,0.689,1.483,1.223C87.548,81.895,87.548,82.312,87.548,82.728z"/>
<path fill="#333333" d="M87.548,93.054c-0.26,0-0.52,0-0.811,0c-0.174-0.382-0.352-0.774-0.551-1.213c-0.836,0-1.705,0-2.552,0
	c-0.152,0.35-0.279,0.719-0.479,1.043c-0.073,0.121-0.315,0.138-0.734,0.301c0.757-1.922,1.421-3.597,2.471-5.291
	c0.409,0.751,0.74,1.382,1.093,2.001c0.535,0.94,0.798,2.031,1.562,2.847C87.548,92.846,87.548,92.951,87.548,93.054z
	 M84.937,89.158c-0.351,0.731-0.617,1.289-0.989,2.065c0.695-0.129,1.223,0.11,1.79-0.202
	C85.465,90.389,85.226,89.832,84.937,89.158z"/>
<path fill="#333333" d="M12.452,87.736c1.129,0.151,2.337-0.329,3.642,0.47c-0.551,0.253-0.916,0.421-1.419,0.65
	c0,1.264,0,2.687,0,4.153c-0.342,0-0.585,0-0.927,0c0-1.387,0-2.811,0-4.335c-0.496,0-0.896,0-1.296,0
	C12.452,88.361,12.452,88.048,12.452,87.736z"/>
<path fill="#333333" d="M56.624,33.637c0.888,0.956,1.58,1.725,2.299,2.469c0.761,0.787,1.545,1.551,2.319,2.326
	c0.812,0.811,1.621,1.622,2.433,2.433c0.774,0.774,1.548,1.548,2.324,2.323c0.774,0.774,1.548,1.549,2.321,2.323
	c0.774,0.774,1.549,1.548,2.327,2.327c0,6.772,0,13.549,0,20.327c-1.249,0.243-9.45,0.313-14.023,0.117
	C56.624,56.828,56.624,45.373,56.624,33.637z"/>
<path fill="#333333" d="M16.814,83.978c-0.562,0-0.978,0-1.393,0c-0.37-1.456-0.74-2.911-1.11-4.366
	c-0.404,1.418-0.224,2.832-0.321,4.302c-0.38,0-0.767,0-1.189,0c0-2.031,0-4.047,0-6.126c0.648,0,1.31,0,2.063,0
	c0.543,0.388,0.534,1.126,0.71,1.772c0.167,0.612,0.279,1.239,0.447,1.999c0.198-0.158,0.438-0.253,0.483-0.404
	c0.335-1.11,0.633-2.231,0.952-3.382c0.716,0,1.378,0,2.117,0c0,2.009,0,4.062,0,6.162c-0.338,0-0.687,0-1.144,0
	c0-1.393,0-2.826,0-4.257C17.552,80.985,17.442,82.532,16.814,83.978z"/>
<path fill="#333333" d="M53.124,78.469c0,0.547,0,1.066,0,1.615c-0.173,0.159-0.366,0.334-0.562,0.513
	c0.325,0.537,0.641,1.058,1.01,1.665c-0.388,0.607-0.757,1.182-1.071,1.673c-1.323,0-2.508,0-3.721,0c0-2.065,0-4.084,0-6.248
	C50.212,77.92,51.73,77.238,53.124,78.469z M51.921,82.078c-0.564-0.555-1.268-0.767-1.534-0.518c0,0.406,0,0.784,0,1.162
	C51.003,82.727,51.6,82.881,51.921,82.078z M50.34,80.273c0.494-0.157,1.01,0.198,1.201-0.301c0.11-0.288-0.015-0.667-0.03-0.942
	c-0.459,0-0.806,0-1.17,0C50.34,79.43,50.34,79.778,50.34,80.273z"/>
<path fill="#333333" d="M67.312,77.722c0.885,0,1.766-0.03,2.642,0.015c0.378,0.02,0.804,0.109,1.11,0.314
	c1.033,0.691,1.511,1.841,1.396,2.94c-0.108,1.025-0.323,2.252-1.655,2.737c-0.335,0.12-0.639,0.248-0.986,0.249
	c-0.933,0.008-1.865,0.003-2.921,0.003C67.016,81.921,66.583,79.884,67.312,77.722z M69.863,82.728
	c1.484-1.222,1.445-2.561,0.068-3.701c-0.519,0-0.972,0-1.423,0c0,1.233-0.002,2.412,0.003,3.592
	c0.001,0.037,0.068,0.074,0.104,0.109C69.032,82.728,69.447,82.728,69.863,82.728z"/>
<path fill="#333333" d="M45.749,83.943c-0.708,0-1.162,0-1.596,0c-0.334-0.956-0.263-2.122-1.643-2.544c0,0.905,0,1.712,0,2.547
	c-0.559,0-1.011,0-1.523,0c0-2.05,0-4.098,0-6.185c1.202,0,2.382,0,3.576,0c0.318,0.317,0.648,0.647,1.019,1.018
	c0.209,0.9-0.209,1.594-0.812,2.142C45.088,81.907,45.396,82.858,45.749,83.943z M42.537,78.999c0,0.477,0,0.821,0,1.197
	c0.39,0,0.735,0,1.08,0c-0.072-0.076-0.144-0.149-0.216-0.225c0.264-0.075,0.526-0.151,1.111-0.318
	c-0.582-0.252-0.819-0.354-1.056-0.456c0.058-0.066,0.116-0.132,0.174-0.198C43.287,78.999,42.943,78.999,42.537,78.999z"/>
<path fill="#333333" d="M81.069,83.604c-0.158-1.386-0.306-1.65-1.295-2.183c0,0.854,0,1.659,0,2.511c-0.557,0-1.011,0-1.539,0
	c0-2.005,0-4.055,0-6.229c1.271,0.139,2.588-0.253,3.846,0.342c0.389,0.615,0.569,1.272,0.422,2.075
	c-0.249,0.216-0.562,0.486-0.835,0.725c0.395,1.05,0.76,2.018,1.119,2.979C81.759,84.022,81.759,84.022,81.069,83.604z M79.778,79
	c0,0.484,0,0.83,0,1.236c0.441-0.023,0.823-0.044,1.145-0.062c0-0.458,0-0.806,0-1.174C80.523,79,80.176,79,79.778,79z"/>
<path fill="#333333" d="M57.51,77.752c0.56,0,1.013,0,1.563,0c0,1.415,0.088,2.814-0.044,4.191c-0.05,0.514-0.188,1.126-0.598,1.615
	c-0.436,0.524-1.072,0.536-1.593,0.679c-0.504,0.14-1.199-0.06-1.69-0.328c-0.394-0.216-0.644-0.738-0.888-1.165
	c-0.138-0.242-0.182-0.565-0.186-0.854c-0.019-1.347-0.008-2.693-0.008-4.104c0.516,0,1.004,0,1.53,0c0,1.468,0,2.914,0,4.461
	c0.278,0.22,0.597,0.471,1.014,0.798c0.242-0.202,0.581-0.485,0.897-0.751C57.51,80.792,57.51,79.338,57.51,77.752z"/>
<path fill="#333333" d="M24.739,83.925c-0.104-0.234-0.182-0.41-0.257-0.588c-0.076-0.176-0.147-0.355-0.236-0.57
	c-0.645,0-1.307,0-1.974,0c-0.181,0.387-0.365,0.778-0.553,1.181c-0.449,0-0.903,0-1.385,0c0.695-2.075,1.376-4.109,2.065-6.165
	c0.652,0,1.209,0,1.812,0c0.658,1.979,1.338,4.024,2.042,6.143C25.725,83.925,25.269,83.925,24.739,83.925z M23.284,79.091
	c-0.304,0.951-0.519,1.626-0.741,2.321c0.481,0,0.971,0,1.426,0C23.751,80.677,23.549,79.991,23.284,79.091z"/>
<path fill="#333333" d="M73.209,77.755c1.344,0,2.633,0,3.966,0c0,0.381,0,0.73,0,1.19c-0.771,0-1.579,0-2.42,0
	c0,0.461,0,0.81,0,1.221c0.656,0,1.321,0,2.092,0c0.024,0.436,0.047,0.818,0.073,1.266c-0.726,0-1.392,0-2.128,0
	c0,0.439,0,0.827,0,1.27c0.766,0,1.534,0,2.365,0c0,0.44,0,0.826,0,1.247c-1.316,0-2.606,0-3.949,0
	C73.209,81.917,73.209,79.899,73.209,77.755z"/>
<path fill="#333333" d="M37.828,81.421c0,0.516,0,0.864,0,1.269c0.692,0,1.355,0,1.964,0c0.202,0.201,0.349,0.35,0.502,0.502
	c0,0.201,0,0.408,0,0.621c-0.027,0.032-0.06,0.105-0.093,0.105c-1.288,0.004-2.575,0.004-3.916,0.004c0-2.008,0-4.024,0-6.163
	c0.544-0.012,1.15-0.029,1.756-0.035c0.617-0.008,1.235-0.002,1.897-0.002c0,0.41,0,0.757,0,1.22c-0.661,0-1.365,0-2.103,0
	c0,0.458,0,0.807,0,1.267c0.686,0,1.39,0,2.12,0c0,0.459,0,0.81,0,1.213C39.282,81.421,38.618,81.421,37.828,81.421z"/>
<path fill="#333333" d="M30.568,77.722c0,0.46,0,0.811,0,1.214c-0.692,0-1.356,0-2.123,0c-0.017,0.291-0.032,0.535-0.05,0.859
	c0.426,0.168,0.867,0.342,1.559,0.614c0.146,0.178,0.473,0.578,0.935,1.141c0,0.238,0,0.754,0,1.346
	c-0.339,0.288-0.734,0.62-1.277,1.081c-0.705,0.264-1.652,0.584-2.734-0.327c-0.002-0.05-0.021-0.438-0.047-0.972
	c0.562,0.08,1.029,0.146,1.799,0.257c0.04-0.019,0.381-0.189,0.713-0.354c0-0.229,0-0.436,0-0.572
	c-0.875-0.514-1.717-1.008-2.495-1.464c0-0.675,0-1.195,0-1.736c0.36-0.35,0.732-0.712,1.118-1.087
	C28.775,77.722,29.61,77.722,30.568,77.722z"/>
<path fill="#333333" d="M32.84,78.975c-0.501,0-0.85,0-1.25,0c0-0.4,0-0.749,0-1.176c1.267,0,2.588,0,3.963,0
	c0,0.322,0,0.671,0,1.11c-0.328,0.032-0.717,0.07-1.151,0.113c0,1.606,0,3.202,0,4.878c-0.532,0-1.02,0-1.562,0
	C32.84,82.332,32.84,80.738,32.84,78.975z"/>
<path fill="#333333" d="M64.032,82.735c0.819,0,1.48,0,2.189,0c0,0.4,0,0.749,0,1.172c-1.174,0-2.393,0-3.659,0
	c0-2.001,0-4.014,0-6.105c0.439,0,0.928,0,1.47,0C64.032,79.378,64.032,80.976,64.032,82.735z"/>
<path fill="#333333" d="M44.274,91.718c0.64-1.401,1.16-2.541,1.793-3.928c0.544,1.904,0.77,3.578,1.215,5.475
	c-0.832-0.604-0.832-0.604-1.497-3.424c-0.497,1.127-0.952,2.16-1.501,3.408c-0.592-1.259-1.084-2.305-1.662-3.533
	c-0.204,1.239-0.372,2.259-0.545,3.307c-0.24,0-0.484,0-0.788,0c0.343-1.631,0.681-3.237,1.038-4.931
	c0.026-0.006,0.168-0.037,0.24-0.052C43.11,89.207,43.635,90.339,44.274,91.718z"/>
<path fill="#333333" d="M68.148,91.66c0-1.331,0-2.451,0-3.582c0.247,0,0.388,0,0.569,0c0,1.665,0,3.3,0,5.07
	c-1.243-1.244-2.392-2.393-3.69-3.69c0,1.309,0,2.426,0,3.567c-0.352,0-0.597,0-0.895,0c0-1.76,0-3.498,0-5.382
	C65.481,88.993,66.733,90.246,68.148,91.66z"/>
<path fill="#333333" d="M60.037,83.927c0-2.07,0-4.084,0-6.15c0.473,0,0.928,0,1.521,0c0.04,1.993,0.006,4.045,0.021,6.15
	C61.08,83.927,60.625,83.927,60.037,83.927z"/>
<path fill="#333333" d="M53.016,93.041c0.798-1.753,1.529-3.359,2.354-5.174c1.21,1.694,1.773,3.483,2.789,5.123
	c-0.253,0.029-0.489,0.055-0.788,0.088c-0.205-0.414-0.412-0.833-0.626-1.265c-0.716,0-1.439,0-2.164,0
	C53.956,92.014,54.156,93.105,53.016,93.041z M54.583,91.085c0.634,0,1.154,0,1.873,0c-0.342-0.71-0.61-1.27-0.925-1.925
	C55.182,89.867,54.906,90.429,54.583,91.085z"/>
<path fill="#333333" d="M23.31,87.935c0.27,0.22,0.649,0.37,0.694,0.59c0.315,1.505,1.213,2.723,1.885,4.051
	c0.041,0.082,0.005,0.203,0.005,0.436c-0.213-0.04-0.492-0.009-0.601-0.13c-0.259-0.288-0.437-0.647-0.673-1.019
	c-0.76,0-1.524,0-2.343,0c-0.176,0.354-0.387,0.777-0.591,1.186c-0.232,0-0.438,0-0.755,0c0.067-0.144,0.11-0.24,0.155-0.336
	C21.812,91.152,22.538,89.593,23.31,87.935z M22.484,91.123c0.625,0,1.217,0,1.951,0c-0.318-0.666-0.591-1.233-0.932-1.946
	C23.127,89.895,22.821,90.482,22.484,91.123z"/>
<path fill="#333333" d="M34.279,93.037c-0.441,0-1.062,0-1.744,0c-0.213-0.359-0.436-0.732-0.657-1.104
	c0.148-0.147,0.295-0.296,0.48-0.481c0.192,0.298,0.378,0.585,0.608,0.94c0.359,0,0.813,0,1.395,0
	c0.124-0.311,0.265-0.667,0.434-1.094c-0.907-0.49-1.721-0.929-2.572-1.389c0-0.468,0-0.923,0-1.454
	c0.478-0.52,1.146-0.786,1.996-0.716c0.21,0.248,0.445,0.525,0.698,0.823c-0.063,0.023-0.196,0.124-0.299,0.101
	c-0.328-0.076-0.646-0.197-1.057-0.33c-0.188,0.254-0.404,0.544-0.656,0.882c-0.027-0.059-0.013,0.038,0.043,0.081
	c0.393,0.302,0.787,0.604,1.197,0.884c0.365,0.251,0.751,0.473,1.116,0.699c0,0.486,0,0.894,0,1.462
	C35.079,92.469,34.785,92.678,34.279,93.037z"/>
<path fill="#333333" d="M76.283,93.054c-0.362,0-0.569,0-0.776,0c-0.037-0.035-0.106-0.07-0.106-0.106
	c-0.006-1.591-0.006-3.181-0.006-4.795c0.125-0.124,0.271-0.271,0.421-0.421c0.144,0.147,0.287,0.296,0.468,0.48
	C76.283,89.801,76.283,91.429,76.283,93.054z"/>
</svg>
