<?xml version="1.0" encoding="utf-8"?>
<!-- Generator: Adobe Illustrator 16.0.0, SVG Export Plug-In . SVG Version: 6.00 Build 0)  -->
<!DOCTYPE svg PUBLIC "-//W3C//DTD SVG 1.1//EN" "http://www.w3.org/Graphics/SVG/1.1/DTD/svg11.dtd">
<svg version="1.1" id="Layer_1" xmlns="http://www.w3.org/2000/svg" xmlns:xlink="http://www.w3.org/1999/xlink" x="0px" y="0px"
	 width="79.208px" height="80px" viewBox="10.396 10.5 79.208 80" enable-background="new 10.396 10.5 79.208 80"
	 xml:space="preserve">
<g>
	<path fill="#FDFDFD" d="M10.396,10.5c26.402,0,52.805,0,79.208,0c0,26.667,0,53.334,0,80c-26.403,0-52.806,0-79.208,0
		C10.396,63.834,10.396,37.167,10.396,10.5z M10.767,50.496c0.159,21.172,16.812,38.568,38.682,38.762
		c21.197,0.188,39.239-16.39,39.234-38.959c-0.003-21.367-16.781-38.8-39.026-38.782C27.351,11.535,10.871,29.348,10.767,50.496z"/>
	<path fill="#353535" d="M10.767,50.496c0.104-21.148,16.584-38.961,38.89-38.979c22.245-0.019,39.023,17.415,39.027,38.782
		c0.005,22.568-18.038,39.146-39.234,38.959C27.579,89.064,10.926,71.668,10.767,50.496z M12.323,50.23
		c-0.317,20.443,16.514,37.338,37.064,37.544c20.777,0.207,38.173-16.841,37.824-38.021c-0.315-19.146-15.509-36.651-37.304-36.755
		C27.457,12.892,12.128,31.303,12.323,50.23z"/>
	<path fill="#FDFDFD" d="M12.323,50.23c-0.195-18.927,15.133-37.338,37.584-37.231c21.795,0.104,36.988,17.609,37.304,36.756
		c0.35,21.18-17.046,38.229-37.824,38.02C28.837,87.568,12.005,70.673,12.323,50.23z M49.658,85.865
		c18.761,0.3,35.716-14.937,35.695-35.493c-0.02-20.003-16.059-35.412-35.542-35.519c-19.028-0.105-35.71,14.914-35.68,35.562
		C14.162,71.991,31.808,86.101,49.658,85.865z"/>
	<path fill="#353535" d="M49.658,85.865c-17.85,0.235-35.496-13.874-35.527-35.45c-0.03-20.648,16.652-35.667,35.68-35.562
		c19.485,0.107,35.523,15.515,35.542,35.519C85.374,70.929,68.419,86.165,49.658,85.865z M26.623,73.085
		c-0.133-0.131-0.266-0.263-0.399-0.395c-0.021-0.726-0.139-1.547,0.605-1.954c0.601-0.327,1.327-0.428,2.352-0.736
		c-0.844-0.21-1.392-0.475-1.927-0.452c-0.861,0.035-1.49,0.593-1.704,1.417c-0.174,0.671-0.281,1.449,0.709,1.693
		c0.131,0.133,0.261,0.266,0.392,0.397c0.462,0.519,0.462,0.519,1.319,0.029C27.346,73.085,26.984,73.085,26.623,73.085z
		 M20.711,63.587c-0.196,0.067-0.393,0.136-0.588,0.203c0.195,0.317,0.391,0.636,0.586,0.952c0.597,0.928,0.597,0.928,1.833,0.278
		c0.11-0.566,0.229-1.173,0.349-1.791c0.385-0.03,0.691-0.056,0.996-0.079c-0.08,0.381-0.159,0.763-0.292,1.403
		c0.802-0.57,0.885-0.942,0.253-1.374c-0.843-0.948-1.517-0.96-1.885,0.009c-0.172,0.455-0.199,0.968-0.305,1.524
		c-0.382,0.024-0.683,0.045-0.984,0.063c0.002-0.404,0.006-0.809,0.009-1.213c0.086-0.054,0.173-0.107,0.259-0.159
		c-0.069-0.03-0.14-0.062-0.21-0.093C20.727,63.402,20.719,63.493,20.711,63.587z M70.211,71.117
		c-0.395,0.262-0.789,0.524-1.184,0.787c-0.14,0.124-0.279,0.247-0.418,0.373c-0.874,1.137-0.895,1.832-0.081,2.624
		c0.82,0.799,1.667,0.724,2.847-0.251c0.773-0.777,0.773-0.777,0.171-1.525c-0.049,0.575-0.089,1.067-0.13,1.56
		c-0.569,0-1.14,0-1.56,0c-1.021-0.618-1.324-1.415-1.236-2.396c0.125-0.139,0.249-0.278,0.373-0.417c0.373,0,0.745,0,1.182,0
		c0-0.33,0-0.559,0-0.789c0.267-0.063,0.532-0.126,0.787-0.188c0.013-0.218,0.023-0.399,0.034-0.579
		c1.592-0.35,1.891,1.336,2.947,1.917c0.233-0.32,0.444-0.609,0.598-0.818c-0.882-0.938-2.277-1.235-2.38-2.712
		c0.272-0.034,0.544-0.07,1.065-0.137c-0.381-0.295-0.55-0.427-0.861-0.669c-0.079,0.395-0.123,0.617-0.168,0.841
		c-0.682,0.331-1.306,0.702-1.165,1.624C70.125,69.926,70.484,70.864,70.211,71.117z M73.17,35.293
		c-0.18-0.229-0.359-0.458-0.54-0.688c0.056-1.082,0.998-1.247,1.89-1.85c0.174,0.597,0.308,1.056,0.441,1.515
		c-0.083,0.065-0.168,0.13-0.055,0.043c-0.033,0.108-0.007,0.018,0.021-0.072c0.421-0.135,0.842-0.27,1.325-0.424
		c-0.555-0.514-0.952-0.883-1.443-1.339c0.639-0.45,1.146-0.806,1.645-1.156c0.335,0.245,0.583,0.425,0.83,0.604
		c0.056,0.519,0.112,1.038,0.19,1.779c0.437-0.35,0.674-0.541,0.975-0.783c-0.424-0.54-0.693-0.882-0.964-1.225
		c-0.485-0.747-0.971-1.495-1.295-1.991c-1.704,1.274-3.022,2.826-5.268,3.203c0.51,0.655,0.987,1.272,1.465,1.89
		c0.179,0.231,0.355,0.463,0.534,0.695c0.19,0.303,0.384,0.608,0.626,0.992c0.488-0.212,0.894-0.387,1.5-0.65
		C74.234,35.603,73.702,35.449,73.17,35.293z M43.247,78.642c-0.331-0.796-0.853-0.387-1.337-0.212
		c-0.428,0.433-1.023,0.79-1.246,1.311c-0.418,0.974,0.183,1.719,1.438,2.019c0.486,0.81,1.085,0.404,1.615,0.104
		c0.777-0.439,0.958-1.204,0.847-2.02C44.465,79.112,44.237,78.437,43.247,78.642z M53.576,79.027
		c-1.216,0.829-1.499,1.643-0.92,2.646c0.564,0.975,1.261,1.114,2.479,0.491c1.325-0.434,1.325-0.434,1.117-2.396
		C55.058,78.486,55.058,78.486,53.576,79.027z M25.823,66.755c-0.132-0.13-0.265-0.262-0.396-0.392
		c0.015-1.097-0.815-0.81-1.371-0.752c-0.844,0.085-1.473,0.624-1.686,1.436c-0.173,0.657-0.294,1.444,0.723,1.651
		c0.153,1.193,1.061,0.908,1.751,0.798c0.742-0.117,1.253-0.634,1.456-1.4C26.449,67.535,26.615,66.977,25.823,66.755z
		 M22.283,59.997c0.037,0.475,0.074,0.95,0.119,1.527c0.619-0.919,0.619-0.919-0.142-1.5c-0.149-0.267-0.296-0.535-0.408-0.736
		c-1.502,0.2-1.02,1.696-1.825,2.256c-0.289-0.054-0.578-0.107-0.866-0.162c-0.036,0.083-0.071,0.166-0.107,0.248
		c0.333,0.271,0.665,0.541,0.931,0.755c0.988-0.14,1.347-0.709,1.44-1.497C21.487,60.362,21.736,60.043,22.283,59.997z
		 M74.177,65.963c-1.101,0.436-0.743,1.261-0.579,2.146c0.451,0.3,0.889,0.711,1.407,0.91c0.896,0.345,1.466-0.042,1.898-1.121
		c0.82-0.912,0.746-1.725-0.22-2.43C75.749,64.787,74.844,64.965,74.177,65.963z M37.318,76.645c0.146,0.26,0.292,0.519,0.511,0.908
		c0.162-0.348,0.236-0.51,0.374-0.805c-0.362-0.021-0.643-0.039-0.924-0.057c-0.25-0.821-0.864-0.927-1.592-0.804
		c-0.054-0.191-0.109-0.383-0.163-0.576c-0.188,0.105-0.375,0.211-0.955,0.536c0.706,0,0.937,0,1.167,0
		c0.436,1.378-0.85,2.131-1.193,3.302c0.325,0.163,0.662,0.332,0.999,0.501C36.048,78.585,36.037,77.232,37.318,76.645z
		 M31.431,75.894c0.28,0.13,0.562,0.259,0.92,0.424c-0.151,0.506-0.271,0.906-0.396,1.322c0.309,0.198,0.576,0.373,1.024,0.662
		c-0.031-1.457,0.943-2.604,0.611-4.336c-0.877,0.717-1.561,1.277-2.244,1.836c-0.391,0.162-0.781,0.325-1.286,0.534
		c0.313,0.203,0.469,0.304,0.687,0.445C30.98,76.478,31.206,76.186,31.431,75.894z M65.066,75.085
		c-0.354,0.069-0.71,0.138-1.001,0.194c0.111,0.793,0.204,1.457,0.356,2.544c-0.899-0.739-1.435-1.179-2.017-1.656
		c-0.276,0.178-0.561,0.36-0.847,0.545c1.147,0.938,2.186,1.784,3.338,2.728c0-1.053-0.017-1.89,0.004-2.727
		c0.016-0.557,0.081-1.113,0.122-1.671c0.291,0.043,0.734-0.019,0.845,0.146c0.503,0.736,0.906,1.536,1.36,2.308
		c0.047,0.081,0.183,0.108,0.311,0.18c0.292-0.223,0.596-0.453,0.807-0.613c-0.723-1.072-1.404-2.083-2.095-3.107
		c-0.267,0.143-0.588,0.253-0.821,0.462C65.251,74.573,65.184,74.856,65.066,75.085z M72.757,26.15
		c-0.127-0.128-0.255-0.257-0.384-0.386c-0.448-0.55-0.897-1.101-1.375-1.687c-1.336,1.883-2.688,3.31-4.349,4.597
		c0.567,0.495,1.245,1.085,1.921,1.674c2.019,1.721,3.459,1.488,5.16-0.854C73.978,28.23,73.932,27.031,72.757,26.15z
		 M65.028,20.817c-0.03-0.083-0.061-0.166-0.027-0.072c-0.105-0.069-0.021-0.014,0.064,0.04c-0.445,2.021-1.494,3.672-3.133,5.08
		c0.729,0.357,1.426,0.698,2.122,1.039c0.556,0.389,1.112,0.777,1.71,1.194c0.396-0.465,0.658-0.775,0.851-1.002
		c-0.823-0.137-1.574-0.262-2.327-0.388c-0.048-0.311-0.235-0.693-0.119-0.919c0.763-1.471,1.471-2.987,2.836-4.265
		C66.302,21.272,65.664,21.044,65.028,20.817z M61.183,19.129c-0.108-0.063-0.217-0.127-0.325-0.189
		c-0.018,0.039-0.033,0.079-0.05,0.118c0.09,0.056,0.181,0.111,0.27,0.167c-0.272,1.967-1.039,3.735-2.264,5.326
		c0.773,0.302,1.458,0.57,1.926,0.752c0.287-2.141,1.024-3.951,2.344-5.712C62.418,19.428,61.799,19.278,61.183,19.129z
		 M27.618,25.702c0.245-0.08,0.489-0.16,0.766-0.251c1.022,1.247,2.017,2.459,2.973,3.625c-0.07,0.338-0.12,0.582-0.232,1.116
		c0.914-0.727,1.565-1.246,2.438-1.939c-0.585-0.036-0.899-0.056-1.217-0.075c-0.847-1.032-1.704-2.031-2.503-3.074
		c-0.208-0.272-0.236-0.682-0.348-1.028c0.595-0.083,1.19-0.165,1.887-0.263c-0.329-0.407-0.601-0.743-0.921-1.14
		c-0.417,0.479-0.754,0.867-1.091,1.254c-0.661,0.528-1.321,1.056-1.983,1.584c-0.297,0.197-0.595,0.395-0.943,0.624
		c0.284,0.405,0.497,0.709,0.789,1.125C27.386,26.642,27.503,26.172,27.618,25.702z M24.569,28.238
		c-1.015,0.587-0.873,1.457-0.638,2.283c0.711,0.901,1.494,1.069,2.481,0.708c0.772-0.283,1.621-0.579,2.39,0.492
		c-0.241,0.374-0.503,0.782-0.765,1.189c-0.414,0.002-0.828,0.005-1.243,0.009c-0.144-0.042-0.286-0.082-0.624-0.179
		c0.252,0.224,0.337,0.299,0.422,0.375c0.186,0.292,0.372,0.585,0.677,1.064c-2.365,0.401-4.367-0.944-6.549-0.695
		c0.059,1.067,0.713,1.609,1.374,2.148c0.121,0.132,0.24,0.264,0.361,0.396c0.698,0.982,1.396,1.965,2.162,3.044
		c0.27-0.492,0.524-0.958,0.827-1.513c-1,0.059-1.515-0.305-1.689-1.208c0.25-0.314,0.523-0.66,0.892-1.124
		c0.583,0.318,1.104,0.602,1.569,0.855c0.699-0.951,1.405-1.914,2.113-2.876c1.185-0.644,1.326-1.638,1.049-2.549
		c-1.352-2.39-3.258-0.093-4.828-0.935c0.064-0.455,0.123-0.878,0.182-1.302c0.498-0.055,0.995-0.11,1.652-0.183
		c-0.376-0.329-0.644-0.564-1.041-0.912C25.043,27.679,24.806,27.959,24.569,28.238z M57.683,22.55
		c-0.707,0.855-1.489,1.005-2.533,0.146c-0.177-1.727,0.255-3.42,1.228-5.204c-0.789-0.126-1.505-0.241-2.057-0.33
		c0,0.73,0.055,1.231-0.014,1.715c-0.101,0.712-0.313,1.408-0.438,2.119c-0.253,1.444,0.021,2.057,1.115,2.599
		c1.274,0.63,1.932,0.471,3.025-0.735c0.559-1.516,1.117-3.033,1.7-4.61c-0.482-0.087-1.032-0.187-1.455-0.262
		c0.02,0.806,0.122,1.466,0.029,2.099C58.163,20.92,57.89,21.73,57.683,22.55z M77.229,42.48c-0.986,0.125-1.142,0.843-0.981,1.597
		c0.193,0.911,0.571,1.788,1.62,2.042c0.773,0.188,1.475-0.044,1.908-0.71c0.314-0.485,0.482-1.068,0.706-1.612
		c0.247-0.605,0.591-1.031,1.336-0.789c0.523,0.529,0.397,1.05,0.024,1.596c-0.073,0.105-0.011,0.302-0.011,0.557
		c0.382-0.159,0.67-0.278,0.883-0.368c0.062-0.168,0.104-0.23,0.103-0.29c-0.042-1.511-0.579-2.426-1.549-2.643
		c-0.929-0.207-1.566,0.311-2.253,1.765c-0.239,0.506-0.561,0.973-0.773,1.333c-1.013,0.108-1.414-0.274-1.312-0.992
		c0.06-0.423,0.385-0.809,0.591-1.21c0.067-0.137,0.134-0.273,0.319-0.65C77.484,42.325,77.356,42.402,77.229,42.48z M20.506,41.212
		c-0.075-0.173-0.149-0.347-0.372-0.863c1.357,0.478,2.458,0.863,3.604,1.268c0.129-0.583,0.289-1.299,0.416-1.876
		c-1.947,0.382-3.507-0.634-5.132-0.872c-0.213-0.335-0.373-0.589-0.633-1c-0.201,0.746-0.363,1.351-0.524,1.954
		c0.868,0.6,1.616,1.117,2.363,1.634c0.282,0.337,0.565,0.675,0.979,1.171c-1.541,0.25-2.94,0.478-4.316,0.702
		c-0.163,0.576-0.297,1.055-0.439,1.555c2.193-0.176,4.002,0.639,5.881,1.753c0.105-0.45,0.24-1.024,0.367-1.568
		c-1.52,0.394-2.612-0.264-4.088-0.792c1.733-0.26,3.121-0.467,4.946-0.741C22.33,42.601,21.418,41.907,20.506,41.212z
		 M37.528,25.391c-0.418,0.138-0.837,0.275-1.373,0.452c-0.357-0.694-0.671-1.302-1.067-2.071c0.758-0.153,1.276-0.257,1.865-0.375
		c-0.274-0.491-0.516-0.926-0.779-1.398c-0.413,0.5-0.743,0.902-1.217,1.477c-0.427-0.756-0.728-1.289-1.083-1.917
		c0.548-0.31,0.982-0.555,1.296-0.732c0.49,0.152,0.816,0.253,1.507,0.467c-0.532-0.662-0.802-1-1.095-1.363
		c-1.266,0.7-2.452,1.356-3.72,2.057c1.862,1.012,2.001,3.016,3.061,4.3c-0.131,0.429-0.227,0.743-0.392,1.279
		c1.243-0.759,2.238-1.366,3.233-1.974c0.827-0.527,0.827-0.527,0.455-1.537C37.99,24.501,37.759,24.946,37.528,25.391z
		 M74.142,37.446c-0.031-0.085-0.062-0.172-0.02-0.055c-0.124-0.088-0.04-0.028,0.046,0.033c0.201,0.656,0.4,1.313,0.633,2.076
		c1.137-1.323,1.137-1.323,2.502-1.127c-0.822,1.159-2.319,2.133-1.176,3.877c0.623-0.931,1.188-1.777,1.706-2.547
		c0.815,0.059,1.452,0.104,2.104,0.15c1.91-1.836,0.185-3.255-0.302-4.776C77.929,36.307,76.152,37.143,74.142,37.446z
		 M40.842,59.769c0,1.179,0,2.101,0,3.021c0,3.364-0.009,6.729,0.006,10.093c0.002,0.533-0.251,1.239,0.892,1.416
		c0.011-2.459,0.024-4.872,0.032-7.289c0.007-2.417-0.007-4.835,0.008-7.371c0.693,0.057,1.109,0.091,1.678,0.138
		c0,5.114,0,10.106,0,15.152c4.01,1.069,7.858,1.178,11.792,0.147c0.057-5.217-0.044-10.268,0.061-15.504
		c0.748,0.117,1.216,0.191,1.742,0.274c0,0.686,0.001,1.209,0,1.731c-0.002,3.895-0.012,7.786,0.005,11.679
		c0.001,0.443,0.146,0.883,0.26,1.524c0.871-0.732,0.65-1.433,0.653-2.047c0.02-3.893,0.006-7.786,0.017-11.679
		c0.001-0.438,0.079-0.874,0.13-1.412c0.542,0.046,0.96,0.082,1.467,0.122c0,1.633,0,3.144,0,4.655c0,1.583-0.049,3.169,0.016,4.749
		c0.058,1.441-0.284,2.935,0.263,4.359c1.071-0.24,0.789-0.948,0.79-1.48c0.013-3.629-0.008-7.257-0.001-10.886
		c0.002-0.498,0.1-0.998,0.161-1.594c0.596,0.098,1.019,0.167,1.51,0.247c0,1.496,0,2.877,0,4.259c0,1.385-0.057,2.774,0.017,4.154
		c0.068,1.312-0.327,2.679,0.242,4.004c0.987-0.401,0.779-1.106,0.778-1.746c-0.007-3.298-0.011-6.597,0.002-9.895
		c0.002-0.307,0.135-0.609,0.228-1.004c0.513,0.085,0.933,0.154,1.439,0.239c0,1.815-0.026,3.522,0.008,5.23
		c0.034,1.73-0.148,3.475,0.127,5.29c7.963-5.524,12.241-17.002,8.849-27.547c-3.672-11.416-14.428-18.782-26.836-17.632
		c-10.394,0.963-19.89,8.49-22.41,20.261c-2.287,10.68,3.528,21.098,9.058,24.383c0-3.364,0-6.641,0-10.05c0.611,0,1.071,0,1.604,0
		c0,0.796,0,1.451,0,2.107c0,2.837,0.003,5.674-0.003,8.511c-0.001,0.669,0.008,1.304,1.053,1.387c0-2.042-0.009-4.012,0.002-5.98
		c0.011-2.019-0.049-4.041,0.042-6.157c0.667,0.046,1.088,0.075,1.629,0.112c0,1.764,0,3.404,0,5.044
		c0,2.441,0.001,4.882-0.004,7.323c-0.001,0.55,0.04,1.045,1.023,1.03c0-4.489,0-8.926,0-13.518
		C39.83,59.68,40.246,59.716,40.842,59.769z M44.822,23.275c-0.925-0.748-1.717-1.387-2.479-2.003
		c0.217-0.709,0.383-1.252,0.532-1.735c-1.222-1.8-1.441-1.817-4.957-0.469c1.226,1.673,1.665,3.577,1.781,5.706
		c0.573-0.153,1.246-0.333,2.064-0.554c-0.659-0.692-1.288-1.334-0.704-2.454c0.39,0.358,0.664,0.62,0.949,0.872
		c0.341,0.301,0.69,0.594,1.052,0.903c0.412,0,0.802,0.023,1.189-0.01C44.423,23.516,44.584,23.386,44.822,23.275z M52.519,17.785
		c-1.698-1.041-1.698-1.041-4.501-0.78c0.843,1.623,0.188,3.335,0.404,4.948c-0.258,0.35-0.478,0.646-0.87,1.177
		c1.48-0.084,2.746-0.001,3.932-0.266c1.356-0.302,1.674-1.396,0.931-2.576c-0.154-0.245-0.409-0.425-0.423-0.439
		C52.211,18.987,52.36,18.4,52.519,17.785z M19.317,48.559c-1.204,0.256-1.88,0.861-1.994,1.962
		c0.184,1.075,0.833,1.633,1.907,1.825c0.865-0.272,1.714-0.669,1.782-1.772C21.079,49.469,20.305,48.958,19.317,48.559z
		 M80.106,48.26c-1.065,0.297-1.772,0.879-1.636,2.079c0.138,1.229,1.011,1.549,2.034,1.617c0.926-0.425,1.681-0.95,1.521-2.063
		C81.87,48.82,81.062,48.428,80.106,48.26z M78.541,62.377c-0.506-0.473-0.918-0.855-1.298-1.21
		c-1.266,0.377-1.412,1.385-1.729,2.164c1.146,0.546,2.228,1.062,3.363,1.603c0.127-0.234,0.277-0.512,0.427-0.787
		c-0.435-0.285-0.809-0.529-1.159-0.76c0.673-0.311,1.255-0.56,1.812-0.854c0.083-0.046,0.057-0.299,0.096-0.548
		C79.502,62.129,79.073,62.239,78.541,62.377z M46.128,78.995c-0.123,1.329-0.23,2.478-0.362,3.914
		c1.114-0.849,0.206-1.914,0.886-2.67c0.68,0.912,1.351,1.812,2.223,2.98c0.206-1.61,0.363-2.836,0.519-4.061
		c-0.339,0-0.587,0-0.955,0c0.318,0.679,0.593,1.312,0.048,1.931C47.484,80.525,47.547,79.007,46.128,78.995z M78.146,55.808
		c-0.05,0.15-0.099,0.302-0.147,0.454c1.065,0.703,2.131,1.406,3.196,2.109c0.082-0.095,0.166-0.188,0.25-0.283
		c-0.361-0.416-0.723-0.834-1.228-1.415c0.679-0.223,1.166-0.384,1.649-0.543c0-0.331,0-0.627,0-0.932
		C80.562,55.412,79.354,55.61,78.146,55.808z M19.091,56.975c0.479,0.936-1.712,1.067-0.564,2.186
		c1.036-0.723,2.065-1.439,3.455-2.408c-1.746-0.37-3.001-0.751-4.422-0.32C18.083,56.617,18.604,56.802,19.091,56.975z
		 M59.296,77.388c-0.827,0.332-1.528,0.613-2.09,0.84c0.374,1.256,0.704,2.362,1.049,3.521c0.303-0.059,0.677-0.132,1.104-0.214
		c-0.23-0.556-0.436-1.052-0.662-1.593c0.479-0.137,0.822-0.233,1.219-0.348c-0.131-0.242-0.217-0.402-0.309-0.569
		c-0.365,0.128-0.695,0.246-1.139,0.402c-0.065-0.475-0.113-0.823-0.178-1.297c0.594,0,1.005,0,1.519,0
		C59.621,77.857,59.515,77.702,59.296,77.388z M77.338,58.653c-0.116,0.303-0.25,0.656-0.368,0.962
		c1.278,0.381,2.469,0.736,3.726,1.11c0.074-0.348,0.137-0.646,0.185-0.872C79.694,59.451,78.604,59.081,77.338,58.653z
		 M39.195,77.089c-0.495,1.299-0.92,2.42-1.37,3.603c0.299,0.097,0.596,0.19,0.89,0.285c0.458-1.184,0.891-2.298,1.351-3.483
		C39.78,77.359,39.488,77.225,39.195,77.089z M29,75.479c0.861-1.003,1.639-1.912,2.463-2.872c-0.292-0.246-0.568-0.479-0.727-0.613
		c-0.861,1.032-1.633,1.957-2.431,2.915C28.491,75.061,28.733,75.261,29,75.479z M19.571,60.262
		c-0.116-0.089-0.232-0.178-0.348-0.266c-0.132,0.26-0.265,0.518-0.397,0.777c0.103,0.054,0.206,0.108,0.31,0.163
		C19.28,60.712,19.426,60.486,19.571,60.262z M28.993,70.328c0.078,0.784,0.109,1.104,0.181,1.829c0.401-0.434,0.56-0.604,0.75-0.81
		C29.636,71.032,29.476,70.857,28.993,70.328z"/>
	<path fill="#FDFDFD" d="M40.842,59.769c-0.598-0.053-1.013-0.089-1.673-0.147c0,4.592,0,9.028,0,13.518
		c-0.985,0.015-1.025-0.48-1.023-1.03c0.005-2.441,0.004-4.883,0.004-7.324c0-1.64,0-3.28,0-5.043
		c-0.541-0.038-0.962-0.067-1.629-0.113c-0.091,2.117-0.032,4.141-0.042,6.158c-0.011,1.968-0.003,3.938-0.003,5.979
		c-1.044-0.083-1.054-0.718-1.052-1.387c0.007-2.837,0.003-5.674,0.003-8.51c0-0.656,0-1.312,0-2.108c-0.533,0-0.992,0-1.604,0
		c0,3.41,0,6.687,0,10.051c-5.53-3.284-11.344-13.703-9.058-24.383c2.521-11.771,12.017-19.298,22.41-20.261
		c12.409-1.15,23.164,6.216,26.837,17.631c3.393,10.545-0.887,22.023-8.85,27.546c-0.274-1.814-0.093-3.56-0.126-5.29
		c-0.035-1.707-0.008-3.415-0.008-5.23c-0.508-0.084-0.927-0.153-1.44-0.239c-0.093,0.394-0.226,0.698-0.227,1.003
		c-0.014,3.299-0.009,6.597-0.003,9.896c0.002,0.639,0.209,1.343-0.778,1.744c-0.568-1.324-0.173-2.69-0.241-4.002
		c-0.074-1.382-0.017-2.771-0.017-4.156c0-1.381,0-2.763,0-4.258c-0.492-0.08-0.914-0.149-1.51-0.247
		c-0.062,0.596-0.16,1.096-0.161,1.594c-0.008,3.629,0.013,7.257,0.001,10.886c-0.003,0.532,0.28,1.241-0.791,1.479
		c-0.547-1.423-0.205-2.917-0.263-4.358c-0.063-1.58-0.015-3.166-0.015-4.749c0-1.511,0-3.021,0-4.655
		c-0.508-0.041-0.926-0.078-1.468-0.122c-0.05,0.537-0.129,0.975-0.13,1.412c-0.01,3.893,0.004,7.785-0.017,11.679
		c-0.003,0.613,0.217,1.315-0.653,2.047c-0.114-0.641-0.258-1.081-0.26-1.523c-0.017-3.893-0.007-7.786-0.005-11.679
		c0.001-0.523,0-1.046,0-1.732c-0.525-0.082-0.994-0.156-1.741-0.274c-0.106,5.237-0.005,10.286-0.062,15.503
		c-3.933,1.032-7.782,0.923-11.792-0.146c0-5.047,0-10.038,0-15.152c-0.569-0.047-0.985-0.082-1.679-0.138
		c-0.016,2.536,0,4.954-0.008,7.371c-0.007,2.416-0.021,4.831-0.033,7.289c-1.144-0.177-0.89-0.884-0.892-1.416
		c-0.015-3.364-0.006-6.729-0.006-10.094C40.842,61.869,40.842,60.947,40.842,59.769z M74.145,47.677
		c-0.675-0.736-1.101-1.301-1.623-1.753c-7.023-6.08-14.058-12.148-21.104-18.203c-0.528-0.454-1.168-0.778-1.857-1.228
		c-0.684,0.472-1.302,0.83-1.839,1.282c-1.816,1.526-3.606,3.085-5.403,4.634c-5.288,4.562-10.58,9.119-15.854,13.697
		c-0.466,0.405-0.809,0.952-1.137,1.349c0.522,1.462,1.538,1.396,2.537,1.396c14.517-0.003,29.034-0.001,43.551-0.002
		c0.329,0,0.709,0.093,0.978-0.037C72.934,48.55,73.413,48.164,74.145,47.677z M70.517,50.559c-0.483-0.049-0.801-0.11-1.119-0.11
		c-13.523,0.023-27.047,0.051-40.57,0.084c-0.052,0-0.106,0.074-0.154,0.117c-0.048,0.044-0.091,0.092-0.277,0.282
		c0.042,0.542,0.095,1.22,0.146,1.872c14.126,0,28.013,0,41.975,0C70.517,52.042,70.517,51.405,70.517,50.559z M31.84,55.633
		c11.979,0,23.733,0,35.61,0c-0.082-0.567-0.142-0.985-0.206-1.432c-11.812,0-23.499,0-35.281,0
		C31.92,54.697,31.889,55.068,31.84,55.633z M54.091,58.334c4.214,0,8.131,0,12.169,0c-0.07-0.558-0.12-0.972-0.176-1.415
		c-3.994,0-7.855,0-11.852,0C54.186,57.386,54.145,57.791,54.091,58.334z M44.601,56.96c-4.052,0-7.964,0-11.919,0
		c0,0.534,0,0.949,0,1.386c4.04,0,7.954,0,12.019,0C44.661,57.812,44.632,57.407,44.601,56.96z"/>
	<path fill="#FDFDFD" d="M44.822,23.275c-0.238,0.111-0.399,0.24-0.571,0.255c-0.387,0.033-0.777,0.01-1.189,0.01
		c-0.361-0.31-0.711-0.603-1.052-0.903c-0.284-0.251-0.559-0.513-0.949-0.872c-0.585,1.119,0.044,1.763,0.703,2.454
		c-0.819,0.22-1.492,0.4-2.064,0.554c-0.117-2.128-0.556-4.033-1.781-5.706c3.515-1.349,3.734-1.332,4.957,0.469
		c-0.149,0.483-0.314,1.026-0.532,1.735C43.105,21.888,43.897,22.528,44.822,23.275z M39.614,18.971
		c0.34,0.923,0.595,1.614,0.92,2.493c0.491-0.44,0.8-0.718,1.122-1.007C41.327,19.514,41.123,18.602,39.614,18.971z"/>
	<path fill="#FDFDFD" d="M52.519,17.785c-0.156,0.616-0.308,1.203-0.527,2.062c0.015,0.014,0.269,0.196,0.423,0.44
		c0.743,1.179,0.426,2.273-0.931,2.576c-1.187,0.264-2.452,0.181-3.932,0.266c0.393-0.531,0.611-0.828,0.87-1.177
		c-0.215-1.613,0.439-3.324-0.404-4.948C50.82,16.744,50.82,16.744,52.519,17.785z M49.794,20.147c0,0.737,0,1.465,0,2.302
		c0.525-0.043,0.883-0.073,1.201-0.099C51.485,20.445,51.405,20.307,49.794,20.147z M49.891,17.569
		c-0.195,1.047-0.195,1.047,0.149,2.04c0.697-0.153,1.232-0.451,1.109-1.275C51.044,17.631,50.572,17.389,49.891,17.569z"/>
	<path fill="#FDFDFD" d="M74.142,37.446c2.011-0.303,3.787-1.139,5.493-2.369c0.486,1.521,2.212,2.94,0.302,4.776
		c-0.651-0.047-1.288-0.092-2.104-0.15c-0.518,0.771-1.083,1.617-1.706,2.547c-1.143-1.744,0.354-2.718,1.176-3.877
		c-1.366-0.196-1.366-0.196-2.502,1.127c-0.232-0.763-0.432-1.419-0.633-2.076L74.142,37.446z M77.547,37.663
		c0.469,1.182,1.115,1.186,1.807,0.806c0.596-0.326,1.007-0.795,0.393-1.682C79.061,37.06,78.376,37.333,77.547,37.663z"/>
	<path fill="#FDFDFD" d="M22.096,35.629c-0.661-0.539-1.315-1.081-1.374-2.148c2.182-0.249,4.184,1.098,6.549,0.695
		c-0.306-0.479-0.491-0.772-0.677-1.064c0.068-0.064,0.135-0.13,0.201-0.197c0.415-0.002,0.829-0.005,1.243-0.008
		c0.098,0.099,0.196,0.197,0.294,0.296c-0.708,0.962-1.414,1.924-2.112,2.875c-0.465-0.253-0.985-0.537-1.569-0.855
		c-0.368,0.464-0.642,0.809-0.892,1.124c0.174,0.902,0.689,1.267,1.688,1.208c-0.303,0.555-0.559,1.021-0.827,1.514
		c-0.767-1.079-1.465-2.062-2.162-3.044c0.093-0.057,0.175-0.127,0.246-0.21c0.512,0.123,0.94,0.137,0.75-0.781
		c-0.352,0.282-0.933-0.677-1.143,0.391C22.233,35.488,22.162,35.556,22.096,35.629z"/>
	<path fill="#FDFDFD" d="M37.766,25.594c-0.995,0.608-1.99,1.214-3.233,1.974c0.165-0.537,0.26-0.85,0.392-1.279
		c-1.06-1.284-1.2-3.289-3.061-4.3c1.268-0.701,2.454-1.357,3.719-2.057c0.292,0.364,0.562,0.701,1.095,1.363
		c-0.691-0.215-1.017-0.315-1.508-0.467c-0.314,0.177-0.749,0.422-1.296,0.732c0.354,0.628,0.656,1.161,1.083,1.917
		c0.474-0.575,0.805-0.976,1.218-1.477c0.264,0.472,0.506,0.908,0.779,1.398c-0.587,0.118-1.106,0.223-1.865,0.375
		c0.396,0.769,0.71,1.376,1.067,2.071c0.536-0.176,0.955-0.314,1.373-0.452C37.612,25.453,37.691,25.521,37.766,25.594z"/>
	<path fill="#FDFDFD" d="M20.506,41.212c0.912,0.694,1.824,1.389,3.052,2.324c-1.826,0.273-3.214,0.481-4.946,0.741
		c1.476,0.528,2.569,1.186,4.089,0.792c-0.127,0.545-0.262,1.119-0.368,1.568c-1.879-1.114-3.688-1.929-5.88-1.753
		c0.141-0.5,0.276-0.979,0.439-1.555c1.375-0.224,2.774-0.452,4.316-0.702c-0.414-0.495-0.696-0.833-0.978-1.171
		C20.319,41.374,20.413,41.292,20.506,41.212z"/>
	<path fill="#FDFDFD" d="M77.521,42.757c-0.206,0.402-0.531,0.788-0.591,1.21c-0.102,0.718,0.3,1.101,1.312,0.992
		c0.213-0.36,0.534-0.828,0.773-1.333c0.687-1.454,1.324-1.972,2.253-1.765c0.97,0.217,1.507,1.132,1.549,2.643
		c0.002,0.059-0.041,0.12-0.103,0.29c-0.214,0.09-0.501,0.209-0.883,0.368c0-0.255-0.062-0.451,0.011-0.557
		c0.373-0.546,0.499-1.067-0.024-1.596c-0.743-0.242-1.088,0.183-1.336,0.789c-0.223,0.544-0.391,1.126-0.706,1.612
		c-0.434,0.666-1.136,0.897-1.908,0.71c-1.049-0.253-1.427-1.131-1.62-2.042c-0.16-0.753-0.005-1.471,0.981-1.597
		C77.327,42.573,77.424,42.665,77.521,42.757z"/>
	<path fill="#FDFDFD" d="M58.011,22.861c-1.096,1.206-1.753,1.365-3.026,0.735c-1.094-0.542-1.369-1.155-1.115-2.599
		c0.125-0.71,0.337-1.407,0.438-2.119c0.07-0.483,0.015-0.984,0.015-1.715c0.551,0.088,1.269,0.203,2.057,0.33
		c-0.974,1.783-1.404,3.477-1.228,5.204c1.043,0.859,1.827,0.71,2.533-0.146C57.792,22.654,57.902,22.757,58.011,22.861z"/>
	<path fill="#FDFDFD" d="M77.283,31.928c-0.247-0.18-0.495-0.36-0.83-0.604c-0.5,0.351-1.007,0.707-1.645,1.156
		c0.49,0.457,0.888,0.825,1.443,1.339c-0.483,0.154-0.905,0.289-1.326,0.424l0.035,0.028c-0.134-0.459-0.268-0.918-0.442-1.515
		c-0.892,0.604-1.833,0.768-1.889,1.85c-0.077,0.071-0.158,0.136-0.244,0.196c-0.479-0.617-0.956-1.235-1.465-1.89
		c2.244-0.377,3.563-1.929,5.268-3.203c0.322,0.496,0.809,1.244,1.295,1.991C77.422,31.779,77.354,31.854,77.283,31.928z"/>
	<path fill="#FDFDFD" d="M19.317,48.559c0.988,0.399,1.762,0.91,1.695,2.014c-0.067,1.104-0.916,1.5-1.782,1.772
		c-1.072-0.192-1.722-0.749-1.907-1.825C17.437,49.419,18.113,48.814,19.317,48.559z"/>
	<path fill="#FDFDFD" d="M80.106,48.26c0.956,0.168,1.766,0.561,1.919,1.633c0.16,1.113-0.595,1.638-1.521,2.063
		c-1.023-0.068-1.897-0.389-2.034-1.617C78.334,49.139,79.041,48.557,80.106,48.26z"/>
	<path fill="#FDFDFD" d="M24.735,28.418c-0.059,0.424-0.118,0.847-0.182,1.302c1.569,0.841,3.476-1.455,4.828,0.934
		c0.277,0.912,0.135,1.905-1.049,2.549c-0.098-0.099-0.196-0.197-0.294-0.296c0.262-0.407,0.524-0.815,0.765-1.188
		c-0.769-1.07-1.618-0.775-2.39-0.492c-0.988,0.362-1.77,0.193-2.481-0.708c-0.234-0.825-0.377-1.695,0.638-2.283
		C24.628,28.294,24.684,28.355,24.735,28.418z"/>
	<path fill="#FDFDFD" d="M20.229,41.457c-0.748-0.517-1.496-1.035-2.363-1.634c0.161-0.604,0.324-1.208,0.524-1.954
		c0.26,0.411,0.42,0.664,0.633,1c1.625,0.236,3.184,1.254,5.132,0.872c-0.128,0.578-0.287,1.292-0.416,1.876
		c-1.147-0.403-2.248-0.79-3.604-1.268c0.223,0.517,0.297,0.69,0.372,0.863C20.413,41.292,20.319,41.374,20.229,41.457z"/>
	<path fill="#FDFDFD" d="M29.497,24.075c0.11,0.347,0.139,0.756,0.347,1.028c0.798,1.043,1.655,2.042,2.503,3.074
		c0.317,0.019,0.631,0.039,1.217,0.076c-0.873,0.693-1.524,1.212-2.438,1.939c0.112-0.534,0.162-0.778,0.232-1.116
		c-0.956-1.166-1.951-2.378-2.974-3.626c-0.277,0.092-0.521,0.171-0.766,0.251c-0.082-0.058-0.159-0.122-0.23-0.191
		c0.66-0.528,1.322-1.056,1.982-1.584L29.497,24.075z"/>
	<path fill="#FDFDFD" d="M61.183,19.129c0.616,0.149,1.235,0.299,1.899,0.461c-1.319,1.763-2.057,3.571-2.344,5.712
		c-0.469-0.183-1.153-0.451-1.927-0.752c1.225-1.59,1.991-3.358,2.264-5.326L61.183,19.129z"/>
	<path fill="#FDFDFD" d="M64.054,26.902c-0.696-0.341-1.392-0.68-2.123-1.039c1.64-1.407,2.689-3.059,3.135-5.08l-0.037,0.032
		c0.636,0.228,1.272,0.456,1.975,0.708c-1.365,1.278-2.072,2.793-2.835,4.265c-0.116,0.226,0.072,0.608,0.119,0.919
		C64.211,26.775,64.134,26.84,64.054,26.902z"/>
	<path fill="#FDFDFD" d="M68.57,30.348c-0.677-0.589-1.354-1.179-1.921-1.674c1.66-1.287,3.013-2.713,4.348-4.597
		c0.479,0.586,0.928,1.137,1.375,1.687c-0.078,0.063-0.15,0.132-0.219,0.207c-0.301,0.026-0.718-0.064-0.882,0.1
		c-1.004,0.998-1.952,2.054-2.92,3.093c0.162,0.404,0.281,0.699,0.399,0.994C68.691,30.22,68.631,30.284,68.57,30.348z"/>
	<path fill="#FDFDFD" d="M72.757,26.15c1.174,0.881,1.221,2.081,0.974,3.344c-1.701,2.342-3.143,2.574-5.16,0.854
		c0.061-0.064,0.121-0.128,0.182-0.191c2.273,0.596,3.199,0.042,4.155-2.526c-0.118-0.39-0.248-0.819-0.378-1.249
		C72.611,26.31,72.688,26.232,72.757,26.15z"/>
	<path fill="#FDFDFD" d="M78.541,62.377c0.532-0.138,0.961-0.248,1.513-0.392c-0.038,0.249-0.013,0.503-0.096,0.548
		c-0.558,0.294-1.14,0.544-1.812,0.854c0.351,0.23,0.725,0.475,1.158,0.76c-0.148,0.275-0.299,0.553-0.426,0.787
		c-1.135-0.54-2.217-1.057-3.363-1.603c0.316-0.779,0.463-1.787,1.729-2.164C77.623,61.521,78.035,61.904,78.541,62.377z
		 M76.443,62.801c0.38,0.117,0.759,0.236,1.378,0.43C77.498,62.263,77.153,62.03,76.443,62.801z"/>
	<path fill="#FDFDFD" d="M46.128,78.995c1.419,0.013,1.356,1.531,2.359,2.095c0.545-0.618,0.271-1.251-0.048-1.931
		c0.367,0,0.615,0,0.955,0c-0.156,1.225-0.313,2.45-0.519,4.061c-0.872-1.169-1.542-2.067-2.223-2.98
		c-0.681,0.756,0.228,1.821-0.886,2.67C45.899,81.473,46.005,80.324,46.128,78.995z"/>
	<path fill="#FDFDFD" d="M65.023,75.042c-0.042,0.558-0.107,1.112-0.121,1.67c-0.021,0.838-0.006,1.675-0.006,2.727
		c-1.152-0.942-2.19-1.791-3.337-2.728c0.286-0.184,0.57-0.367,0.847-0.546c0.581,0.479,1.117,0.919,2.017,1.658
		c-0.151-1.088-0.246-1.752-0.356-2.545c0.291-0.056,0.646-0.125,1-0.193L65.023,75.042z"/>
	<path fill="#FDFDFD" d="M78.146,55.808c1.208-0.197,2.417-0.396,3.722-0.609c0,0.305,0,0.601,0,0.932
		c-0.484,0.159-0.972,0.319-1.648,0.543c0.504,0.581,0.865,0.999,1.227,1.415c-0.084,0.095-0.167,0.188-0.25,0.283
		c-1.065-0.703-2.132-1.406-3.197-2.109C78.047,56.109,78.096,55.96,78.146,55.808z"/>
	<path fill="#FDFDFD" d="M19.091,56.975c-0.487-0.173-1.008-0.357-1.53-0.543c1.419-0.431,2.675-0.05,4.421,0.32
		c-1.389,0.968-2.419,1.686-3.455,2.406C17.378,58.042,19.568,57.91,19.091,56.975z"/>
	<path fill="#FDFDFD" d="M59.296,77.388c0.218,0.313,0.325,0.47,0.515,0.743c-0.515,0-0.925,0-1.519,0
		c0.064,0.474,0.111,0.822,0.177,1.297c0.443-0.156,0.774-0.274,1.14-0.402c0.091,0.167,0.177,0.327,0.31,0.569
		c-0.398,0.114-0.741,0.212-1.219,0.348c0.225,0.541,0.432,1.037,0.662,1.593c-0.429,0.082-0.804,0.154-1.105,0.214
		c-0.346-1.159-0.676-2.266-1.048-3.521C57.768,78.003,58.469,77.72,59.296,77.388z"/>
	<path fill="#FDFDFD" d="M31.346,75.802c0.684-0.559,1.367-1.119,2.244-1.836c0.333,1.732-0.642,2.879-0.611,4.336
		c-0.448-0.289-0.715-0.464-1.024-0.662c0.125-0.416,0.245-0.816,0.396-1.322c-0.358-0.165-0.64-0.294-0.92-0.424L31.346,75.802z"/>
	<path fill="#FDFDFD" d="M65.066,75.085c0.116-0.229,0.184-0.512,0.362-0.671c0.233-0.21,0.555-0.319,0.821-0.461
		c0.689,1.023,1.372,2.033,2.095,3.107c-0.211,0.159-0.514,0.391-0.807,0.613c-0.128-0.072-0.264-0.1-0.311-0.181
		c-0.454-0.771-0.857-1.571-1.36-2.308c-0.112-0.164-0.554-0.102-0.845-0.145L65.066,75.085z"/>
	<path fill="#FDFDFD" d="M35.688,75.889c0.728-0.123,1.342-0.019,1.592,0.804l0.039-0.048c-1.282,0.588-1.271,1.94-1.775,3.007
		c-0.336-0.169-0.673-0.338-0.999-0.501c0.344-1.17,1.63-1.924,1.193-3.303L35.688,75.889z"/>
	<path fill="#FDFDFD" d="M77.338,58.653c1.268,0.428,2.357,0.798,3.542,1.2c-0.048,0.226-0.11,0.524-0.184,0.873
		c-1.257-0.375-2.447-0.729-3.726-1.11C77.087,59.31,77.222,58.956,77.338,58.653z"/>
	<path fill="#FDFDFD" d="M39.195,77.089c0.292,0.136,0.584,0.271,0.87,0.404c-0.459,1.186-0.892,2.3-1.351,3.483
		c-0.294-0.095-0.59-0.188-0.89-0.285C38.276,79.509,38.702,78.388,39.195,77.089z"/>
	<path fill="#FDFDFD" d="M76.904,67.897c-0.434,1.08-1.004,1.466-1.898,1.122c-0.519-0.2-0.957-0.611-1.407-0.911
		c-0.163-0.884-0.521-1.709,0.578-2.146l-0.032-0.031c-0.046,1.997,0.92,2.689,2.802,2.006L76.904,67.897z"/>
	<path fill="#FDFDFD" d="M22.283,59.997c-0.547,0.046-0.796,0.365-0.859,0.892c-0.093,0.789-0.451,1.357-1.439,1.497
		c-0.266-0.215-0.598-0.484-0.931-0.755c0.035-0.082,0.072-0.165,0.107-0.248c0.289,0.055,0.578,0.108,0.866,0.163
		c0.806-0.562,0.323-2.058,1.826-2.257c0.112,0.2,0.259,0.469,0.408,0.735L22.283,59.997z"/>
	<path fill="#FDFDFD" d="M71.375,74.65c-1.18,0.975-2.027,1.05-2.847,0.251c-0.813-0.792-0.793-1.488,0.08-2.624l0.012,0.011
		c-0.088,0.981,0.215,1.778,1.236,2.396c0.42,0,0.99,0,1.56,0L71.375,74.65z"/>
	<path fill="#FDFDFD" d="M71.032,70.357c-0.141-0.92,0.482-1.292,1.165-1.623l-0.036-0.035c0.103,1.477,1.498,1.774,2.38,2.712
		c-0.153,0.211-0.364,0.498-0.598,0.818c-1.057-0.58-1.355-2.267-2.947-1.917L71.032,70.357z"/>
	<path fill="#FDFDFD" d="M57.683,22.55c0.207-0.82,0.48-1.63,0.602-2.463c0.092-0.633-0.011-1.293-0.029-2.099
		c0.423,0.076,0.972,0.175,1.454,0.262c-0.581,1.578-1.14,3.094-1.698,4.61C57.902,22.757,57.792,22.654,57.683,22.55z"/>
	<path fill="#FDFDFD" d="M26.259,72.658c-0.99-0.244-0.884-1.022-0.709-1.693c0.214-0.824,0.843-1.382,1.704-1.417
		c0.535-0.022,1.083,0.242,1.927,0.452c-1.025,0.309-1.75,0.409-2.352,0.736c-0.743,0.407-0.626,1.229-0.605,1.954L26.259,72.658z"
		/>
	<path fill="#FDFDFD" d="M20.676,64.776c0.301-0.02,0.603-0.039,0.984-0.063c0.106-0.558,0.132-1.07,0.305-1.525
		c0.367-0.969,1.042-0.958,1.885-0.009l0.039-0.03c-0.306,0.024-0.611,0.05-0.996,0.081c-0.121,0.616-0.239,1.224-0.349,1.79
		c-1.237,0.65-1.237,0.65-1.833-0.277L20.676,64.776z"/>
	<path fill="#FDFDFD" d="M74.177,65.963c0.667-0.999,1.571-1.176,2.507-0.495c0.967,0.705,1.04,1.518,0.22,2.43l0.043,0.04
		c-0.251-1.729-0.755-2.092-2.802-2.006L74.177,65.963z"/>
	<path fill="#FDFDFD" d="M23.092,68.698c-1.017-0.207-0.896-0.994-0.723-1.651c0.213-0.811,0.842-1.351,1.686-1.436
		c0.556-0.057,1.386-0.345,1.371,0.752l0.031-0.036c-2.023,0.152-2.436,0.566-2.404,2.406L23.092,68.698z"/>
	<path fill="#FDFDFD" d="M25.823,66.755c0.792,0.221,0.626,0.779,0.478,1.34c-0.203,0.768-0.714,1.283-1.456,1.401
		c-0.691,0.11-1.599,0.395-1.751-0.798l-0.04,0.035c1.865,0.127,2.304-0.188,2.806-2.01L25.823,66.755z"/>
	<path fill="#FDFDFD" d="M29,75.479c-0.267-0.219-0.51-0.419-0.694-0.572c0.798-0.956,1.57-1.881,2.431-2.914
		c0.159,0.136,0.435,0.368,0.727,0.613C30.64,73.567,29.861,74.477,29,75.479z"/>
	<path fill="#FDFDFD" d="M53.576,79.027c1.481-0.541,1.481-0.541,2.676,0.741c0.208,1.965,0.208,1.965-1.117,2.396l0.027,0.033
		c0.728-2.056,0.28-2.941-1.618-3.202L53.576,79.027z"/>
	<path fill="#FDFDFD" d="M55.135,82.165c-1.22,0.623-1.915,0.483-2.479-0.491c-0.579-1.004-0.297-1.817,0.92-2.646l-0.033-0.031
		c-0.065,0.302-0.141,0.601-0.192,0.903c-0.25,1.451,0.265,2.102,1.812,2.299L55.135,82.165z"/>
	<path fill="#FDFDFD" d="M42.101,81.76c-1.255-0.301-1.856-1.045-1.438-2.02c0.223-0.52,0.818-0.878,1.246-1.31
		c0.074,0.089,0.153,0.174,0.236,0.255c-0.586,1.025-0.889,2.058-0.079,3.117L42.101,81.76z"/>
	<path fill="#FDFDFD" d="M43.247,78.642c0.99-0.205,1.218,0.471,1.317,1.202c0.11,0.815-0.07,1.58-0.848,2.02
		c-0.53,0.3-1.128,0.708-1.615-0.104l-0.033,0.043c1.695-0.485,1.995-1.274,1.213-3.199L43.247,78.642z"/>
	<path fill="#FDFDFD" d="M64.288,26.708c0.752,0.125,1.504,0.25,2.327,0.387c-0.192,0.226-0.456,0.536-0.851,1.002
		c-0.598-0.417-1.154-0.805-1.711-1.194C64.134,26.84,64.211,26.775,64.288,26.708z"/>
	<path fill="#FDFDFD" d="M73.17,35.293c0.532,0.155,1.064,0.309,1.876,0.545c-0.605,0.263-1.011,0.438-1.499,0.65
		c-0.243-0.384-0.436-0.688-0.628-0.992C73,35.425,73.083,35.357,73.17,35.293z"/>
	<path fill="#FDFDFD" d="M29.37,23.927c0.338-0.388,0.676-0.776,1.092-1.254c0.32,0.397,0.592,0.733,0.921,1.14
		c-0.697,0.097-1.292,0.18-1.886,0.263L29.37,23.927z"/>
	<path fill="#FDFDFD" d="M77.484,31.699c0.271,0.343,0.54,0.686,0.964,1.225c-0.302,0.242-0.538,0.432-0.975,0.783
		c-0.078-0.741-0.135-1.26-0.19-1.779C77.354,31.854,77.422,31.779,77.484,31.699z"/>
	<path fill="#FDFDFD" d="M22.26,60.024c0.761,0.58,0.761,0.58,0.142,1.5c-0.044-0.577-0.082-1.053-0.118-1.527L22.26,60.024z"/>
	<path fill="#FDFDFD" d="M27.618,25.702c-0.115,0.47-0.232,0.939-0.385,1.559c-0.29-0.416-0.504-0.721-0.788-1.125
		c0.347-0.229,0.645-0.427,0.942-0.624C27.46,25.581,27.537,25.645,27.618,25.702z"/>
	<path fill="#FDFDFD" d="M71.416,74.685c0.04-0.492,0.081-0.984,0.129-1.56c0.603,0.747,0.603,0.747-0.17,1.525L71.416,74.685z"/>
	<path fill="#FDFDFD" d="M24.569,28.238c0.237-0.279,0.474-0.559,0.776-0.914c0.397,0.347,0.665,0.583,1.041,0.912
		c-0.657,0.073-1.154,0.127-1.651,0.183C24.684,28.355,24.628,28.294,24.569,28.238z"/>
	<path fill="#FDFDFD" d="M37.528,25.391c0.231-0.445,0.462-0.89,0.693-1.334c0.372,1.009,0.372,1.009-0.456,1.537
		C37.691,25.521,37.612,25.453,37.528,25.391z"/>
	<path fill="#FDFDFD" d="M31.431,75.894c-0.225,0.292-0.451,0.584-0.685,0.888c-0.217-0.142-0.373-0.242-0.687-0.445
		c0.505-0.209,0.896-0.372,1.287-0.533L31.431,75.894z"/>
	<path fill="#FDFDFD" d="M70.175,71.082c0,0.23,0,0.459,0,0.787c-0.437,0-0.809,0-1.182,0l0.034,0.035
		c0.395-0.263,0.789-0.525,1.184-0.787L70.175,71.082z"/>
	<path fill="#FDFDFD" d="M20.685,63.562c-0.003,0.404-0.006,0.809-0.009,1.214l0.034-0.034c-0.195-0.317-0.391-0.635-0.586-0.953
		c0.196-0.068,0.392-0.137,0.588-0.204L20.685,63.562z"/>
	<path fill="#FDFDFD" d="M19.571,60.262c-0.146,0.225-0.291,0.45-0.436,0.676c-0.103-0.056-0.206-0.109-0.31-0.164
		c0.132-0.258,0.265-0.518,0.397-0.776C19.339,60.085,19.456,60.173,19.571,60.262z"/>
	<path fill="#FDFDFD" d="M23.85,63.18c0.631,0.432,0.548,0.804-0.253,1.374c0.133-0.641,0.212-1.022,0.292-1.404L23.85,63.18z"/>
	<path fill="#FDFDFD" d="M37.28,76.691c0.281,0.018,0.562,0.035,0.924,0.057c-0.137,0.295-0.212,0.456-0.374,0.805
		c-0.219-0.39-0.366-0.648-0.511-0.908L37.28,76.691z"/>
	<path fill="#FDFDFD" d="M35.739,75.848c-0.231,0-0.462,0-1.168,0c0.58-0.324,0.768-0.43,0.956-0.535
		c0.054,0.192,0.109,0.384,0.163,0.576L35.739,75.848z"/>
	<path fill="#FDFDFD" d="M72.197,68.734c0.044-0.222,0.089-0.445,0.168-0.841c0.312,0.242,0.479,0.374,0.86,0.67
		c-0.521,0.066-0.794,0.102-1.064,0.136L72.197,68.734z"/>
	<path fill="#FDFDFD" d="M70.211,71.117c0.273-0.253-0.085-1.191,0.821-0.76l-0.036-0.045c-0.011,0.182-0.021,0.362-0.034,0.58
		c-0.255,0.062-0.521,0.124-0.787,0.188L70.211,71.117z"/>
	<path fill="#FDFDFD" d="M28.993,70.328c0.483,0.529,0.643,0.704,0.931,1.02c-0.19,0.205-0.349,0.376-0.75,0.809
		C29.102,71.432,29.07,71.112,28.993,70.328z"/>
	<path fill="#FDFDFD" d="M41.909,78.431c0.484-0.176,1.007-0.584,1.337,0.212l0.034-0.039c-0.378,0.028-0.757,0.055-1.135,0.082
		C42.062,78.604,41.983,78.52,41.909,78.431z"/>
	<path fill="#FDFDFD" d="M26.623,73.085c0.361,0,0.723,0,1.347,0c-0.857,0.489-0.857,0.489-1.319-0.029L26.623,73.085z"/>
	<path fill="#FDFDFD" d="M72.921,35.497c-0.179-0.232-0.355-0.463-0.534-0.695c0.086-0.06,0.168-0.125,0.245-0.196
		c0.18,0.229,0.358,0.458,0.539,0.688C73.083,35.357,73,35.425,72.921,35.497z"/>
	<path fill="#FDFDFD" d="M61.077,19.224c-0.09-0.056-0.181-0.111-0.27-0.167c0.017-0.04,0.032-0.079,0.049-0.118
		c0.108,0.063,0.216,0.126,0.325,0.189L61.077,19.224z"/>
	<path fill="#FDFDFD" d="M65.065,20.785c-0.085-0.054-0.17-0.109-0.064-0.04c-0.033-0.094-0.003-0.011,0.027,0.072L65.065,20.785z"
		/>
	<path fill="#FDFDFD" d="M77.229,42.48c0.127-0.078,0.255-0.155,0.61-0.374c-0.186,0.378-0.252,0.513-0.319,0.65
		C77.424,42.665,77.327,42.573,77.229,42.48z"/>
	<path fill="#FDFDFD" d="M68.993,71.869c-0.123,0.141-0.248,0.28-0.373,0.418l-0.012-0.011c0.14-0.125,0.279-0.248,0.419-0.373
		L68.993,71.869z"/>
	<path fill="#FDFDFD" d="M72.373,25.764c0.129,0.128,0.257,0.257,0.384,0.386c-0.071,0.082-0.146,0.16-0.228,0.232
		c-0.125-0.137-0.251-0.274-0.376-0.411C72.222,25.896,72.294,25.828,72.373,25.764z"/>
	<path fill="#FDFDFD" d="M22.457,36.025c-0.121-0.132-0.241-0.264-0.361-0.396c0.066-0.073,0.137-0.14,0.212-0.204
		c0.131,0.13,0.263,0.26,0.395,0.39C22.631,35.898,22.549,35.968,22.457,36.025z"/>
	<path fill="#FDFDFD" d="M20.711,63.587c0.008-0.093,0.016-0.184,0.022-0.276c0.07,0.031,0.141,0.062,0.21,0.093
		c-0.086,0.053-0.173,0.105-0.259,0.159L20.711,63.587z"/>
	<path fill="#FDFDFD" d="M25.427,66.363c0.132,0.13,0.264,0.262,0.396,0.392l0.037-0.033c-0.134-0.131-0.269-0.263-0.402-0.395
		L25.427,66.363z"/>
	<path fill="#FDFDFD" d="M26.65,73.056c-0.131-0.132-0.261-0.265-0.392-0.397l-0.035,0.032c0.133,0.132,0.266,0.264,0.399,0.395
		L26.65,73.056z"/>
	<path fill="#FDFDFD" d="M26.593,33.112c-0.085-0.076-0.17-0.151-0.422-0.375c0.337,0.098,0.48,0.138,0.624,0.179
		C26.728,32.983,26.662,33.048,26.593,33.112z"/>
	<path fill="#FDFDFD" d="M74.167,37.424c-0.084-0.061-0.17-0.121-0.046-0.033c-0.043-0.118-0.012-0.032,0.021,0.055L74.167,37.424z"
		/>
	<path fill="#FDFDFD" d="M74.927,34.243c-0.027,0.089-0.054,0.18-0.021,0.072c-0.113,0.086-0.028,0.021,0.055-0.043L74.927,34.243z"
		/>
	<path fill="#353535" d="M74.145,47.677c-0.733,0.487-1.211,0.873-1.75,1.133c-0.27,0.131-0.648,0.037-0.978,0.037
		c-14.518,0-29.035,0-43.551,0.002c-0.999,0-2.014,0.066-2.536-1.396c0.329-0.396,0.671-0.943,1.136-1.348
		c5.274-4.579,10.566-9.137,15.854-13.697c1.797-1.549,3.586-3.107,5.402-4.635c0.538-0.451,1.155-0.809,1.839-1.281
		c0.689,0.45,1.329,0.774,1.857,1.228c7.046,6.054,14.079,12.124,21.104,18.203C73.045,46.375,73.47,46.941,74.145,47.677z
		 M71.057,46.788c-0.604-0.615-1.025-1.098-1.501-1.518c-2.418-2.138-4.849-4.262-7.277-6.386c-3.67-3.208-7.342-6.411-11.015-9.615
		c-0.643-0.561-1.251-1.225-2.25-0.836c-5.152,3.979-19.775,17.029-20.568,18.36c0.576,0.832,1.444,0.469,2.178,0.471
		c12.131,0.022,24.262,0.016,36.394,0.016c0.923,0,1.849,0.037,2.768-0.016C70.128,47.246,70.461,47.021,71.057,46.788z"/>
	<path fill="#353535" d="M70.517,50.559c0,0.847,0,1.483,0,2.246c-13.962,0-27.848,0-41.975,0c-0.05-0.65-0.104-1.328-0.146-1.871
		c0.186-0.19,0.229-0.239,0.277-0.282s0.103-0.117,0.154-0.117c13.523-0.033,27.046-0.062,40.57-0.084
		C69.716,50.449,70.033,50.51,70.517,50.559z"/>
	<path fill="#353535" d="M31.84,55.633c0.048-0.564,0.08-0.937,0.123-1.432c11.782,0,23.47,0,35.281,0
		c0.064,0.446,0.124,0.864,0.206,1.432C55.573,55.633,43.82,55.633,31.84,55.633z"/>
	<path fill="#353535" d="M54.091,58.334c0.054-0.543,0.095-0.948,0.142-1.415c3.996,0,7.859,0,11.852,0
		c0.056,0.443,0.107,0.857,0.176,1.415C62.222,58.334,58.305,58.334,54.091,58.334z"/>
	<path fill="#353535" d="M44.601,56.96c0.032,0.446,0.061,0.853,0.099,1.386c-4.065,0-7.979,0-12.019,0c0-0.437,0-0.852,0-1.386
		C36.636,56.96,40.547,56.96,44.601,56.96z"/>
	<path fill="#353535" d="M39.614,18.971c1.509-0.37,1.713,0.543,2.042,1.486c-0.321,0.289-0.63,0.566-1.122,1.007
		C40.209,20.585,39.954,19.895,39.614,18.971z"/>
	<path fill="#353535" d="M49.794,20.147c1.611,0.159,1.691,0.298,1.201,2.203c-0.315,0.026-0.675,0.056-1.201,0.099
		C49.794,21.613,49.794,20.884,49.794,20.147z"/>
	<path fill="#353535" d="M49.891,17.569c0.681-0.181,1.153,0.062,1.258,0.764c0.121,0.825-0.412,1.123-1.109,1.275
		C49.695,18.616,49.695,18.616,49.891,17.569z"/>
	<path fill="#353535" d="M77.547,37.663c0.829-0.33,1.514-0.603,2.199-0.876c0.613,0.887,0.203,1.355-0.393,1.682
		C78.662,38.849,78.016,38.845,77.547,37.663z"/>
	<path fill="#353535" d="M22.703,35.815c-0.131-0.13-0.263-0.26-0.395-0.39c0.21-1.069,0.792-0.108,1.143-0.391
		C23.643,35.953,23.214,35.938,22.703,35.815z"/>
	<path fill="#353535" d="M72.154,25.971c0.124,0.137,0.25,0.274,0.375,0.411c0.13,0.43,0.26,0.859,0.379,1.249
		c-0.956,2.569-1.882,3.123-4.155,2.526c-0.119-0.295-0.237-0.589-0.399-0.994c0.968-1.039,1.915-2.095,2.92-3.093
		C71.436,25.908,71.854,25.998,72.154,25.971z"/>
	<path fill="#353535" d="M76.443,62.801c0.71-0.772,1.055-0.54,1.378,0.43C77.202,63.037,76.822,62.92,76.443,62.801z"/>
	<path fill="#353535" d="M74.145,65.932c2.047-0.085,2.551,0.277,2.802,2.006C75.064,68.62,74.099,67.929,74.145,65.932z"/>
	<path fill="#353535" d="M25.458,66.327c0.134,0.132,0.268,0.264,0.402,0.395c-0.502,1.823-0.941,2.137-2.806,2.012
		C23.021,66.894,23.434,66.48,25.458,66.327z"/>
	<path fill="#353535" d="M55.162,82.198c-1.547-0.197-2.062-0.848-1.812-2.299c0.052-0.303,0.129-0.602,0.193-0.903
		C55.441,79.257,55.89,80.143,55.162,82.198z"/>
	<path fill="#353535" d="M42.145,78.686c0.378-0.027,0.756-0.054,1.134-0.082c0.782,1.924,0.482,2.713-1.213,3.199
		C41.256,80.743,41.56,79.711,42.145,78.686z"/>
	<path fill="#FDFDFD" d="M71.057,46.788c-0.596,0.232-0.929,0.458-1.271,0.477c-0.92,0.052-1.846,0.016-2.768,0.016
		c-12.132,0-24.263,0.006-36.395-0.016c-0.733-0.001-1.603,0.362-2.178-0.47c0.793-1.332,15.417-14.382,20.568-18.361
		c0.999-0.389,1.608,0.275,2.252,0.836c3.672,3.203,7.344,6.408,11.013,9.615c2.429,2.125,4.861,4.248,7.277,6.386
		C70.031,45.69,70.452,46.173,71.057,46.788z M65.286,44.826c-0.13-0.293-0.181-0.67-0.397-0.859
		c-4.981-4.367-9.981-8.713-15.085-13.157c-0.683,0.448-1.259,0.739-1.732,1.149c-4.515,3.925-9.018,7.865-13.505,11.822
		c-0.306,0.269-0.461,0.709-0.643,0.999c0.514,0.973,1.289,0.843,1.992,0.843c9.152,0.006,18.304,0.005,27.455,0.002
		C64.02,45.624,64.707,45.716,65.286,44.826z"/>
	<path fill="#353535" d="M65.286,44.826c-0.577,0.891-1.267,0.798-1.915,0.798c-9.151,0.003-18.304,0.004-27.456-0.002
		c-0.703,0-1.477,0.13-1.992-0.843c0.182-0.29,0.337-0.729,0.643-0.999c4.487-3.958,8.99-7.897,13.505-11.822
		c0.473-0.411,1.049-0.701,1.732-1.149c5.105,4.444,10.104,8.79,15.085,13.157C65.105,44.156,65.156,44.533,65.286,44.826z
		 M51.154,42.149c-0.146,0.252-0.293,0.504-0.439,0.757c-0.374,0.294-0.786,0.576-0.407,1.256c0.208-0.228,0.354-0.344,0.442-0.494
		c0.095-0.164,0.135-0.359,0.198-0.54c0.14-0.255,0.278-0.511,0.418-0.766c0.094-0.17,0.188-0.341,0.282-0.511
		c0.296-0.509,0.591-1.017,0.887-1.524c0.314-0.501,0.631-1.001,1.06-1.681c-1.187,0-2.081-0.048-2.966,0.027
		c-0.295,0.025-0.564,0.364-0.844,0.559c-0.023,0.174-0.048,0.348-0.089,0.648c0.233-0.207,0.321-0.286,0.409-0.364
		c0.705,0,1.408,0,2.109,0c0.051,0.275,0.086,0.462,0.122,0.65c-0.305,0.485-0.611,0.971-0.915,1.456
		C51.332,41.797,51.242,41.973,51.154,42.149z M47.609,34.673c-0.097-0.095-0.193-0.188-0.29-0.283
		c-0.024,0.095-0.049,0.189-0.073,0.285c-1.286,0.383-1.286,0.383-0.99,2.008c0.717,0.614,1.443,0.687,2.169-0.04
		c0.37,0.24,0.741,0.479,1.225,0.792c0.423-0.399,0.811-0.763,0.865-0.813c-0.564-0.762-0.993-1.343-1.424-1.928
		c-0.725,0.575-0.064,0.981,0.228,1.435c-0.075,0.076-0.149,0.15-0.224,0.225c-0.213,0.109-0.427,0.218-0.64,0.327
		c-0.525-0.123-1.049-0.247-1.566-0.368c0.135-0.704,0.227-1.189,0.32-1.675c0.142,0.002,0.283,0.005,0.425,0.008
		c0.073,0.818,0.073,0.818,1.01,0.453C48.193,34.914,47.902,34.793,47.609,34.673z M47.999,38.989l0.044,0.042
		c-0.558-0.835-1.212-0.458-1.718-0.023c-0.789,0.676-0.292,1.416,0.057,2.043c-0.303,0.528-0.581,1.015-0.83,1.449
		c1.423,1.65,2.096,1.677,3.755,0.119c-0.219-0.55-0.47-1.179-0.662-1.663c0.058-0.636,0.15-1.176,0.12-1.708
		C48.76,39.146,48.267,39.074,47.999,38.989z M53.967,40.769c0.739,0.303,1.385,0.567,1.884,0.771
		c0.436,0.832,0.25,1.365-0.345,1.696c-0.474,0.262-1.015,0.397-1.92,0.735c2.813,0.064,3.673-0.763,3.39-3.032
		c-0.688-0.307-1.467-0.654-2.26-1.007c0.487-0.901,1.864,0.056,2.113-1.404c-0.845,0.08-1.594,0.15-2.327,0.219
		C54.293,39.535,54.129,40.154,53.967,40.769z M42.355,43.602c0.646,0,1.348,0,1.809,0c-0.098-1.663-0.192-3.264-0.295-5.021
		c-0.593,0.18-1.122,0.341-1.547,0.47C43.153,40.654,43.074,42.125,42.355,43.602z M52.037,33.87
		c-0.318,0.275-0.596,0.512-0.861,0.74c0.074,0.822,0.143,1.586,0.223,2.465c0.477,0,0.861,0,1.248,0
		c-1.099-0.937-0.263-1.725,0.027-2.541C52.492,34.343,52.312,34.156,52.037,33.87z M50.061,34.645
		c-0.017,0.079-0.037,0.157-0.055,0.235c0.187,0.042,0.375,0.083,0.562,0.125c0.015-0.075,0.028-0.149,0.044-0.225
		C50.428,34.737,50.246,34.691,50.061,34.645z"/>
	<path fill="#FDFDFD" d="M47.999,38.989c0.268,0.085,0.761,0.157,0.767,0.258c0.03,0.533-0.062,1.073-0.12,1.709
		c0.192,0.483,0.443,1.112,0.662,1.662c-1.661,1.558-2.332,1.531-3.755-0.119c0.248-0.434,0.527-0.921,0.83-1.449
		c-0.349-0.627-0.846-1.367-0.057-2.043c0.506-0.434,1.161-0.811,1.718,0.024c-0.517,0.011-1.075-0.049-1.192,0.829
		c0.254,0.21,0.569,0.468,1.148,0.945C47.999,39.981,47.999,39.484,47.999,38.989z M47.915,43.29
		c0.297-1.057,0.033-1.566-0.952-1.847C46.711,42.274,46.555,42.931,47.915,43.29z"/>
	<path fill="#FDFDFD" d="M53.967,40.769c0.162-0.615,0.326-1.234,0.535-2.021c0.734-0.069,1.482-0.139,2.327-0.219
		c-0.249,1.461-1.626,0.503-2.113,1.404c0.793,0.353,1.571,0.7,2.26,1.007c0.282,2.269-0.576,3.096-3.39,3.032
		c0.905-0.338,1.446-0.474,1.92-0.735c0.595-0.331,0.78-0.864,0.345-1.696C55.352,41.336,54.706,41.072,53.967,40.769z"/>
	<path fill="#FDFDFD" d="M42.355,43.602c0.719-1.477,0.799-2.948-0.033-4.55c0.425-0.129,0.955-0.291,1.547-0.47
		c0.103,1.756,0.197,3.358,0.295,5.021C43.703,43.602,43.001,43.602,42.355,43.602z"/>
	<path fill="#FDFDFD" d="M52.037,33.87c0.274,0.285,0.453,0.474,0.638,0.664c-0.291,0.816-1.126,1.604-0.028,2.541
		c-0.385,0-0.771,0-1.248,0c-0.08-0.879-0.148-1.643-0.222-2.465C51.441,34.381,51.719,34.145,52.037,33.87z"/>
	<path fill="#FDFDFD" d="M48.456,36.682c0.213-0.109,0.426-0.218,0.64-0.327c0.136,0.099,0.272,0.198,0.409,0.297
		c0.107-0.123,0.214-0.246,0.32-0.368c-0.168-0.052-0.337-0.103-0.506-0.154c-0.292-0.455-0.952-0.86-0.228-1.435
		c0.431,0.585,0.86,1.166,1.423,1.928c-0.052,0.05-0.44,0.414-0.864,0.813c-0.484-0.314-0.854-0.553-1.225-0.792L48.456,36.682z"/>
	<path fill="#FDFDFD" d="M49.785,39.231c0.281-0.195,0.549-0.533,0.845-0.559c0.884-0.074,1.778-0.026,2.966-0.026
		c-0.429,0.679-0.744,1.18-1.06,1.681c-0.071-0.049-0.139-0.103-0.2-0.161c-0.036-0.188-0.071-0.376-0.122-0.651
		c-0.701,0-1.404,0-2.109,0C49.999,39.421,49.891,39.326,49.785,39.231z"/>
	<path fill="#FDFDFD" d="M47.21,34.64c-0.093,0.485-0.186,0.971-0.32,1.675c0.517,0.122,1.042,0.245,1.566,0.368l-0.03-0.038
		c-0.727,0.726-1.452,0.654-2.17,0.04c-0.296-1.625-0.296-1.625,0.99-2.008L47.21,34.64z"/>
	<path fill="#FDFDFD" d="M51.421,41.623c0.306-0.485,0.61-0.971,0.915-1.456c0.062,0.058,0.129,0.111,0.2,0.161
		c-0.296,0.508-0.592,1.016-0.887,1.524C51.573,41.775,51.498,41.699,51.421,41.623z"/>
	<path fill="#FDFDFD" d="M50.948,43.129c-0.063,0.181-0.104,0.376-0.198,0.54c-0.087,0.15-0.234,0.267-0.442,0.494
		c-0.38-0.681,0.034-0.962,0.407-1.256C50.795,42.979,50.873,43.053,50.948,43.129z"/>
	<path fill="#FDFDFD" d="M47.609,34.673c0.292,0.12,0.583,0.241,1.036,0.427c-0.938,0.365-0.938,0.365-1.01-0.453L47.609,34.673z"/>
	<path fill="#FDFDFD" d="M51.367,42.363c-0.141,0.254-0.279,0.511-0.418,0.766c-0.076-0.076-0.153-0.15-0.232-0.224
		c0.146-0.252,0.292-0.504,0.438-0.757C51.224,42.222,51.294,42.293,51.367,42.363z"/>
	<path fill="#FDFDFD" d="M50.061,34.645c0.184,0.046,0.367,0.091,0.55,0.137c-0.015,0.075-0.028,0.149-0.044,0.225
		c-0.188-0.042-0.375-0.084-0.562-0.125C50.024,34.803,50.044,34.724,50.061,34.645z"/>
	<path fill="#FDFDFD" d="M51.649,41.852c-0.095,0.17-0.188,0.341-0.282,0.511c-0.073-0.069-0.144-0.142-0.213-0.214
		c0.088-0.176,0.178-0.351,0.267-0.526C51.498,41.699,51.573,41.775,51.649,41.852z"/>
	<path fill="#FDFDFD" d="M47.635,34.646c-0.142-0.002-0.283-0.005-0.424-0.008l0.037,0.036c0.024-0.095,0.049-0.19,0.073-0.285
		c0.097,0.094,0.193,0.188,0.29,0.283L47.635,34.646z"/>
	<path fill="#FDFDFD" d="M50.105,39.515c-0.087,0.079-0.176,0.157-0.409,0.364c0.041-0.301,0.066-0.475,0.089-0.648
		C49.891,39.326,49.999,39.421,50.105,39.515z"/>
	<path fill="#353535" d="M47.915,43.29c-1.36-0.36-1.203-1.015-0.952-1.847C47.949,41.725,48.212,42.232,47.915,43.29z"/>
	<path fill="#353535" d="M47.999,38.989c0,0.496,0,0.992,0,1.817c-0.579-0.478-0.894-0.736-1.148-0.945
		c0.117-0.878,0.676-0.818,1.192-0.83L47.999,38.989z"/>
	<path fill="#353535" d="M49.32,36.13c0.168,0.051,0.337,0.102,0.506,0.154c-0.107,0.122-0.214,0.245-0.32,0.368
		c-0.137-0.099-0.273-0.198-0.41-0.297C49.171,36.28,49.245,36.206,49.32,36.13z"/>
</g>
</svg>
