<?xml version="1.0" encoding="utf-8"?>
<!-- Generator: Adobe Illustrator 16.0.0, SVG Export Plug-In . SVG Version: 6.00 Build 0)  -->
<!DOCTYPE svg PUBLIC "-//W3C//DTD SVG 1.1//EN" "http://www.w3.org/Graphics/SVG/1.1/DTD/svg11.dtd">
<svg version="1.1" id="Layer_1" xmlns="http://www.w3.org/2000/svg" xmlns:xlink="http://www.w3.org/1999/xlink" x="0px" y="0px"
	 width="30.721px" height="25px" viewBox="9.672 7.488 30.721 25" enable-background="new 9.672 7.488 30.721 25"
	 xml:space="preserve">
<path fill="#333333" d="M40.393,10.45c-1.132,0.502-2.343,0.84-3.619,0.997c1.303-0.782,2.305-2.018,2.773-3.489
	c-1.217,0.721-2.564,1.25-4.004,1.53c-1.152-1.231-2.793-2-4.604-2c-3.482,0-6.301,2.826-6.301,6.308
	c0,0.495,0.052,0.977,0.163,1.439c-5.241-0.26-9.888-2.773-12.994-6.595c-0.54,0.932-0.853,2.018-0.853,3.171
	c0,2.188,1.12,4.121,2.813,5.253c-1.042-0.026-2.018-0.312-2.865-0.789c0,0.027,0,0.053,0,0.08c0,3.06,2.174,5.605,5.058,6.185
	c-0.527,0.142-1.087,0.221-1.66,0.221c-0.404,0-0.801-0.04-1.185-0.118c0.8,2.507,3.131,4.331,5.892,4.383
	c-2.154,1.693-4.876,2.701-7.832,2.701c-0.508,0-1.01-0.032-1.503-0.091c2.779,1.81,6.093,2.852,9.648,2.852
	c11.608,0,17.948-9.616,17.948-17.955c0-0.274-0.005-0.547-0.019-0.814C38.479,12.827,39.546,11.72,40.393,10.45z"/>
</svg>
