<?xml version="1.0" encoding="utf-8"?>
<!-- Generator: Adobe Illustrator 16.0.0, SVG Export Plug-In . SVG Version: 6.00 Build 0)  -->
<!DOCTYPE svg PUBLIC "-//W3C//DTD SVG 1.1//EN" "http://www.w3.org/Graphics/SVG/1.1/DTD/svg11.dtd">
<svg version="1.1" id="Logo" xmlns="http://www.w3.org/2000/svg" xmlns:xlink="http://www.w3.org/1999/xlink" x="0px" y="0px"
	 width="25px" height="25px" viewBox="7.5 7.5 25 25" enable-background="new 7.5 7.5 25 25" xml:space="preserve">
<g>
	<path fill="#333333" d="M20,9.752c3.338,0,3.732,0.013,5.051,0.072c1.22,0.056,1.881,0.259,2.321,0.431
		c0.583,0.227,1.001,0.497,1.438,0.935c0.438,0.437,0.708,0.854,0.936,1.437c0.171,0.441,0.374,1.103,0.43,2.321
		c0.062,1.318,0.073,1.714,0.073,5.051c0,3.338-0.013,3.732-0.073,5.051c-0.056,1.22-0.259,1.881-0.43,2.321
		c-0.228,0.583-0.498,1.001-0.936,1.438c-0.437,0.438-0.854,0.708-1.438,0.936c-0.44,0.171-1.102,0.374-2.321,0.43
		c-1.316,0.062-1.713,0.073-5.051,0.073s-3.733-0.013-5.051-0.073c-1.219-0.056-1.88-0.259-2.321-0.43
		c-0.583-0.228-1-0.498-1.437-0.936c-0.438-0.437-0.708-0.854-0.935-1.438c-0.172-0.44-0.375-1.102-0.431-2.321
		C9.765,23.732,9.752,23.338,9.752,20c0-3.337,0.013-3.733,0.072-5.051c0.056-1.219,0.259-1.88,0.431-2.321
		c0.227-0.583,0.497-1,0.935-1.437c0.437-0.437,0.854-0.708,1.437-0.935c0.441-0.172,1.103-0.375,2.321-0.431
		C16.267,9.765,16.663,9.752,20,9.752 M20,7.5c-3.395,0-3.82,0.014-5.154,0.076c-1.331,0.061-2.239,0.272-3.034,0.581
		c-0.822,0.32-1.519,0.747-2.214,1.442s-1.122,1.392-1.442,2.214c-0.309,0.795-0.52,1.704-0.581,3.034
		C7.514,16.18,7.5,16.605,7.5,20c0,3.395,0.014,3.82,0.076,5.154c0.061,1.33,0.272,2.239,0.581,3.033
		c0.32,0.822,0.747,1.52,1.442,2.214c0.695,0.695,1.393,1.123,2.214,1.442c0.795,0.309,1.704,0.521,3.034,0.581
		C16.18,32.486,16.605,32.5,20,32.5c3.395,0,3.82-0.014,5.154-0.075c1.33-0.061,2.239-0.272,3.033-0.581
		c0.822-0.319,1.52-0.746,2.214-1.442c0.695-0.695,1.123-1.392,1.442-2.214c0.309-0.794,0.521-1.704,0.581-3.033
		C32.486,23.82,32.5,23.395,32.5,20c0-3.395-0.014-3.82-0.075-5.154c-0.061-1.331-0.272-2.239-0.581-3.034
		c-0.319-0.822-0.746-1.52-1.442-2.214c-0.695-0.694-1.392-1.122-2.214-1.442c-0.794-0.309-1.704-0.52-3.033-0.581
		C23.82,7.514,23.395,7.5,20,7.5L20,7.5z"/>
	<path fill="#333333" d="M20,13.581c-3.545,0-6.419,2.874-6.419,6.419c0,3.546,2.874,6.42,6.419,6.42c3.546,0,6.42-2.874,6.42-6.42
		C26.42,16.455,23.546,13.581,20,13.581z M20,24.167c-2.301,0-4.167-1.866-4.167-4.167c0-2.301,1.866-4.167,4.167-4.167
		c2.301,0,4.167,1.866,4.167,4.167C24.167,22.301,22.301,24.167,20,24.167z"/>
	<circle fill="#333333" cx="26.672" cy="13.327" r="1.5"/>
</g>
</svg>
